<?xml version="1.0" encoding="utf-8"?>
<!-- Generator: Adobe Illustrator 19.0.0, SVG Export Plug-In . SVG Version: 6.00 Build 0)  -->
<svg version="1.1" id="Layer_1" xmlns="http://www.w3.org/2000/svg" xmlns:xlink="http://www.w3.org/1999/xlink" x="0px" y="0px"
	 viewBox="0 0 74 24" style="enable-background:new 0 0 74 24;" xml:space="preserve">
    <path fill="#ED2224" d="M23.5,5.9L13.1,0.2l0,0c-0.5-0.3-1.1-0.3-1.6,0L1,5.9C0.6,6.1,0.3,6.6,0.3,7.1v9.7
	c0,0.5,0.3,1,0.8,1.3l10.5,5.7c0.5,0.3,1,0.3,1.5,0l10.5-5.7c0.5-0.2,0.8-0.7,0.8-1.3V7.1C24.3,6.6,24,6.1,23.5,5.9z M22.1,8.9v6.2
	L16.4,12L22.1,8.9z M3.4,7l8.9-4.8L21.2,7l-8.9,4.8L3.4,7z M10.5,13.2l1.2,0.6c0.4,0.2,1,0.2,1.4,0l1.2-0.6l7,3.8l-8.9,4.8L3.4,17
	L10.5,13.2z M8.2,12l-5.8,3.1V8.9L8.2,12z M29.2,7.2c0-0.7,0.5-1.2,1.2-1.2s1.2,0.5,1.2,1.2l0,0v3.2C32.3,9.5,33.3,9,34.4,9
	c2,0,3.9,1.6,3.9,4.5v0c0,2.9-1.9,4.5-3.9,4.5c-1.1,0-2.1-0.5-2.7-1.3v0c0,0.7-0.6,1.2-1.3,1.2c-0.7,0-1.2-0.6-1.2-1.2V7.2z
	 M35.9,13.5L35.9,13.5c0-1.5-1-2.4-2.1-2.4c-1.1,0-2.1,1-2.1,2.4v0c0,1.4,1,2.4,2.1,2.4C34.9,15.9,35.9,15,35.9,13.5z M39.1,13.6
	L39.1,13.6c0.1-2.6,2.3-4.6,4.9-4.5c2.4,0.1,4.4,2,4.5,4.5v0c-0.1,2.6-2.3,4.6-4.9,4.5C41.1,17.9,39.2,16,39.1,13.6z M46,13.6
	L46,13.6c0-1.3-0.9-2.4-2.2-2.4c0,0,0,0-0.1,0c-1.2,0-2.2,1-2.2,2.2c0,0.1,0,0.1,0,0.2v0c0,1.3,0.9,2.3,2.2,2.4c0,0,0,0,0.1,0
	c1.2,0,2.2-1,2.2-2.2C46,13.7,46,13.6,46,13.6z M49.4,17c-0.3-0.2-0.5-0.5-0.5-0.8c0-0.5,0.4-1,0.9-1c0,0,0,0,0,0
	c0.2,0,0.3,0,0.5,0.1c0.7,0.5,1.5,0.7,2.3,0.8c0.7,0,1-0.3,1-0.6v0c0-0.5-0.8-0.7-1.8-1c-1.2-0.4-2.6-0.9-2.6-2.6v0
	c0-1.8,1.4-2.7,3.2-2.7c0.9,0,1.8,0.2,2.7,0.7c0.4,0.2,0.6,0.5,0.6,0.9c0,0.5-0.4,1-1,1c0,0,0,0,0,0c-0.2,0-0.3,0-0.5-0.1
	c-0.6-0.3-1.2-0.5-1.9-0.5c-0.6,0-0.9,0.3-0.9,0.6v0c0,0.5,0.8,0.7,1.8,1c1.2,0.4,2.6,1,2.6,2.6v0c0,1.9-1.4,2.8-3.3,2.8
	C51.5,18,50.3,17.7,49.4,17z M57.6,15.4v-4.1h-0.1c-0.6,0-1-0.5-1-1c0-0.6,0.5-1,1-1h0.1V8.1c0-0.7,0.5-1.2,1.2-1.2
	c0.7,0,1.2,0.5,1.2,1.2v1.1h1.1c0.6,0,1,0.5,1,1c0,0.6-0.5,1-1,1h-1.1V15c0,0.6,0.2,0.8,0.8,0.8c0.1,0,0.2,0,0.3,0c0.6,0,1,0.5,1,1
	c0,0.4-0.3,0.8-0.6,0.9c-0.4,0.2-0.9,0.3-1.4,0.2C58.6,18,57.6,17.4,57.6,15.4z M62.7,15.4L62.7,15.4c0-1.9,1.4-2.8,3.5-2.8
	c0.7,0,1.4,0.1,2.1,0.4v-0.1c0-1-0.6-1.6-1.9-1.6c-0.6,0-1.1,0.1-1.7,0.2c-0.1,0-0.2,0.1-0.4,0.1c-0.6,0-1-0.4-1-1c0,0,0,0,0,0
	c0-0.4,0.3-0.8,0.7-1c0.9-0.3,1.8-0.5,2.8-0.5c1.3,0,2.3,0.4,2.9,1c0.7,0.8,1,1.8,0.9,2.8v3.9c0,0.7-0.5,1.2-1.2,1.2c0,0,0,0,0,0
	c-0.6,0-1.1-0.4-1.2-1c0,0,0,0,0,0v0c-0.7,0.7-1.6,1.1-2.6,1.1C64.1,18,62.7,17.1,62.7,15.4z M68.4,14.8v-0.4
	c-0.5-0.2-1-0.3-1.6-0.3c-1,0-1.7,0.4-1.7,1.2v0c0,0.7,0.5,1,1.3,1C67.6,16.3,68.4,15.7,68.4,14.8z M73.7,17.1
	c0,0.4-0.4,0.8-0.8,0.8c0,0,0,0,0,0c-0.5,0-0.8-0.4-0.8-0.8s0.4-0.8,0.8-0.8C73.3,16.3,73.7,16.7,73.7,17.1
	C73.7,17.1,73.7,17.1,73.7,17.1z M72.3,17.1c0,0.3,0.3,0.6,0.6,0.6c0,0,0,0,0,0c0.3,0,0.6-0.3,0.6-0.6c0,0,0,0,0,0
	c0-0.3-0.3-0.6-0.6-0.6C72.5,16.5,72.3,16.8,72.3,17.1C72.3,17.1,72.3,17.1,72.3,17.1L72.3,17.1z M72.8,17.5h-0.2v-0.8
	c0.1,0,0.2,0,0.3,0c0.1,0,0.2,0,0.3,0.1c0.1,0,0.1,0.1,0.1,0.2c0,0.1-0.1,0.2-0.2,0.2v0c0.1,0,0.1,0.1,0.1,0.2c0,0.1,0,0.1,0.1,0.2
	h-0.2c0-0.1-0.1-0.1-0.1-0.2c0-0.1-0.1-0.1-0.2-0.1h-0.1L72.8,17.5z M72.8,17.1L72.8,17.1c0.2,0,0.3,0,0.3-0.1
	c0-0.1-0.1-0.1-0.2-0.1c0,0-0.1,0-0.1,0L72.8,17.1z"/>
  </svg>
