<?xml version="1.0" encoding="utf-8"?>
<!-- Generator: Adobe Illustrator 19.0.0, SVG Export Plug-In . SVG Version: 6.00 Build 0)  -->
<svg version="1.1" id="Layer_1" xmlns="http://www.w3.org/2000/svg" xmlns:xlink="http://www.w3.org/1999/xlink" x="0px" y="0px"
	 viewBox="0 0 99 24" style="enable-background:new 0 0 99 24;" xml:space="preserve">
<style type="text/css">
	.st0{fill:#939598;}
	.st1{fill:#FFFFFF;}
	.st2{fill:#424143;}
</style>
<path id="XMLID_33_" class="st0" d="M42.4,4.1H19.5c-0.2,1.7-1.3,3.1-2.9,3.7v6.7c1.6,0.6,2.7,2,2.9,3.7h22.9
	c0.2-1.7,1.3-3.1,2.9-3.7V7.8C43.7,7.2,42.6,5.8,42.4,4.1z"/>
<circle id="XMLID_32_" class="st1" cx="30.9" cy="11.2" r="4.5"/>
<path class="st2" d="M42.8,18.7H19.1v-0.4c-0.2-1.5-1.2-2.8-2.6-3.4l-0.3-0.1V7.5l0.3-0.1c1.4-0.5,2.4-1.8,2.6-3.4V3.6h23.7V4
	C43,5.5,44,6.8,45.4,7.4l0.3,0.1v7.3l-0.3,0.1c-1.4,0.5-2.4,1.8-2.6,3.4V18.7z M19.9,17.8H42c0.3-1.6,1.3-2.9,2.8-3.6V8.1
	c-1.5-0.7-2.5-2-2.8-3.6H19.9c-0.3,1.6-1.3,2.9-2.8,3.6v6.1C18.5,14.9,19.6,16.2,19.9,17.8z M30.9,16.1c-2.7,0-5-2.2-5-5
	c0-2.7,2.2-5,5-5s5,2.2,5,5S33.7,16.1,30.9,16.1z M30.9,7.1c-2.2,0-4.1,1.8-4.1,4.1c0,2.2,1.8,4.1,4.1,4.1s4.1-1.8,4.1-4.1
	S33.2,7.1,30.9,7.1z M15.1,15.1c0-0.4-0.3-0.7-0.7-0.7H3.8c-0.4,0-0.7,0.3-0.7,0.7s0.3,0.7,0.7,0.7h10.6
	C14.8,15.8,15.1,15.5,15.1,15.1z M9.8,9c0-0.4-0.3-0.7-0.7-0.7H0.9C0.5,8.3,0.2,8.6,0.2,9s0.3,0.7,0.7,0.7h8.2
	C9.5,9.7,9.8,9.4,9.8,9z M11.4,5.5c0-0.4-0.3-0.7-0.7-0.7H7.5c-0.4,0-0.7,0.3-0.7,0.7c0,0.4,0.3,0.7,0.7,0.7h3.1
	C11.1,6.1,11.4,5.8,11.4,5.5z M5.7,5.5c0-0.4-0.3-0.7-0.7-0.7H4c-0.3,0-0.6,0.3-0.6,0.7s0.3,0.7,0.7,0.7h1C5.4,6.1,5.7,5.8,5.7,5.5z
	 M49.6,21.7v-21c0-0.4-0.3-0.7-0.7-0.7H13c-0.4,0-0.7,0.3-0.7,0.7V13c0,0.4,0.3,0.7,0.7,0.7s0.7-0.3,0.7-0.7V1.3h34.6V21H13.6v-3.7
	c0-0.4-0.3-0.7-0.7-0.7s-0.7,0.3-0.7,0.7v4.4c0,0.4,0.3,0.7,0.7,0.7h35.9C49.3,22.3,49.6,22,49.6,21.7z M64.4,5.5l1,0.2
	c-0.2,0.9-0.6,1.5-1.2,2S63,8.4,62.2,8.4c-0.9,0-1.6-0.2-2.1-0.5c-0.5-0.4-1-0.9-1.2-1.5c-0.3-0.7-0.4-1.4-0.4-2.2s0.2-1.6,0.5-2.2
	s0.8-1.1,1.4-1.4c0.6-0.3,1.2-0.5,1.9-0.5c0.8,0,1.5,0.2,2,0.6s0.9,1,1.1,1.7l-1,0.2c-0.2-0.6-0.5-1-0.8-1.3S62.6,1,62.1,1
	c-0.6,0-1.1,0.1-1.5,0.4s-0.7,0.7-0.9,1.2s-0.3,1-0.3,1.5c0,0.7,0.1,1.3,0.3,1.8s0.5,0.9,0.9,1.1C61,7.3,61.5,7.4,62,7.4
	c0.6,0,1.1-0.2,1.5-0.5C63.9,6.6,64.3,6.1,64.4,5.5z M70.4,7.5c-0.4,0.3-0.7,0.5-1,0.7c-0.3,0.1-0.7,0.2-1.1,0.2
	c-0.6,0-1.1-0.2-1.5-0.5c-0.3-0.3-0.5-0.7-0.5-1.2c0-0.3,0.1-0.5,0.2-0.8c0.1-0.2,0.3-0.4,0.5-0.6c0.2-0.1,0.4-0.2,0.7-0.3
	c0.2,0,0.5,0,0.8-0.1c0.8-0.1,1.4-0.2,1.7-0.3c0-0.1,0-0.2,0-0.3c0-0.4-0.1-0.7-0.3-0.8c-0.3-0.2-0.6-0.3-1.1-0.3s-0.8,0.1-1,0.2
	s-0.3,0.4-0.4,0.9l-1-0.1c0.1-0.4,0.2-0.7,0.4-1c0.2-0.3,0.5-0.4,0.9-0.6c0.4-0.1,0.8-0.2,1.3-0.2s0.9,0.1,1.2,0.2
	c0.3,0.1,0.5,0.3,0.7,0.4s0.2,0.4,0.3,0.7c0,0.2,0,0.5,0,0.9v1.3c0,0.9,0,1.5,0.1,1.7c0,0.2,0.1,0.5,0.2,0.7h-1
	C70.5,8.1,70.4,7.8,70.4,7.5z M70.3,5.4c-0.4,0.1-0.9,0.3-1.6,0.4c-0.4,0.1-0.7,0.1-0.9,0.2c-0.1,0-0.3,0.1-0.4,0.2
	s-0.1,0.3-0.1,0.5c0,0.3,0.1,0.5,0.3,0.7c0.2,0.2,0.5,0.3,0.9,0.3s0.7-0.1,1-0.2c0.3-0.2,0.5-0.4,0.6-0.7c0.1-0.2,0.2-0.5,0.2-1V5.4
	z M72.4,6.5l1-0.2c0.1,0.4,0.2,0.7,0.5,0.9c0.2,0.2,0.6,0.3,1,0.3c0.5,0,0.8-0.1,1-0.3c0.2-0.2,0.3-0.4,0.3-0.6s-0.1-0.4-0.3-0.5
	c-0.1-0.1-0.5-0.2-1-0.3c-0.7-0.2-1.2-0.3-1.5-0.5c-0.3-0.1-0.5-0.3-0.6-0.6c-0.1-0.2-0.2-0.5-0.2-0.8s0.1-0.5,0.2-0.7
	s0.3-0.4,0.5-0.5s0.4-0.2,0.6-0.3s0.5-0.1,0.8-0.1c0.5,0,0.9,0.1,1.2,0.2c0.3,0.1,0.6,0.3,0.8,0.5c0.2,0.2,0.3,0.5,0.3,0.9l-1,0.1
	c0-0.3-0.2-0.5-0.4-0.7C75.5,3.1,75.2,3,74.8,3c-0.5,0-0.8,0.1-1,0.2c-0.2,0.1-0.3,0.3-0.3,0.5c0,0.1,0,0.2,0.1,0.3s0.2,0.2,0.4,0.3
	c0.1,0,0.4,0.1,0.9,0.3c0.7,0.2,1.2,0.3,1.5,0.5c0.3,0.1,0.5,0.3,0.6,0.5c0.2,0.2,0.2,0.5,0.2,0.8S77,7,76.8,7.3
	C76.6,7.6,76.3,7.8,76,8c-0.4,0.2-0.8,0.2-1.2,0.2c-0.8,0-1.3-0.2-1.7-0.5C72.8,7.6,72.5,7.1,72.4,6.5z M78.4,8.3v-8h1v2.9
	c0.5-0.5,1-0.8,1.7-0.8c0.4,0,0.8,0.1,1.1,0.3c0.3,0.2,0.5,0.4,0.7,0.7c0.1,0.3,0.2,0.7,0.2,1.3v3.7h-1V4.6c0-0.5-0.1-0.8-0.3-1.1
	c-0.2-0.2-0.5-0.3-0.9-0.3c-0.3,0-0.6,0.1-0.8,0.2c-0.3,0.2-0.4,0.4-0.5,0.6c-0.2,0.3-0.2,0.6-0.2,1.1v3.2H78.4z M87.3,5.4
	c0-1.1,0.3-1.9,0.9-2.4c0.5-0.4,1.1-0.6,1.8-0.6c0.8,0,1.4,0.3,2,0.8c0.5,0.5,0.8,1.2,0.8,2.2C92.8,6,92.6,6.6,92.4,7s-0.5,0.8-1,1
	C91,8.2,90.5,8.4,90,8.4c-0.8,0-1.5-0.3-2-0.8C87.6,7.1,87.3,6.3,87.3,5.4z M88.3,5.4c0,0.7,0.2,1.3,0.5,1.7
	c0.3,0.4,0.7,0.6,1.2,0.6s0.9-0.2,1.2-0.6c0.3-0.4,0.5-0.9,0.5-1.7c0-0.7-0.2-1.3-0.5-1.6S90.5,3.2,90,3.2s-0.9,0.2-1.2,0.6
	C88.5,4.1,88.3,4.6,88.3,5.4z M93.9,8.3V2.5h0.9v0.8c0.4-0.6,1-1,1.8-1c0.3,0,0.7,0.1,1,0.2C98,2.6,98.2,2.8,98.3,3
	c0.1,0.2,0.2,0.4,0.3,0.7c0,0.2,0.1,0.5,0.1,1v3.6h-1V4.7c0-0.4,0-0.7-0.1-0.9s-0.2-0.4-0.4-0.5c-0.2-0.1-0.4-0.2-0.7-0.2
	c-0.4,0-0.8,0.1-1.1,0.4S95,4.3,95,5v3.2h-1V8.3z M58.7,21.7v-8h2.7c0.6,0,1.1,0,1.4,0.1c0.5,0.1,0.8,0.3,1.2,0.6
	c0.4,0.4,0.7,0.8,0.9,1.4c0.2,0.6,0.3,1.2,0.3,1.9c0,0.6-0.1,1.1-0.2,1.6s-0.3,0.9-0.5,1.2c-0.2,0.3-0.5,0.5-0.7,0.7
	c-0.3,0.2-0.6,0.3-1,0.4s-0.8,0.1-1.3,0.1C61.6,21.7,58.7,21.7,58.7,21.7z M59.7,20.7h1.7c0.5,0,0.9,0,1.2-0.1s0.5-0.2,0.7-0.4
	c0.3-0.3,0.4-0.6,0.6-1c0.1-0.4,0.2-0.9,0.2-1.5c0-0.8-0.1-1.5-0.4-1.9c-0.3-0.4-0.6-0.7-1-0.9c-0.3-0.1-0.7-0.2-1.4-0.2h-1.7v6
	H59.7z M70.6,19.8l1,0.1c-0.2,0.6-0.5,1.1-0.9,1.4s-1,0.5-1.7,0.5c-0.8,0-1.5-0.3-2-0.8s-0.7-1.3-0.7-2.2c0-1,0.3-1.7,0.8-2.3
	c0.5-0.5,1.2-0.8,2-0.8s1.4,0.3,1.9,0.8s0.7,1.3,0.7,2.2c0,0.1,0,0.1,0,0.3h-4.3c0,0.6,0.2,1.1,0.5,1.5c0.3,0.3,0.7,0.5,1.2,0.5
	c0.4,0,0.7-0.1,0.9-0.3C70.3,20.5,70.4,20.2,70.6,19.8z M67.3,18.2h3.2c0-0.5-0.2-0.9-0.4-1.1c-0.3-0.4-0.7-0.6-1.2-0.6
	s-0.8,0.1-1.1,0.5C67.5,17.3,67.4,17.7,67.3,18.2z M72.8,21.7v-8h1v8H72.8z M75.3,14.8v-1.1h1v1.1H75.3z M75.3,21.7v-5.8h1v5.8H75.3
	z M79.4,21.7l-2.2-5.8h1l1.2,3.5c0.1,0.4,0.3,0.8,0.4,1.2c0.1-0.3,0.2-0.7,0.4-1.1l1.3-3.5h1l-2.2,5.8h-0.9V21.7z M87.3,19.8l1,0.1
	c-0.2,0.6-0.5,1.1-0.9,1.4s-1,0.5-1.7,0.5c-0.8,0-1.5-0.3-2-0.8s-0.7-1.3-0.7-2.2c0-1,0.3-1.7,0.8-2.3c0.5-0.5,1.2-0.8,2-0.8
	s1.4,0.3,1.9,0.8s0.7,1.3,0.7,2.2c0,0.1,0,0.1,0,0.3h-4.3c0,0.6,0.2,1.1,0.5,1.5c0.3,0.3,0.7,0.5,1.2,0.5c0.4,0,0.7-0.1,0.9-0.3
	C87,20.5,87.3,20.2,87.3,19.8z M84.1,18.2h3.2c0-0.5-0.2-0.9-0.4-1.1c-0.3-0.4-0.7-0.6-1.2-0.6s-0.8,0.1-1.1,0.5
	C84.3,17.3,84.1,17.7,84.1,18.2z M89.5,21.7v-5.8h0.9v0.9c0.2-0.4,0.4-0.7,0.6-0.8c0.2-0.1,0.4-0.2,0.6-0.2c0.3,0,0.7,0.1,1,0.3
	L92.3,17c-0.2-0.1-0.5-0.2-0.7-0.2s-0.4,0.1-0.6,0.2s-0.3,0.3-0.4,0.5c-0.1,0.3-0.2,0.7-0.2,1.1v3h-0.9V21.7z M93.3,23.9L93.1,23
	c0.2,0.1,0.4,0.1,0.6,0.1s0.4,0,0.5-0.1s0.2-0.2,0.3-0.3c0.1-0.1,0.2-0.3,0.3-0.7c0-0.1,0-0.1,0.1-0.2L92.8,16h1.1l1.2,3.4
	c0.2,0.4,0.3,0.9,0.4,1.3c0.1-0.5,0.2-0.9,0.4-1.3L97,16h1l-2.2,5.9c-0.2,0.6-0.4,1.1-0.6,1.3c-0.2,0.3-0.4,0.6-0.6,0.7
	c-0.2,0-0.4,0.1-0.7,0.1C93.8,24,93.5,24,93.3,23.9z M32.3,9.1h-1.1c0.2,0.2,0.3,0.4,0.3,0.6h0.7v0.5h-0.7c0,0.4-0.1,0.7-0.4,0.9
	c-0.2,0.2-0.6,0.4-1,0.5l0,0l1.7,2.2h-0.8l-1.6-2.2v-0.5c0.3,0,0.5,0,0.7-0.1c0.4-0.1,0.7-0.4,0.7-0.8h-1.4V9.7h1.4
	c-0.1-0.3-0.3-0.4-0.6-0.5c-0.1,0-0.2-0.1-0.3-0.1c-0.1,0-0.3,0-0.5,0V8.6h2.8L32.3,9.1L32.3,9.1z"/>
</svg>
