<?xml version="1.0" encoding="utf-8"?>
<!-- Generator: Adobe Illustrator 23.0.0, SVG Export Plug-In . SVG Version: 6.00 Build 0)  -->
<svg version="1.1" id="Layer_1" xmlns="http://www.w3.org/2000/svg" xmlns:xlink="http://www.w3.org/1999/xlink" x="0px" y="0px"
	 viewBox="0 0 1024 1024" style="enable-background:new 0 0 1024 1024;" xml:space="preserve">
<style type="text/css">
	.st0{fill:#FFCE54;}
	.st1{fill:#4FC2E9;}
	.st2{fill:#E6E9ED;}
	.st3{fill:#F5F7FA;}
	.st4{fill:#3BAFDA;}
	.st5{fill:#DA4453;}
	.st6{fill:#ED5564;}
	.st7{fill:#0E9347;}
	.st8{fill:#0D8944;}
	.st9{fill:#3BB54A;}
	.st10{fill:#89C763;}
	.st11{fill:#FFCA5D;}
	.st12{fill:#F6B545;}
	.st13{fill:#FFCB5B;}
	.st14{fill:#FFE27A;}
	.st15{fill:#F19920;}
	.st16{fill:#E78825;}
	.st17{fill:#CCF49F;}
	.st18{fill:#5F6C75;}
	.st19{fill:#B3E59F;}
	.st20{fill:#4E5A61;}
	.st21{fill:#F5FCFF;}
	.st22{fill:#E0F5FC;}
	.st23{fill:#DF646E;}
	.st24{fill:#DC4955;}
	.st25{fill:#F2D1A5;}
	.st26{fill:#F2BB88;}
	.st27{fill:#855B51;}
	.st28{fill:#724D44;}
	.st29{fill:#C3DCE2;}
	.st30{fill:#F9AF38;}
	.st31{fill:#F48931;}
	.st32{fill:#F2BB88;stroke:#000000;stroke-width:7;stroke-linecap:round;stroke-linejoin:round;stroke-miterlimit:10;}
	.st33{fill:#FFCE54;stroke:#000000;stroke-width:7;stroke-linecap:round;stroke-linejoin:round;stroke-miterlimit:10;}
	.st34{fill:#4FC2E9;stroke:#000000;stroke-width:7;stroke-linecap:round;stroke-linejoin:round;stroke-miterlimit:10;}
	.st35{fill:#E6E9ED;stroke:#000000;stroke-width:7;stroke-linecap:round;stroke-linejoin:round;stroke-miterlimit:10;}
	.st36{fill:#F5F7FA;stroke:#000000;stroke-width:7;stroke-linecap:round;stroke-linejoin:round;stroke-miterlimit:10;}
	.st37{fill:#DA4453;stroke:#000000;stroke-width:7;stroke-linecap:round;stroke-linejoin:round;stroke-miterlimit:10;}
	.st38{fill:#ED5564;stroke:#000000;stroke-width:7;stroke-linecap:round;stroke-linejoin:round;stroke-miterlimit:10;}
	.st39{fill:#0E9347;stroke:#000000;stroke-width:7;stroke-linecap:round;stroke-linejoin:round;stroke-miterlimit:10;}
	.st40{fill:#3BB54A;stroke:#000000;stroke-width:7;stroke-linecap:round;stroke-linejoin:round;stroke-miterlimit:10;}
	.st41{fill:#89C763;stroke:#000000;stroke-width:7;stroke-linecap:round;stroke-linejoin:round;stroke-miterlimit:10;}
	.st42{fill:#FFCA5D;stroke:#000000;stroke-width:7;stroke-linecap:round;stroke-linejoin:round;stroke-miterlimit:10;}
	.st43{fill:#F6B545;stroke:#000000;stroke-width:7;stroke-linecap:round;stroke-linejoin:round;stroke-miterlimit:10;}
	.st44{fill:#CCF49F;stroke:#000000;stroke-width:7;stroke-linecap:round;stroke-linejoin:round;stroke-miterlimit:10;}
	.st45{fill:#4E5A61;stroke:#000000;stroke-width:7;stroke-linecap:round;stroke-linejoin:round;stroke-miterlimit:10;}
	.st46{fill:#724D44;stroke:#000000;stroke-width:7;stroke-linecap:round;stroke-linejoin:round;stroke-miterlimit:10;}
	.st47{fill:#C3DCE2;stroke:#000000;stroke-width:7;stroke-linecap:round;stroke-linejoin:round;stroke-miterlimit:10;}
	.st48{fill:#E0F5FC;stroke:#000000;stroke-width:7;stroke-linecap:round;stroke-linejoin:round;stroke-miterlimit:10;}
	.st49{fill:#F48931;stroke:#000000;stroke-width:7;stroke-linecap:round;stroke-linejoin:round;stroke-miterlimit:10;}
	.st50{fill:#FFCB5B;stroke:#000000;stroke-width:7;stroke-linecap:round;stroke-linejoin:round;stroke-miterlimit:10;}
	.st51{fill:#F19920;stroke:#000000;stroke-width:7;stroke-linecap:round;stroke-linejoin:round;stroke-miterlimit:10;}
	.st52{fill:#5F6C75;stroke:#000000;stroke-width:7;stroke-linecap:round;stroke-linejoin:round;stroke-miterlimit:10;}
	.st53{fill:#F5FCFF;stroke:#000000;stroke-width:7;stroke-linecap:round;stroke-linejoin:round;stroke-miterlimit:10;}
	.st54{fill:#DC4955;stroke:#000000;stroke-width:7;stroke-linecap:round;stroke-linejoin:round;stroke-miterlimit:10;}
	.st55{fill:#FF5F00;stroke:#000000;stroke-width:7;stroke-linecap:round;stroke-linejoin:round;stroke-miterlimit:10;}
	.st56{fill:#EB001B;stroke:#000000;stroke-width:7;stroke-linecap:round;stroke-linejoin:round;stroke-miterlimit:10;}
	.st57{fill:#F79E1B;stroke:#000000;stroke-width:7;stroke-linecap:round;stroke-linejoin:round;stroke-miterlimit:10;}
	.st58{fill:#430A6C;stroke:#000000;stroke-width:7;stroke-linecap:round;stroke-linejoin:round;stroke-miterlimit:10;}
	.st59{fill:#FC6619;stroke:#000000;stroke-width:7;stroke-linecap:round;stroke-linejoin:round;stroke-miterlimit:10;}
	.st60{fill:#FF5F00;}
	.st61{fill:#EB001B;}
	.st62{fill:#F79E1B;}
	.st63{fill:#430A6C;}
	.st64{fill:#FC6619;}
	.st65{fill:#FFCF64;stroke:#000000;stroke-width:7;stroke-linecap:round;stroke-linejoin:round;stroke-miterlimit:10;}
	.st66{fill:#44AEFF;stroke:#000000;stroke-width:7;stroke-linecap:round;stroke-linejoin:round;stroke-miterlimit:10;}
	.st67{fill:#FF4E45;stroke:#000000;stroke-width:7;stroke-linecap:round;stroke-linejoin:round;stroke-miterlimit:10;}
	.st68{fill:#19F7B2;stroke:#000000;stroke-width:7;stroke-linecap:round;stroke-linejoin:round;stroke-miterlimit:10;}
	.st69{fill:#FC877C;stroke:#000000;stroke-width:7;stroke-linecap:round;stroke-linejoin:round;stroke-miterlimit:10;}
	.st70{fill:#7DF99D;stroke:#000000;stroke-width:7;stroke-linecap:round;stroke-linejoin:round;stroke-miterlimit:10;}
	.st71{fill:#F2F2FF;stroke:#000000;stroke-width:7;stroke-linecap:round;stroke-linejoin:round;stroke-miterlimit:10;}
	.st72{fill:#CCCED8;stroke:#000000;stroke-width:7;stroke-linecap:round;stroke-linejoin:round;stroke-miterlimit:10;}
</style>
<g>
	<path class="st7" d="M977.5,651.6H46.5C20.9,651.6,0,630.7,0,605.1v-512c0-25.6,20.9-46.5,46.5-46.5h930.9
		c25.6,0,46.5,20.9,46.5,46.5v512C1024,630.7,1003.1,651.6,977.5,651.6z"/>
	<path class="st9" d="M884.4,605.1H139.6c0-51.2-41.9-93.1-93.1-93.1V186.2c51.2,0,93.1-41.9,93.1-93.1h744.7
		c0,51.2,41.9,93.1,93.1,93.1V512C926.3,512,884.4,553.9,884.4,605.1z"/>
	<g>
		<ellipse class="st7" cx="512" cy="349.1" rx="186.2" ry="209.5"/>
		<circle class="st7" cx="232.7" cy="349.1" r="46.5"/>
		<circle class="st7" cx="791.3" cy="349.1" r="46.5"/>
	</g>
	<path class="st10" d="M535.3,325.8h-46.5c-14,0-23.3-9.3-23.3-23.3c0-14,9.3-23.3,23.3-23.3h69.8c14,0,23.3-9.3,23.3-23.3
		c0-14-9.3-23.3-23.3-23.3h-23.3c0-14-9.3-23.3-23.3-23.3c-14,0-23.3,9.3-23.3,23.3c-39.6,0-69.8,30.3-69.8,69.8
		s30.3,69.8,69.8,69.8h46.5c14,0,23.3,9.3,23.3,23.3c0,14-9.3,23.3-23.3,23.3h-69.8c-14,0-23.3,9.3-23.3,23.3
		c0,14,9.3,23.3,23.3,23.3h23.3c0,14,9.3,23.3,23.3,23.3c14,0,23.3-9.3,23.3-23.3c39.6,0,69.8-30.3,69.8-69.8
		S574.8,325.8,535.3,325.8z"/>
	<circle class="st11" cx="605.1" cy="674.9" r="162.9"/>
	<circle class="st12" cx="814.5" cy="628.4" r="162.9"/>
	<circle class="st12" cx="605.1" cy="674.9" r="162.9"/>
	<g>
		<g>
			<circle class="st12" cx="814.5" cy="628.4" r="162.9"/>
		</g>
		<path class="st13" d="M814.5,465.5c-90.8,0-162.9,72.1-162.9,162.9s72.1,162.9,162.9,162.9s162.9-72.1,162.9-162.9
			S905.3,465.5,814.5,465.5z M814.5,744.7c-65.2,0-116.4-51.2-116.4-116.4S749.4,512,814.5,512s116.4,51.2,116.4,116.4
			S879.7,744.7,814.5,744.7z"/>
		<path class="st15" d="M814.5,698.2c-14,0-23.3-9.3-23.3-23.3v-93.1c0-14,9.3-23.3,23.3-23.3c14,0,23.3,9.3,23.3,23.3v93.1
			C837.8,688.9,828.5,698.2,814.5,698.2z"/>
	</g>
	<g>
		<g>
			<circle class="st12" cx="605.1" cy="674.9" r="162.9"/>
		</g>
		<path class="st13" d="M605.1,512c-90.8,0-162.9,72.1-162.9,162.9s72.1,162.9,162.9,162.9S768,765.7,768,674.9S695.9,512,605.1,512
			z M605.1,791.3c-65.2,0-116.4-51.2-116.4-116.4s51.2-116.4,116.4-116.4s116.4,51.2,116.4,116.4S670.3,791.3,605.1,791.3z"/>
		<path class="st15" d="M605.1,744.7c-14,0-23.3-9.3-23.3-23.3v-93.1c0-14,9.3-23.3,23.3-23.3c14,0,23.3,9.3,23.3,23.3v93.1
			C628.4,735.4,619.1,744.7,605.1,744.7z"/>
	</g>
	<g>
		<g>
			<circle class="st12" cx="721.5" cy="814.5" r="162.9"/>
		</g>
		<path class="st13" d="M721.5,651.6c-90.8,0-162.9,72.1-162.9,162.9s72.1,162.9,162.9,162.9s162.9-72.1,162.9-162.9
			S812.2,651.6,721.5,651.6z M721.5,930.9c-65.2,0-116.4-51.2-116.4-116.4s51.2-116.4,116.4-116.4s116.4,51.2,116.4,116.4
			S786.6,930.9,721.5,930.9z"/>
		<path class="st15" d="M721.5,884.4c-14,0-23.3-9.3-23.3-23.3V768c0-14,9.3-23.3,23.3-23.3c14,0,23.3,9.3,23.3,23.3v93.1
			C744.7,875.1,735.4,884.4,721.5,884.4z"/>
	</g>
</g>
</svg>
