<?xml version="1.0" encoding="utf-8"?>
<!-- Generator: Adobe Illustrator 23.0.0, SVG Export Plug-In . SVG Version: 6.00 Build 0)  -->
<svg version="1.1" id="Layer_1" xmlns="http://www.w3.org/2000/svg" xmlns:xlink="http://www.w3.org/1999/xlink" x="0px" y="0px"
	 viewBox="0 0 1024 1024" style="enable-background:new 0 0 1024 1024;" xml:space="preserve">
<style type="text/css">
	.st0{fill:#FFCE54;}
	.st1{fill:#4FC2E9;}
	.st2{fill:#E6E9ED;}
	.st3{fill:#F5F7FA;}
	.st4{fill:#3BAFDA;}
	.st5{fill:#DA4453;}
	.st6{fill:#ED5564;}
	.st7{fill:#0E9347;}
	.st8{fill:#0D8944;}
	.st9{fill:#3BB54A;}
	.st10{fill:#89C763;}
	.st11{fill:#FFCA5D;}
	.st12{fill:#F6B545;}
	.st13{fill:#FFCB5B;}
	.st14{fill:#FFE27A;}
	.st15{fill:#F19920;}
	.st16{fill:#E78825;}
	.st17{fill:#CCF49F;}
	.st18{fill:#5F6C75;}
	.st19{fill:#B3E59F;}
	.st20{fill:#4E5A61;}
	.st21{fill:#F5FCFF;}
	.st22{fill:#E0F5FC;}
	.st23{fill:#DF646E;}
	.st24{fill:#DC4955;}
	.st25{fill:#F2D1A5;}
	.st26{fill:#F2BB88;}
	.st27{fill:#855B51;}
	.st28{fill:#724D44;}
	.st29{fill:#C3DCE2;}
	.st30{fill:#F9AF38;}
	.st31{fill:#F48931;}
	.st32{fill:#F2BB88;stroke:#000000;stroke-width:7;stroke-linecap:round;stroke-linejoin:round;stroke-miterlimit:10;}
	.st33{fill:#FFCE54;stroke:#000000;stroke-width:7;stroke-linecap:round;stroke-linejoin:round;stroke-miterlimit:10;}
	.st34{fill:#4FC2E9;stroke:#000000;stroke-width:7;stroke-linecap:round;stroke-linejoin:round;stroke-miterlimit:10;}
	.st35{fill:#E6E9ED;stroke:#000000;stroke-width:7;stroke-linecap:round;stroke-linejoin:round;stroke-miterlimit:10;}
	.st36{fill:#F5F7FA;stroke:#000000;stroke-width:7;stroke-linecap:round;stroke-linejoin:round;stroke-miterlimit:10;}
	.st37{fill:#DA4453;stroke:#000000;stroke-width:7;stroke-linecap:round;stroke-linejoin:round;stroke-miterlimit:10;}
	.st38{fill:#ED5564;stroke:#000000;stroke-width:7;stroke-linecap:round;stroke-linejoin:round;stroke-miterlimit:10;}
	.st39{fill:#0E9347;stroke:#000000;stroke-width:7;stroke-linecap:round;stroke-linejoin:round;stroke-miterlimit:10;}
	.st40{fill:#3BB54A;stroke:#000000;stroke-width:7;stroke-linecap:round;stroke-linejoin:round;stroke-miterlimit:10;}
	.st41{fill:#89C763;stroke:#000000;stroke-width:7;stroke-linecap:round;stroke-linejoin:round;stroke-miterlimit:10;}
	.st42{fill:#FFCA5D;stroke:#000000;stroke-width:7;stroke-linecap:round;stroke-linejoin:round;stroke-miterlimit:10;}
	.st43{fill:#F6B545;stroke:#000000;stroke-width:7;stroke-linecap:round;stroke-linejoin:round;stroke-miterlimit:10;}
	.st44{fill:#CCF49F;stroke:#000000;stroke-width:7;stroke-linecap:round;stroke-linejoin:round;stroke-miterlimit:10;}
	.st45{fill:#4E5A61;stroke:#000000;stroke-width:7;stroke-linecap:round;stroke-linejoin:round;stroke-miterlimit:10;}
	.st46{fill:#724D44;stroke:#000000;stroke-width:7;stroke-linecap:round;stroke-linejoin:round;stroke-miterlimit:10;}
	.st47{fill:#C3DCE2;stroke:#000000;stroke-width:7;stroke-linecap:round;stroke-linejoin:round;stroke-miterlimit:10;}
	.st48{fill:#E0F5FC;stroke:#000000;stroke-width:7;stroke-linecap:round;stroke-linejoin:round;stroke-miterlimit:10;}
	.st49{fill:#F48931;stroke:#000000;stroke-width:7;stroke-linecap:round;stroke-linejoin:round;stroke-miterlimit:10;}
	.st50{fill:#FFCB5B;stroke:#000000;stroke-width:7;stroke-linecap:round;stroke-linejoin:round;stroke-miterlimit:10;}
	.st51{fill:#F19920;stroke:#000000;stroke-width:7;stroke-linecap:round;stroke-linejoin:round;stroke-miterlimit:10;}
	.st52{fill:#5F6C75;stroke:#000000;stroke-width:7;stroke-linecap:round;stroke-linejoin:round;stroke-miterlimit:10;}
	.st53{fill:#F5FCFF;stroke:#000000;stroke-width:7;stroke-linecap:round;stroke-linejoin:round;stroke-miterlimit:10;}
	.st54{fill:#DC4955;stroke:#000000;stroke-width:7;stroke-linecap:round;stroke-linejoin:round;stroke-miterlimit:10;}
	.st55{fill:#FF5F00;stroke:#000000;stroke-width:7;stroke-linecap:round;stroke-linejoin:round;stroke-miterlimit:10;}
	.st56{fill:#EB001B;stroke:#000000;stroke-width:7;stroke-linecap:round;stroke-linejoin:round;stroke-miterlimit:10;}
	.st57{fill:#F79E1B;stroke:#000000;stroke-width:7;stroke-linecap:round;stroke-linejoin:round;stroke-miterlimit:10;}
	.st58{fill:#430A6C;stroke:#000000;stroke-width:7;stroke-linecap:round;stroke-linejoin:round;stroke-miterlimit:10;}
	.st59{fill:#FC6619;stroke:#000000;stroke-width:7;stroke-linecap:round;stroke-linejoin:round;stroke-miterlimit:10;}
	.st60{fill:#FF5F00;}
	.st61{fill:#EB001B;}
	.st62{fill:#F79E1B;}
	.st63{fill:#430A6C;}
	.st64{fill:#FC6619;}
	.st65{fill:#FFCF64;stroke:#000000;stroke-width:7;stroke-linecap:round;stroke-linejoin:round;stroke-miterlimit:10;}
	.st66{fill:#44AEFF;stroke:#000000;stroke-width:7;stroke-linecap:round;stroke-linejoin:round;stroke-miterlimit:10;}
	.st67{fill:#FF4E45;stroke:#000000;stroke-width:7;stroke-linecap:round;stroke-linejoin:round;stroke-miterlimit:10;}
	.st68{fill:#19F7B2;stroke:#000000;stroke-width:7;stroke-linecap:round;stroke-linejoin:round;stroke-miterlimit:10;}
	.st69{fill:#FC877C;stroke:#000000;stroke-width:7;stroke-linecap:round;stroke-linejoin:round;stroke-miterlimit:10;}
	.st70{fill:#7DF99D;stroke:#000000;stroke-width:7;stroke-linecap:round;stroke-linejoin:round;stroke-miterlimit:10;}
	.st71{fill:#F2F2FF;stroke:#000000;stroke-width:7;stroke-linecap:round;stroke-linejoin:round;stroke-miterlimit:10;}
	.st72{fill:#CCCED8;stroke:#000000;stroke-width:7;stroke-linecap:round;stroke-linejoin:round;stroke-miterlimit:10;}
</style>
<g>
	<path class="st26" d="M564.7,132.1H378.9H267.2H121.1h-16h-19c-11.4,0-20.6,9.2-20.6,20.6v335.7l0,0.1h0h519.8v-37.1V152.7
		C585.3,141.3,576.1,132.1,564.7,132.1z"/>
	<path class="st17" d="M666.8,488.5V555H0v-45.9c0-11.4,9.2-20.6,20.6-20.6H666.8z"/>
	<path class="st18" d="M666.8,555v221.8l-618.1,1.8c-23.7,0-42.9-19.2-42.9-42.9L10.8,555L666.8,555z"/>
	<path class="st20" d="M609.1,555v188.5c0,3.4-2.8,6.2-6.2,6.2H346.7c-2.7,0-5.2-1.8-5.9-4.4c-17.1-59.4-72-102.9-136.8-102.9
		S84.3,685.9,67.2,745.3c-0.8,2.6-3.2,4.4-5.9,4.4H42.9c-4.4,0-7.9-3.5-7.9-7.9V555H0v64.4l13.6,29.1L0,683.8v58
		c0,23.7,19.2,42.9,42.9,42.9h18.6h284.7h262.8h57.7v-35V555H609.1z"/>
	<path class="st24" d="M56.7,619.4H0l0,0h0v64.4h0l0,0h56.7c11.4,0,20.6-9.2,20.6-20.6V640C77.3,628.6,68.1,619.4,56.7,619.4z"/>
	<path class="st28" d="M304.3,132.1h-37.1v82.6c0,3.4,2.8,6.2,6.2,6.2h30.9l0,0h68.4c3.4,0,6.2-2.8,6.2-6.2v-82.6H304.3z"/>
	<path class="st28" d="M378.9,426.4c0-3.4-2.8-6.2-6.2-6.2h-70.3l0,0h-29c-3.4,0-6.2,2.8-6.2,6.2v24.9v37.1h6.5h30.6h66.5h8.1v-37.1
		l0,0V426.4z"/>
	<path class="st18" d="M981.1,784.7h-20.8l-105.5-38.1l-179.2,38.1h-29.4V311.6c0-11.4,9.2-20.6,20.6-20.6h76l119.6,11.2
		c16.4,0,31.4,9.4,38.6,24.1L1001.5,533c4.2,8.6,16.8,12.8,19,22c2.3,9.7,3.5,19.7,3.5,29.7v34.7l-9.1,38.5l9.1,25.9v58
		C1024,765.5,1004.8,784.7,981.1,784.7L981.1,784.7z"/>
	<path class="st29" d="M1020.5,555H785.7c-23.7,0-42.9-19.2-42.9-42.9V291l21.5,12.2L784,291h84.4c16.4,0,31.4,9.4,38.6,24.1
		l97,198.7l-23.4,20.3C984.7,542.7,1018.3,545.8,1020.5,555L1020.5,555z"/>
	<path class="st22" d="M1020.5,555H785.7c-23.7,0-42.9-19.2-42.9-42.9V291H784v202.2c0,11.3,9.3,20.6,20.6,20.6h199.3l7,14.5
		C1015.1,536.8,1018.3,545.8,1020.5,555L1020.5,555z"/>
	<path class="st20" d="M960.3,784.7H675.6c0-78.5,63.9-142.4,142.4-142.4C896.4,642.4,960.3,706.2,960.3,784.7z"/>
	<path class="st31" d="M990.5,619.4L990.5,619.4l-23.2,0c-11.4,0-20.6,9.2-20.6,20.6v23.2c0,11.4,9.2,20.6,20.6,20.6h21.9l0.1,0
		h34.7v-64.4H990.5z"/>
	<circle class="st18" cx="817.9" cy="784.7" r="107.2"/>
	<circle class="st21" cx="817.9" cy="784.7" r="42.9"/>
	<circle class="st18" cx="203.9" cy="784.7" r="107.2"/>
	<circle class="st21" cx="203.9" cy="784.7" r="42.9"/>
</g>
</svg>
