<?xml version="1.0" encoding="utf-8"?>
<!-- Generator: Adobe Illustrator 19.0.0, SVG Export Plug-In . SVG Version: 6.00 Build 0)  -->
<svg version="1.1" id="Layer_1" xmlns="http://www.w3.org/2000/svg" xmlns:xlink="http://www.w3.org/1999/xlink" x="0px" y="0px"
	 viewBox="0 0 137 24" style="enable-background:new 0 0 137 24;" xml:space="preserve">
<style type="text/css">
	.st0{fill:#231F20;}
	.st1{fill:#F26324;}
	.st2{fill:#E92328;}
	.st3{fill:#F59F21;}
</style>
<path id="XMLID_31_" class="st0" d="M59.6,15.9v-5.1c0-1.9-1.2-3.1-3.1-3.1c-1.1-0.1-2.2,0.4-2.7,1.4c-0.5-1-1.5-1.5-2.6-1.4
	c-1,0-1.8,0.4-2.3,1.2V8H47v7.9h1.8v-4.4c0-1.4,0.8-2,1.9-2c1.2,0,1.8,0.7,1.8,2v4.4h1.8v-4.4c0-1.4,0.8-2,1.9-2
	c1.1,0,1.8,0.7,1.8,2v4.4C58,15.9,59.6,15.9,59.6,15.9z M85.6,8h-2.9V5.7h-1.8v2.5h-1.6v1.6h1.6v3.7c0,1.9,0.7,3,2.7,3
	c0.8,0,1.5-0.3,2.2-0.7l-0.5-1.5c-0.4,0.3-1,0.4-1.5,0.4c-0.8,0-1.1-0.5-1.1-1.4V9.8h2.9L85.6,8z M100.3,7.9c-0.8,0-1.6,0.4-2,1.2V8
	h-1.8v7.9h1.8v-4.5c0-1.4,0.5-2,1.6-2c0.4,0,0.7,0,1.1,0.1l0.5-1.6C101.1,7.9,100.7,7.9,100.3,7.9z M78,8.7c-1-0.5-2-0.8-3.3-0.8
	c-2,0-3.4,1-3.4,2.5c0,1.4,1,2,2.7,2.3l0.8,0.1c1,0.1,1.4,0.4,1.4,0.8c0,0.7-0.7,1-1.8,1c-1,0-1.9-0.3-2.6-0.8l-0.8,1.4
	c1,0.7,2.2,1.1,3.4,1.1c2.3,0,3.7-1.1,3.7-2.6c0-1.4-1.1-2.2-2.7-2.3l-0.8-0.1c-0.7-0.1-1.4-0.3-1.4-0.8c0-0.5,0.5-1,1.5-1
	c0.8,0,1.8,0.3,2.5,0.7L78,8.7z M124.4,7.9c-0.8,0-1.6,0.4-2,1.2V8h-1.8v7.9h1.8v-4.5c0-1.4,0.5-2,1.6-2c0.4,0,0.7,0,1.1,0.1
	l0.5-1.6C125.2,7.9,124.8,7.9,124.4,7.9z M102.1,12c0,2.5,1.6,4.2,4.2,4.2c1.1,0,2-0.3,2.9-1l-0.8-1.4c-0.5,0.4-1.4,0.7-2,0.7
	c-1.4,0-2.5-1-2.5-2.6s1-2.6,2.5-2.6c0.8,0,1.5,0.3,2,0.7l0.8-1.4c-0.8-0.7-1.8-1-2.9-1C103.7,7.9,102.1,9.7,102.1,12L102.1,12z
	 M118.3,12V8h-1.8v1c-0.5-0.7-1.5-1.2-2.5-1.1c-2.2,0-4,1.8-4,4.2s1.8,4.2,4,4.2c1,0,1.9-0.4,2.5-1.2v1h1.8
	C118.3,16.1,118.3,12,118.3,12z M111.9,12c0-1.4,1-2.6,2.5-2.6c1.4,0,2.5,1.1,2.5,2.6s-1,2.6-2.5,2.6
	C112.7,14.6,111.9,13.5,111.9,12z M91,7.9c-2.3,0-4,1.6-4,4.2c0,2.6,1.6,4.2,4.1,4.2c1.2,0,2.3-0.4,3.3-1.1L93.6,14
	c-0.7,0.5-1.5,0.8-2.3,0.8c-1.1,0-2.2-0.5-2.3-1.9h5.9c0-0.3,0-0.4,0-0.7C94.7,9.5,93.2,7.9,91,7.9L91,7.9z M90.9,9.4
	c1.1,0,1.8,0.7,2,1.9h-4.1C89,10.2,89.7,9.4,90.9,9.4L90.9,9.4z M134.3,12V4.9h-1.8V9c-0.5-0.7-1.5-1.2-2.5-1.1c-2.2,0-4,1.8-4,4.2
	s1.8,4.2,4,4.2c1,0,1.9-0.4,2.5-1.2v1h1.8C134.3,16.1,134.3,12,134.3,12z M136.4,15.3c0.1,0,0.1,0,0.1,0s0.1,0,0.1,0.1l0.1,0.1
	c0,0.1,0,0.3,0,0.4c0,0,0,0.1-0.1,0.1l-0.1,0.1h-0.1c-0.3,0-0.4-0.1-0.5-0.3c0-0.1,0-0.3,0-0.4c0-0.1,0.1-0.3,0.3-0.3
	C136.2,15.3,136.4,15.3,136.4,15.3L136.4,15.3z M136.4,16.2h0.1c0,0,0.1,0,0.1-0.1c0.1-0.1,0.1-0.4,0-0.5c0,0-0.1,0-0.1-0.1h-0.1
	h-0.1c-0.1,0.1-0.3,0.3-0.3,0.5c0,0,0,0.1,0.1,0.1c0,0,0.1,0,0.1,0.1H136.4L136.4,16.2z M136.4,15.5h0.1c0,0,0,0,0,0.1v0.1h-0.1
	l0.1,0.1h-0.1l-0.1-0.1l0,0v0.1h-0.1v-0.4L136.4,15.5z M136.4,15.7L136.4,15.7L136.4,15.7c0.1,0.1,0.1,0.1,0.1,0.1l0,0l0,0
	C136.5,15.7,136.5,15.7,136.4,15.7L136.4,15.7z M127.9,12c0-1.4,1-2.6,2.5-2.6c1.4,0,2.5,1.1,2.5,2.6s-1,2.6-2.5,2.6
	C128.9,14.6,127.9,13.5,127.9,12z M69.4,12V8h-1.8v1c-0.5-0.8-1.5-1.2-2.5-1.1c-2.2,0-4,1.8-4,4.2s1.8,4.2,4,4.2
	c1,0,1.9-0.4,2.5-1.2v1h1.8V12z M63,12c0-1.4,1-2.6,2.5-2.6c1.4,0,2.5,1.1,2.5,2.6s-1,2.6-2.5,2.6C63.8,14.6,63,13.5,63,12L63,12z"
	/>
<rect id="XMLID_5_" x="14.4" y="2.5" class="st1" width="10.5" height="18.9"/>
<path id="_Path_" class="st2" d="M15.1,12c0-3.7,1.6-7.1,4.5-9.4c-5.2-4.1-12.7-3.1-16.8,2s-3.1,12.7,2,16.8
	c4.4,3.4,10.5,3.4,14.8,0C16.8,19.1,15.1,15.7,15.1,12z"/>
<path id="XMLID_4_" class="st3" d="M39.1,12c0,6.6-5.3,12-12,12c-2.7,0-5.3-1-7.4-2.6c5.2-4.1,6.1-11.6,2-16.8c-0.5-0.7-1.2-1.4-2-2
	c5.2-4.1,12.7-3.1,16.8,2C38.1,6.6,39.1,9.2,39.1,12z"/>
<path id="XMLID_26_" class="st3" d="M37.9,19.4v-0.4H38v-0.1h-0.4v0.1h0.1L37.9,19.4L37.9,19.4z M38.7,19.4v-0.4h-0.1l-0.1,0.3
	l-0.1-0.3h-0.1v0.4h0.1v-0.4l0.1,0.3h0.1l0.1-0.3V19.4L38.7,19.4z"/>
</svg>
