<?xml version="1.0" encoding="utf-8"?>
<!-- Generator: Adobe Illustrator 23.0.0, SVG Export Plug-In . SVG Version: 6.00 Build 0)  -->
<svg version="1.1" id="Layer_1" xmlns="http://www.w3.org/2000/svg" xmlns:xlink="http://www.w3.org/1999/xlink" x="0px" y="0px"
	 viewBox="0 0 1024 1024" style="enable-background:new 0 0 1024 1024;" xml:space="preserve">
<style type="text/css">
	.st0{fill:#FFCE54;}
	.st1{fill:#4FC2E9;}
	.st2{fill:#E6E9ED;}
	.st3{fill:#F5F7FA;}
	.st4{fill:#3BAFDA;}
	.st5{fill:#DA4453;}
	.st6{fill:#ED5564;}
	.st7{fill:#0E9347;}
	.st8{fill:#0D8944;}
	.st9{fill:#3BB54A;}
	.st10{fill:#89C763;}
	.st11{fill:#FFCA5D;}
	.st12{fill:#F6B545;}
	.st13{fill:#FFCB5B;}
	.st14{fill:#FFE27A;}
	.st15{fill:#F19920;}
	.st16{fill:#E78825;}
	.st17{fill:#CCF49F;}
	.st18{fill:#5F6C75;}
	.st19{fill:#B3E59F;}
	.st20{fill:#4E5A61;}
	.st21{fill:#F5FCFF;}
	.st22{fill:#E0F5FC;}
	.st23{fill:#DF646E;}
	.st24{fill:#DC4955;}
	.st25{fill:#F2D1A5;}
	.st26{fill:#F2BB88;}
	.st27{fill:#855B51;}
	.st28{fill:#724D44;}
	.st29{fill:#C3DCE2;}
	.st30{fill:#F9AF38;}
	.st31{fill:#F48931;}
	.st32{fill:#F2BB88;stroke:#000000;stroke-width:7;stroke-linecap:round;stroke-linejoin:round;stroke-miterlimit:10;}
	.st33{fill:#FFCE54;stroke:#000000;stroke-width:7;stroke-linecap:round;stroke-linejoin:round;stroke-miterlimit:10;}
	.st34{fill:#4FC2E9;stroke:#000000;stroke-width:7;stroke-linecap:round;stroke-linejoin:round;stroke-miterlimit:10;}
	.st35{fill:#E6E9ED;stroke:#000000;stroke-width:7;stroke-linecap:round;stroke-linejoin:round;stroke-miterlimit:10;}
	.st36{fill:#F5F7FA;stroke:#000000;stroke-width:7;stroke-linecap:round;stroke-linejoin:round;stroke-miterlimit:10;}
	.st37{fill:#DA4453;stroke:#000000;stroke-width:7;stroke-linecap:round;stroke-linejoin:round;stroke-miterlimit:10;}
	.st38{fill:#ED5564;stroke:#000000;stroke-width:7;stroke-linecap:round;stroke-linejoin:round;stroke-miterlimit:10;}
	.st39{fill:#0E9347;stroke:#000000;stroke-width:7;stroke-linecap:round;stroke-linejoin:round;stroke-miterlimit:10;}
	.st40{fill:#3BB54A;stroke:#000000;stroke-width:7;stroke-linecap:round;stroke-linejoin:round;stroke-miterlimit:10;}
	.st41{fill:#89C763;stroke:#000000;stroke-width:7;stroke-linecap:round;stroke-linejoin:round;stroke-miterlimit:10;}
	.st42{fill:#FFCA5D;stroke:#000000;stroke-width:7;stroke-linecap:round;stroke-linejoin:round;stroke-miterlimit:10;}
	.st43{fill:#F6B545;stroke:#000000;stroke-width:7;stroke-linecap:round;stroke-linejoin:round;stroke-miterlimit:10;}
	.st44{fill:#CCF49F;stroke:#000000;stroke-width:7;stroke-linecap:round;stroke-linejoin:round;stroke-miterlimit:10;}
	.st45{fill:#4E5A61;stroke:#000000;stroke-width:7;stroke-linecap:round;stroke-linejoin:round;stroke-miterlimit:10;}
	.st46{fill:#724D44;stroke:#000000;stroke-width:7;stroke-linecap:round;stroke-linejoin:round;stroke-miterlimit:10;}
	.st47{fill:#C3DCE2;stroke:#000000;stroke-width:7;stroke-linecap:round;stroke-linejoin:round;stroke-miterlimit:10;}
	.st48{fill:#E0F5FC;stroke:#000000;stroke-width:7;stroke-linecap:round;stroke-linejoin:round;stroke-miterlimit:10;}
	.st49{fill:#F48931;stroke:#000000;stroke-width:7;stroke-linecap:round;stroke-linejoin:round;stroke-miterlimit:10;}
	.st50{fill:#FFCB5B;stroke:#000000;stroke-width:7;stroke-linecap:round;stroke-linejoin:round;stroke-miterlimit:10;}
	.st51{fill:#F19920;stroke:#000000;stroke-width:7;stroke-linecap:round;stroke-linejoin:round;stroke-miterlimit:10;}
	.st52{fill:#5F6C75;stroke:#000000;stroke-width:7;stroke-linecap:round;stroke-linejoin:round;stroke-miterlimit:10;}
	.st53{fill:#F5FCFF;stroke:#000000;stroke-width:7;stroke-linecap:round;stroke-linejoin:round;stroke-miterlimit:10;}
	.st54{fill:#DC4955;stroke:#000000;stroke-width:7;stroke-linecap:round;stroke-linejoin:round;stroke-miterlimit:10;}
	.st55{fill:#FF5F00;stroke:#000000;stroke-width:7;stroke-linecap:round;stroke-linejoin:round;stroke-miterlimit:10;}
	.st56{fill:#EB001B;stroke:#000000;stroke-width:7;stroke-linecap:round;stroke-linejoin:round;stroke-miterlimit:10;}
	.st57{fill:#F79E1B;stroke:#000000;stroke-width:7;stroke-linecap:round;stroke-linejoin:round;stroke-miterlimit:10;}
	.st58{fill:#430A6C;stroke:#000000;stroke-width:7;stroke-linecap:round;stroke-linejoin:round;stroke-miterlimit:10;}
	.st59{fill:#FC6619;stroke:#000000;stroke-width:7;stroke-linecap:round;stroke-linejoin:round;stroke-miterlimit:10;}
	.st60{fill:#FF5F00;}
	.st61{fill:#EB001B;}
	.st62{fill:#F79E1B;}
	.st63{fill:#430A6C;}
	.st64{fill:#FC6619;}
	.st65{fill:#FFCF64;stroke:#000000;stroke-width:7;stroke-linecap:round;stroke-linejoin:round;stroke-miterlimit:10;}
	.st66{fill:#44AEFF;stroke:#000000;stroke-width:7;stroke-linecap:round;stroke-linejoin:round;stroke-miterlimit:10;}
	.st67{fill:#FF4E45;stroke:#000000;stroke-width:7;stroke-linecap:round;stroke-linejoin:round;stroke-miterlimit:10;}
	.st68{fill:#19F7B2;stroke:#000000;stroke-width:7;stroke-linecap:round;stroke-linejoin:round;stroke-miterlimit:10;}
	.st69{fill:#FC877C;stroke:#000000;stroke-width:7;stroke-linecap:round;stroke-linejoin:round;stroke-miterlimit:10;}
	.st70{fill:#7DF99D;stroke:#000000;stroke-width:7;stroke-linecap:round;stroke-linejoin:round;stroke-miterlimit:10;}
	.st71{fill:#F2F2FF;stroke:#000000;stroke-width:7;stroke-linecap:round;stroke-linejoin:round;stroke-miterlimit:10;}
	.st72{fill:#CCCED8;stroke:#000000;stroke-width:7;stroke-linecap:round;stroke-linejoin:round;stroke-miterlimit:10;}
</style>
<g>
	<rect x="61.8" y="330.3" class="st0" width="898" height="620.1"/>
	<rect x="649.4" y="541.9" class="st1" width="186.9" height="392.9"/>
	<rect x="71" y="73.7" class="st2" width="878.5" height="129.6"/>
	<rect x="168.7" y="544.1" class="st1" width="384.9" height="256.6"/>
	<g>
		<path class="st3" d="M147.4,522.7V822H575V522.7H147.4z M532.2,779.3H190.1V565.4h342.1V779.3z"/>
		<path class="st3" d="M617.7,522.7v427.6h256.6V522.7H617.7z M831.6,907.6H660.5V565.4h171.1V907.6z"/>
	</g>
	<path class="st3" d="M836.3,715.1H639.1c-11.8,0-21.4,9.6-21.4,21.4s9.6,21.4,21.4,21.4h197.2c11.8,0,21.4-9.6,21.4-21.4
		S848.1,715.1,836.3,715.1z"/>
	<path class="st5" d="M901.8,479.9c67.5,0,122.2-54.7,122.2-122.2c0-6.5-0.5-12.9-1.5-19.1l0,0l-0.7-3.8c-0.1-0.6-0.2-1.2-0.3-1.8
		l-70.8-173.8H774.8l29.3,271.8l4.1,5.2C830.6,462.9,864.2,479.9,901.8,479.9z"/>
	<path class="st2" d="M598.8,159.2l9.7,271.8c22.3,29.7,57.8,48.9,97.8,48.9c40,0,75.4-19.2,97.7-48.9l-29.3-271.8H598.8z"/>
	<path class="st5" d="M122.2,479.9C54.7,479.9,0,425.2,0,357.7c0-6.5,0.5-12.9,1.5-19.1h0l0.7-3.8c0.1-0.6,0.2-1.2,0.3-1.8
		l70.8-173.8h175.9l-29.3,271.8l-4.1,5.2C193.4,462.9,159.7,479.9,122.2,479.9z"/>
	<path class="st2" d="M425.2,159.2l-9.8,271.8c-22.3,29.7-57.7,48.9-97.7,48.9c-39.9,0-75.4-19.2-97.8-48.9l29.3-271.8H425.2z"/>
	<path class="st5" d="M422.9,159.2l-9.8,271.8c22.3,29.7,57.8,48.9,97.7,48.9s75.5-19.2,97.7-48.9l-9.7-271.8H422.9z"/>
	<path class="st6" d="M2.4,333.7c-0.1,0.4-0.1,0.8-0.2,1.1l-0.7,3.8h0c-1,6.2-1.5,12.6-1.5,19.1c0,67.5,54.7,122.2,122.2,122.2
		c37.6,0,71.2-17,93.6-43.7l4.1-5.2l10.5-97.4L2.4,333.7L2.4,333.7z"/>
	<path class="st3" d="M230.4,333.7l-10.5,97.4c22.3,29.7,57.8,48.9,97.8,48.9c40,0,75.5-19.2,97.7-48.9l3.5-97.4H230.4z"/>
	<path class="st6" d="M416.6,333.7l-3.5,97.4c22.3,29.7,57.8,48.9,97.7,48.9s75.5-19.2,97.7-48.9l-3.5-97.4H416.6z"/>
	<path class="st3" d="M605.1,333.7l3.5,97.4c22.3,29.7,57.8,48.9,97.8,48.9c40,0,75.4-19.2,97.7-48.9l-10.5-97.4H605.1z"/>
	<path class="st6" d="M1022.5,338.7l-0.7-3.8c-0.1-0.4-0.2-0.8-0.2-1.1h-228l10.5,97.4l4.1,5.2c22.4,26.7,56,43.7,93.6,43.7
		c67.5,0,122.2-54.7,122.2-122.2C1024,351.2,1023.5,344.9,1022.5,338.7L1022.5,338.7z"/>
</g>
</svg>
