<?xml version="1.0" encoding="utf-8"?>
<!-- Generator: Adobe Illustrator 19.0.0, SVG Export Plug-In . SVG Version: 6.00 Build 0)  -->
<svg version="1.1" id="Layer_1" xmlns="http://www.w3.org/2000/svg" x="0px" y="0px"
     viewBox="0 0 37 24" style="enable-background:new 0 0 37 24;" xml:space="preserve">
<style type="text/css">
	.st0{fill:#F26926;}
	.st1{fill:#F26927;}
	.st2{fill:#542B78;}
</style>
<path id="XMLID_118_" class="st0" d="M30.5,20.4c1.6,0,3.3,0,4.9,0c0.3,0,0.3,0.1,0.3,0.3c0,0.6-0.1,1.1-0.1,1.7
	c-0.1,0.9-0.8,1.5-1.7,1.5c-3.2,0-6.4,0-9.6,0c-0.4,0-0.5,0-0.4-0.4c0.1-0.6,0.1-1.2,0.2-1.8c0.1-0.8,0.7-1.3,1.6-1.3
	c1.5,0,3,0,4.5,0C30.3,20.4,30.4,20.4,30.5,20.4C30.5,20.4,30.5,20.4,30.5,20.4z"/>
<path id="XMLID_116_" class="st1" d="M13.8,0.2c0.3,0,0.7,0,1,0c0.5,0,0.9,0.3,1.1,0.8c0.1,0.2,0.1,0.4,0.1,0.6c0,0.4,0,0.8-0.1,1.1
	c0,0.5-0.4,0.9-0.9,1c-0.6,0.1-1.1,0.1-1.7,0c-0.6-0.1-1.1-0.7-1.1-1.5c0-0.6,0.1-1.3,0.2-1.9c0-0.1,0.1-0.1,0.2-0.1
	C13,0.2,13.4,0.2,13.8,0.2z"/>
<path id="XMLID_1_" class="st2" d="M12.1,5.1c0.7,0,1.5-0.1,2.2,0c0.9,0.1,1.3,0.7,1.3,1.6c-0.1,1.1-0.2,2.1-0.2,3.2
	c-0.1,1.1-0.1,2.3-0.1,3.4c0,0.4,0.1,0.7,0.2,1.1c0.5,1.4,2.1,2.2,3.5,1.7c0.3-0.1,0.5-0.4,0.5-0.7c0-1.4,0-2.7,0.1-4.1
	c0.1-2,0.3-4,0.4-5.9c0-0.1,0-0.2,0.1-0.4c0.7,0,1.5,0,2.2,0.1c0.7,0.1,1.1,0.7,1.2,1.3c0,0.5,0,1.1-0.1,1.6
	c-0.1,1.5-0.2,2.9-0.3,4.4c0,0.8,0.1,1.7,0.4,2.4c0.3,0.9,1.2,1.5,2.2,1.4c0.2,0,0.3-0.1,0.3-0.3c0.2-3.4,0.4-6.8,0.7-10.2
	c0-0.2,0-0.4,0.1-0.7c0.2,0,0.3-0.1,0.5-0.1c1.9,0,3.9,0.1,5.8,0.1c2.2,0.1,3.4,1.9,3.5,3.6c0,0.8-0.1,1.6-0.2,2.5
	c-0.1,1.3-0.1,2.6-0.2,3.9c-0.1,2.4-1.8,4.1-4.2,4.3c-1.3,0.1-2.6,0-3.9-0.5c-0.3-0.1-0.6-0.1-0.9,0.1c-1.6,0.8-3.3,0.9-5,0.2
	c-0.5-0.2-0.9-0.5-1.3-0.8c-0.1-0.1-0.2-0.1-0.4,0c-0.3,0.2-0.6,0.3-0.8,0.4c-1.1,0.7-2.4,0.9-3.7,0.8c-0.3,0-0.6,0-0.9-0.1
	c-0.2,0-0.3,0.1-0.3,0.2c0,0.8-0.1,1.6-0.2,2.3c-0.1,1.2-0.7,1.8-1.9,1.8c-0.6,0-1.1,0-1.8,0C11.3,17.6,11.7,11.3,12.1,5.1z M30,8.7
	c0,0.1,0,0.2,0,0.3c-0.1,1.5-0.2,3.1-0.3,4.6c0,0.5-0.1,1-0.1,1.5c0,0.5,0.2,0.7,0.7,0.8c0.4,0,0.8,0,1.3,0c0.7,0,1-0.3,1-1
	c0-0.8,0.1-1.6,0.1-2.4c0.1-1,0.1-2,0.2-3.1c0-0.5-0.2-0.8-0.7-0.8c-0.2,0-0.4,0-0.6,0C31,8.7,30.5,8.7,30,8.7z M10.8,5
	c-0.1,1.5-0.2,3-0.3,4.5c-0.1,1.9-0.3,3.7-0.4,5.6c-0.2,2.3-2,4-4.3,4.1c-0.9,0-1.8,0.1-2.6-0.1c-1.8-0.3-3.1-1.9-3-3.7
	c0.1-2.3,0.2-4.5,0.5-6.7c0.1-1.5,1.1-2.4,2.3-3.1C3.5,5.2,4.3,5,5,5c1.8,0,3.6,0,5.4,0C10.5,5,10.6,5,10.8,5z M7,8.7
	c-0.8,0-1.6,0-2.3,0C4.3,8.7,4.1,8.9,4,9.3c0,0.1,0,0.3,0,0.4c-0.1,1.3-0.2,2.6-0.3,3.9c0,0.4-0.1,0.9-0.1,1.3
	c0,0.4,0.1,0.7,0.4,0.8c0.7,0.2,1.4,0.2,2.1,0c0.3-0.1,0.5-0.4,0.5-0.7C6.7,13,6.8,11,7,9C7,8.9,7,8.8,7,8.7z M21.7,3.8
	c0.5,0,0.6-0.1,0.6-0.5c0-0.6,0.1-1.3,0.1-1.9c0.1-0.9-0.3-1.3-1.2-1.3c-0.1,0-0.1,0-0.2,0c-0.9,0-1.7,0-2.6,0c-0.2,0-0.4,0-0.5,0
	c-0.5,0.1-0.6,0.3-0.7,0.8c0,0.2,0,0.5,0,0.7c0,0.6-0.1,1.2-0.2,1.8c0,0.2,0,0.4,0.2,0.5c0.5,0.2,0.9-0.1,0.9-0.6
	c0-0.6,0.1-1.3,0.1-1.9c0-0.1,0.1-0.2,0.1-0.2c0.4-0.2,0.8,0,0.8,0.5c0,0.1,0,0.2,0,0.3c0,0.6-0.1,1.2-0.1,1.8c0.1,0,0.2,0,0.3,0.1
	c0.7,0.1,0.8,0,0.8-0.7c0-0.6,0.1-1.2,0.1-1.8c0-0.1,0.1-0.2,0.1-0.2c0.5-0.2,0.8,0.1,0.8,0.6c0,0.1,0,0.3,0,0.4
	c0,0.6-0.1,1.1-0.1,1.7C21.4,3.7,21.6,3.8,21.7,3.8z M18,20.2c-0.3,0-0.7,0-1,0c-0.9,0-1.4,0.4-1.7,1.3c0,0.2-0.1,0.4-0.1,0.5
	c-0.1,1.4,0.6,2.1,2,1.9c0.8-0.1,1.5-0.5,1.6-1.2c0.1-0.8,0.1-1.7,0.2-2.5C18.6,20.2,18.3,20.2,18,20.2z M21,20.2
	c-0.8,0-1.3,0.5-1.5,1.2c-0.1,0.2-0.1,0.4-0.1,0.6c-0.1,1.4,0.5,2.1,1.9,2c0.2,0,0.3,0,0.5-0.1c0.6-0.2,1.1-0.6,1.1-1.3
	c0.1-0.8,0.1-1.6,0.2-2.4C22.4,20.2,21.7,20.2,21,20.2z M7.8,0.2c-0.5,0.1-0.9,0.4-1,0.9C6.7,1.7,6.6,2.3,6.7,2.8
	c0,0.5,0.4,0.9,0.9,1c0.4,0.1,0.8,0.1,1.1,0c0.8-0.1,1.3-0.5,1.4-1.2c0.1-0.8,0.1-1.6,0.2-2.5C9.4,0.1,8.6,0.1,7.8,0.2z M3.6,0.2
	c-0.5,0-0.9,0.3-1,0.8C2.6,1.6,2.5,2.1,2.5,2.7c0,0.6,0.4,1,1,1.1c0.3,0.1,0.7,0.1,1.1,0C5.2,3.7,5.8,3.5,6,2.8
	C6.1,1.9,6.1,1,6.2,0.1C5.3,0.1,4.5,0.1,3.6,0.2z M29.8,2.2c-0.8,0-1.6,0-2.4,0c0.2,0.3,0.4,0.5,0.8,0.6c0.3,0,0.6,0,0.9,0
	c0.2,0,0.4,0.1,0.4,0.4c0,0.3-0.1,0.4-0.3,0.5c-0.7,0.2-1.4,0.2-2.1,0c-0.4-0.1-0.6-0.4-0.6-0.8c0-0.6,0-1.3,0.1-1.9
	c0.1-0.5,0.5-0.9,1-0.9c0.4,0,0.9,0,1.3,0c0.5,0.1,0.7,0.4,0.8,0.8C29.9,1.4,29.8,1.8,29.8,2.2z M28.2,1.6c0.1,0,0.3,0,0.4,0
	c0.1,0,0.2-0.1,0.2-0.1c0-0.1,0-0.2-0.1-0.2c-0.3-0.3-0.8-0.3-1,0c0,0-0.1,0.1-0.1,0.2c0,0,0.1,0.1,0.2,0.1
	C27.9,1.6,28.1,1.6,28.2,1.6z M26.1,2.2c-0.8,0-1.6,0-2.4,0c0.2,0.4,0.5,0.5,0.8,0.6c0.3,0,0.6,0,0.9,0c0.2,0,0.3,0.1,0.3,0.3
	c0,0.2,0,0.4-0.2,0.5c-0.1,0.1-0.2,0.1-0.3,0.1c-0.5,0-1.1,0.1-1.6,0c-0.5,0-0.9-0.3-0.9-0.9c0-0.7,0.1-1.3,0.2-2
	c0.1-0.5,0.5-0.8,1-0.8c0.5,0,0.9,0,1.4,0c0.4,0.1,0.7,0.3,0.8,0.8C26.1,1.3,26.1,1.8,26.1,2.2z M24.4,1.6c0.1,0,0.3,0,0.4,0
	c0.1,0,0.2-0.1,0.2-0.1c0,0,0-0.2-0.1-0.2c-0.3-0.3-0.8-0.2-1,0c0,0-0.1,0.1-0.1,0.2c0,0.1,0.1,0.1,0.2,0.1
	C24.2,1.6,24.3,1.6,24.4,1.6z M36.7,3.7c-0.8,0-1.5,0.1-2.3,0.1c-0.6,0-0.9-0.4-0.9-1c0-0.2,0-0.4,0.1-0.6c0.1-0.4,0.4-0.6,0.9-0.6
	c0.3,0,0.7-0.1,1-0.1c0.1,0,0.3,0,0.3-0.3c0-0.2-0.1-0.3-0.3-0.3c-0.4,0-0.8,0-1.1-0.1c-0.1,0-0.3,0-0.3-0.2c0-0.2-0.1-0.4,0.1-0.5
	c0.1,0,0.1-0.1,0.2-0.1c0.6-0.1,1.2-0.2,1.9,0c0.4,0.1,0.7,0.5,0.7,1c0,0.6-0.1,1.3-0.1,1.9C36.8,3.2,36.8,3.4,36.7,3.7z M35.3,2.4
	c-0.1,0-0.2,0-0.3,0c-0.1,0-0.2,0.1-0.2,0.1c0,0.1,0,0.2,0.1,0.3c0.1,0.2,0.7,0.2,0.8,0c0.1-0.1,0.1-0.2,0-0.3
	c0-0.1-0.1-0.1-0.2-0.2C35.5,2.3,35.4,2.4,35.3,2.4z M31.7,1.3c-0.5,0.5-0.9,0.9-1.4,1.4c-0.1,0.1-0.1,0.1-0.1,0.2
	c0,0.3,0,0.6,0,0.9c1,0,2,0,3,0c0-0.3,0-0.6,0-0.9c-0.5,0-1.1,0-1.6,0c0,0-0.1-0.1-0.1-0.1c0.5-0.4,0.9-0.9,1.5-1.3
	C33.4,1,33.3,0.5,33.3,0c-1,0-2,0-3,0c0,0.3,0,0.6,0,0.9c0.5,0,1.1,0,1.6,0C31.8,1.1,31.8,1.2,31.7,1.3z"/>
</svg>
