<svg id="svg" version="1.1" xmlns="http://www.w3.org/2000/svg" xmlns:xlink="http://www.w3.org/1999/xlink" width="400" height="221.63934426229508" viewBox="0, 0, 400,221.63934426229508"><g id="svgg"><path id="path0" d="M72.985 79.381 C 72.213 79.489,71.464 79.672,71.322 79.786 C 71.180 79.900,70.715 80.062,70.288 80.147 C 68.307 80.541,64.660 82.432,63.082 83.884 C 61.536 85.306,60.859 85.094,60.432 83.053 C 59.801 80.035,58.479 79.379,53.031 79.379 C 48.279 79.380,46.881 79.821,45.803 81.661 L 45.223 82.650 45.181 104.383 L 45.140 126.117 45.804 127.194 C 46.935 129.025,47.412 129.157,52.882 129.157 C 61.005 129.157,60.386 130.385,60.543 113.969 C 60.648 102.982,60.715 101.066,61.028 100.111 C 61.228 99.501,61.496 98.598,61.623 98.103 C 61.917 96.962,63.705 95.095,65.649 93.901 L 67.073 93.026 69.628 93.021 C 73.242 93.013,75.114 94.160,76.676 97.338 L 77.494 99.002 77.561 112.744 L 77.627 126.486 78.469 127.600 C 79.742 129.286,80.519 129.492,85.573 129.491 C 90.256 129.490,90.939 129.305,92.350 127.657 L 93.126 126.749 93.130 113.652 C 93.132 102.636,93.184 100.466,93.453 100.000 C 93.880 99.262,94.139 98.709,94.469 97.824 C 94.797 96.948,97.076 94.570,97.812 94.337 C 98.097 94.246,98.716 93.917,99.187 93.606 C 100.490 92.743,103.972 92.761,105.296 93.637 C 105.792 93.966,106.303 94.235,106.430 94.235 C 107.014 94.235,108.622 96.097,109.291 97.546 C 110.362 99.870,110.473 101.627,110.312 113.636 C 110.175 123.808,110.338 128.728,110.843 129.671 C 110.966 129.901,111.218 130.814,111.403 131.701 C 111.588 132.587,111.941 133.655,112.189 134.074 C 112.436 134.494,112.639 134.963,112.639 135.117 C 112.639 135.430,114.299 138.815,115.200 140.339 C 116.943 143.287,120.687 147.451,123.392 149.450 C 126.124 151.468,128.969 153.193,130.155 153.550 C 130.460 153.642,130.959 153.889,131.264 154.101 C 131.569 154.312,132.367 154.616,133.038 154.775 C 133.708 154.935,134.570 155.249,134.952 155.473 C 135.334 155.697,136.668 156.032,137.916 156.219 C 139.164 156.406,140.797 156.703,141.545 156.879 C 143.334 157.301,147.178 157.290,149.002 156.859 C 149.795 156.671,151.242 156.418,152.217 156.297 C 154.155 156.055,155.654 155.675,155.654 155.424 C 155.654 155.336,156.328 155.095,157.151 154.889 C 157.974 154.682,158.797 154.378,158.980 154.214 C 159.163 154.049,159.877 153.703,160.567 153.445 C 161.257 153.188,161.943 152.831,162.091 152.652 C 162.239 152.474,162.467 152.328,162.597 152.328 C 162.915 152.328,165.823 150.581,166.519 149.973 C 166.824 149.706,167.785 148.885,168.656 148.148 C 170.004 147.006,171.834 145.042,173.646 142.794 C 173.891 142.489,174.402 141.741,174.780 141.131 C 175.158 140.521,175.739 139.607,176.071 139.101 C 176.404 138.594,176.747 137.945,176.835 137.659 C 176.923 137.374,177.282 136.591,177.632 135.920 C 177.983 135.249,178.270 134.528,178.270 134.318 C 178.270 134.107,178.510 133.408,178.803 132.765 C 180.380 129.301,180.745 123.705,180.665 104.213 L 180.599 88.137 180.100 87.096 C 179.825 86.524,179.601 85.977,179.601 85.881 C 179.601 84.657,175.323 80.266,174.129 80.266 C 174.077 80.266,173.565 80.043,172.992 79.770 C 171.440 79.029,167.435 79.028,166.745 79.767 C 166.489 80.042,166.192 80.266,166.086 80.266 C 165.979 80.266,165.609 80.740,165.263 81.319 L 164.634 82.373 164.522 95.344 C 164.401 109.329,164.437 108.921,163.179 110.754 C 159.007 116.833,151.010 116.671,147.947 110.445 L 147.118 108.758 147.007 96.231 L 146.896 83.703 146.294 82.679 C 144.479 79.591,138.520 80.256,134.667 83.976 C 134.259 84.370,133.925 84.779,133.925 84.884 C 133.925 84.989,133.734 85.248,133.502 85.458 C 133.269 85.669,132.857 86.358,132.587 86.989 C 132.316 87.621,131.983 88.209,131.846 88.296 C 131.382 88.590,131.505 112.781,131.975 113.761 C 132.184 114.196,132.420 114.994,132.502 115.535 C 132.670 116.658,133.902 119.773,134.644 120.953 C 136.383 123.721,139.662 126.916,141.242 127.383 C 141.547 127.473,141.946 127.672,142.129 127.825 C 144.175 129.538,153.663 129.448,156.981 127.684 C 157.406 127.458,157.905 127.270,158.090 127.267 C 158.275 127.263,158.818 126.964,159.297 126.601 C 159.776 126.239,160.284 125.942,160.425 125.942 C 160.567 125.942,160.996 125.618,161.380 125.222 C 163.152 123.389,163.130 123.403,163.737 123.680 C 164.573 124.061,164.493 125.413,163.504 127.639 C 163.333 128.023,163.192 128.422,163.192 128.526 C 163.191 128.716,162.505 130.092,161.731 131.453 C 160.935 132.854,158.218 135.645,156.526 136.800 C 155.098 137.775,152.316 139.246,151.902 139.246 C 151.757 139.246,151.170 139.467,150.598 139.738 C 149.640 140.189,149.226 140.229,145.455 140.232 C 140.963 140.235,140.426 140.114,137.029 138.334 C 136.358 137.983,135.729 137.695,135.630 137.694 C 134.520 137.692,129.148 132.015,128.490 130.148 C 128.313 129.648,127.985 128.971,127.759 128.644 C 127.534 128.317,127.241 127.317,127.107 126.423 C 126.973 125.522,126.701 124.616,126.496 124.389 C 125.917 123.750,125.739 118.736,125.728 102.772 C 125.720 91.130,125.663 88.475,125.411 87.993 C 125.242 87.669,124.980 87.020,124.828 86.551 C 124.034 84.096,119.711 80.268,117.731 80.266 C 117.544 80.266,116.795 80.051,116.068 79.788 C 114.048 79.057,106.750 79.048,104.711 79.773 C 103.948 80.044,103.126 80.266,102.884 80.266 C 102.420 80.266,98.637 81.764,98.448 82.023 C 98.387 82.106,97.980 82.391,97.544 82.656 C 97.108 82.920,96.496 83.364,96.184 83.642 C 95.871 83.919,95.277 84.446,94.863 84.812 C 93.512 86.004,92.459 86.447,92.158 85.948 C 90.915 83.888,88.918 81.596,88.367 81.596 C 88.278 81.596,87.939 81.406,87.613 81.174 C 87.287 80.942,86.473 80.585,85.805 80.382 C 85.137 80.179,84.241 79.858,83.814 79.670 C 82.889 79.261,75.278 79.058,72.985 79.381 M346.565 81.811 C 346.056 82.135,346.600 82.538,347.307 82.361 C 347.855 82.223,348.141 81.818,347.690 81.818 C 347.578 81.818,347.353 81.769,347.191 81.710 C 347.029 81.650,346.747 81.696,346.565 81.811 M351.858 81.835 C 351.539 82.032,351.816 82.187,352.829 82.377 C 353.488 82.501,353.659 82.464,353.659 82.200 C 353.659 81.842,352.294 81.565,351.858 81.835 M345.222 83.191 C 345.077 83.472,344.754 83.866,344.503 84.065 C 343.682 84.719,343.749 89.752,344.572 89.243 C 344.697 89.166,344.785 88.586,344.768 87.955 C 344.723 86.321,344.992 85.183,345.509 84.820 C 345.809 84.610,345.964 84.237,345.982 83.685 C 346.013 82.723,345.600 82.454,345.222 83.191 M354.102 84.047 C 354.102 85.147,353.113 85.722,351.644 85.474 C 350.305 85.247,349.888 85.476,349.897 86.434 C 349.908 87.755,350.535 88.327,351.520 87.915 C 352.112 87.668,352.456 87.643,352.910 87.815 C 353.785 88.148,354.028 87.963,354.197 86.834 C 354.301 86.142,354.515 85.705,354.884 85.431 C 355.384 85.060,355.404 84.969,355.178 84.091 C 354.837 82.767,354.102 82.737,354.102 84.047 M346.673 85.590 C 346.492 85.882,346.754 86.696,347.029 86.696 C 347.776 86.696,348.821 86.015,348.559 85.698 C 348.248 85.324,346.885 85.246,346.673 85.590 M355.432 86.669 C 355.432 87.685,355.827 88.445,356.173 88.099 C 356.572 87.700,356.322 85.588,355.876 85.588 C 355.493 85.588,355.432 85.735,355.432 86.669 M354.324 88.801 C 354.016 89.612,354.046 90.144,354.419 90.453 C 354.815 90.781,355.129 90.280,355.244 89.139 C 355.344 88.144,354.668 87.896,354.324 88.801 M345.333 90.514 C 345.649 91.266,346.691 91.757,347.101 91.347 C 347.241 91.207,347.161 91.131,346.874 91.131 C 346.323 91.131,345.898 90.725,345.898 90.200 C 345.898 89.952,345.734 89.800,345.465 89.800 C 345.064 89.800,345.054 89.852,345.333 90.514 M353.126 91.021 C 352.745 91.309,352.740 91.354,353.070 91.481 C 353.553 91.666,354.162 91.423,354.051 91.089 C 353.918 90.691,353.594 90.667,353.126 91.021 M347.894 92.243 C 347.239 92.673,348.158 92.923,350.148 92.857 C 352.099 92.793,352.689 92.603,352.100 92.231 C 351.666 91.956,348.316 91.966,347.894 92.243 " stroke="none" fill="#440da2" fill-rule="evenodd"></path><path id="path1" d="M186.721 70.148 C 186.536 70.371,186.485 77.870,186.527 98.602 L 186.585 126.753 187.227 127.594 C 189.425 130.476,199.121 130.248,200.360 127.285 C 200.807 126.214,200.829 70.308,200.383 70.024 C 199.861 69.693,187.002 69.809,186.721 70.148 M229.047 79.975 C 227.663 80.079,225.120 80.674,224.058 81.142 C 223.570 81.357,222.891 81.600,222.549 81.683 C 222.207 81.765,221.519 82.129,221.019 82.491 C 220.520 82.852,219.992 83.149,219.846 83.149 C 219.700 83.149,219.400 83.348,219.180 83.592 C 218.959 83.836,218.666 84.035,218.530 84.035 C 218.393 84.035,217.536 84.730,216.624 85.579 C 215.713 86.428,214.867 87.127,214.745 87.133 C 214.623 87.138,214.356 87.416,214.153 87.751 C 213.459 88.888,212.398 90.339,211.963 90.744 C 211.725 90.966,211.530 91.280,211.530 91.441 C 211.530 91.602,211.267 92.122,210.945 92.597 C 210.623 93.071,210.174 93.997,209.948 94.654 C 209.722 95.312,209.448 95.960,209.339 96.096 C 209.230 96.231,209.067 96.790,208.977 97.339 C 208.887 97.888,208.576 99.064,208.287 99.951 C 207.741 101.626,207.467 109.770,207.947 110.067 C 208.114 110.170,208.601 111.848,208.983 113.636 C 209.061 114.002,209.416 114.914,209.773 115.664 C 210.129 116.413,210.421 117.175,210.421 117.358 C 210.421 117.541,210.561 117.744,210.731 117.810 C 210.901 117.875,211.208 118.434,211.414 119.053 C 211.619 119.671,211.864 120.177,211.958 120.177 C 212.052 120.177,212.917 121.124,213.880 122.281 C 214.844 123.439,215.690 124.386,215.762 124.388 C 215.834 124.389,216.416 124.901,217.056 125.524 C 217.812 126.261,219.049 127.083,220.582 127.869 C 221.881 128.535,223.045 129.157,223.168 129.252 C 223.292 129.347,223.987 129.540,224.714 129.681 C 225.441 129.822,226.437 130.147,226.928 130.402 C 229.222 131.598,241.755 131.426,243.967 130.168 C 244.359 129.946,245.165 129.703,245.760 129.627 C 246.356 129.552,247.154 129.303,247.534 129.074 C 247.915 128.844,248.625 128.534,249.113 128.384 C 249.601 128.234,250.100 127.996,250.222 127.855 C 250.344 127.714,250.713 127.427,251.042 127.216 C 252.197 126.478,252.208 123.614,251.061 122.326 C 250.824 122.059,250.421 121.474,250.167 121.027 C 249.676 120.165,249.379 119.795,248.080 118.428 C 246.812 117.093,245.422 116.875,244.353 117.843 C 244.139 118.037,243.426 118.283,242.769 118.391 C 242.112 118.498,241.125 118.744,240.576 118.936 C 236.760 120.272,229.755 119.563,227.428 117.605 C 227.080 117.313,226.706 117.073,226.598 117.073 C 226.490 117.073,226.031 116.749,225.578 116.353 C 223.679 114.688,222.886 113.800,222.604 113.021 C 222.440 112.567,222.236 112.195,222.150 112.195 C 221.866 112.195,221.567 110.984,221.673 110.261 C 221.870 108.921,220.988 108.990,239.409 108.869 C 255.861 108.762,256.364 108.746,256.670 108.328 C 257.288 107.482,256.906 101.068,256.153 99.660 C 256.025 99.420,255.797 98.575,255.647 97.783 C 255.497 96.990,255.145 95.892,254.866 95.344 C 254.586 94.795,254.243 93.973,254.103 93.518 C 253.963 93.062,253.754 92.631,253.639 92.560 C 253.524 92.489,253.223 92.025,252.970 91.528 C 252.716 91.031,252.335 90.438,252.121 90.209 C 251.908 89.980,251.593 89.526,251.421 89.201 C 251.020 88.440,250.152 87.445,248.531 85.887 C 248.296 85.661,247.871 85.252,247.586 84.978 C 247.300 84.703,246.978 84.478,246.870 84.477 C 246.762 84.476,246.236 84.126,245.701 83.701 C 245.165 83.275,244.609 82.927,244.464 82.927 C 244.320 82.927,243.974 82.684,243.695 82.388 C 243.399 82.073,242.807 81.786,242.271 81.697 C 241.766 81.613,241.068 81.398,240.720 81.220 C 238.634 80.152,233.696 79.625,229.047 79.975 M266.186 80.896 C 263.645 82.096,263.824 80.159,263.903 105.654 C 263.978 129.933,263.752 127.485,266.040 128.806 L 267.224 129.490 270.998 129.490 L 274.772 129.490 276.090 128.787 C 278.158 127.685,278.054 128.389,278.194 114.580 C 278.346 99.660,278.362 99.565,281.400 96.490 C 284.073 93.785,285.491 93.359,290.798 93.668 C 294.470 93.881,295.640 93.055,296.224 89.839 C 296.358 89.097,296.678 88.017,296.934 87.437 C 297.528 86.095,297.757 82.799,297.298 82.194 C 296.434 81.055,290.478 80.349,288.228 81.120 C 287.568 81.346,286.634 81.603,286.151 81.693 C 285.135 81.881,284.507 82.352,281.895 84.879 C 279.375 87.318,278.491 87.276,278.167 84.701 C 277.896 82.552,277.659 81.965,276.778 81.264 L 275.942 80.599 271.508 80.538 C 267.543 80.483,266.979 80.521,266.186 80.896 M305.815 81.634 C 304.261 81.982,303.872 83.082,303.910 87.029 C 303.945 90.741,304.085 91.277,305.227 92.066 L 306.098 92.668 313.359 92.676 C 321.230 92.684,321.508 92.728,321.508 93.969 C 321.508 94.330,319.880 97.071,319.507 97.339 C 319.422 97.400,319.186 97.774,318.983 98.171 C 318.780 98.567,318.526 98.891,318.419 98.891 C 318.312 98.891,317.949 99.365,317.612 99.945 C 317.276 100.524,316.931 101.048,316.846 101.109 C 316.761 101.170,316.528 101.539,316.328 101.929 C 316.128 102.319,315.840 102.719,315.687 102.816 C 315.535 102.914,315.233 103.343,315.017 103.769 C 314.512 104.767,313.686 105.971,313.100 106.564 C 312.846 106.821,312.639 107.111,312.639 107.209 C 312.639 107.306,312.364 107.741,312.029 108.174 C 311.441 108.934,311.033 109.541,310.089 111.061 C 309.845 111.454,309.371 112.087,309.035 112.468 C 308.700 112.850,308.426 113.278,308.426 113.420 C 308.426 113.562,308.222 113.863,307.972 114.089 C 307.722 114.315,307.362 114.829,307.171 115.232 C 306.979 115.635,306.737 115.965,306.631 115.965 C 306.526 115.965,306.248 116.339,306.015 116.796 C 305.781 117.253,305.380 117.818,305.123 118.050 C 304.866 118.282,304.653 118.582,304.650 118.715 C 304.643 118.994,303.072 121.453,302.581 121.953 C 302.401 122.136,302.045 122.835,301.790 123.505 C 301.535 124.175,301.234 124.886,301.121 125.085 C 300.855 125.553,301.004 126.180,301.784 127.870 C 302.703 129.862,301.432 129.747,321.551 129.669 L 339.000 129.601 339.788 128.837 L 340.576 128.073 340.576 124.170 L 340.576 120.267 339.679 119.391 L 338.782 118.514 330.170 118.449 C 322.166 118.389,321.533 118.356,321.193 117.980 C 320.746 117.486,321.002 115.984,321.663 115.223 C 321.891 114.960,322.431 114.196,322.864 113.525 C 323.297 112.855,323.842 112.018,324.076 111.665 C 324.310 111.313,324.601 110.864,324.723 110.667 C 324.845 110.471,325.269 109.936,325.665 109.478 C 326.062 109.021,326.386 108.535,326.386 108.400 C 326.386 108.265,326.642 107.841,326.954 107.458 C 327.267 107.076,328.013 106.014,328.611 105.100 C 329.719 103.409,331.185 101.269,332.335 99.667 C 332.685 99.180,333.033 98.606,333.108 98.392 C 333.184 98.179,333.378 98.004,333.541 98.004 C 333.703 98.004,333.954 97.680,334.099 97.284 C 334.244 96.887,334.758 96.014,335.242 95.344 C 337.393 92.363,338.084 91.198,338.215 90.334 C 338.291 89.835,338.546 88.987,338.782 88.450 C 339.875 85.962,339.587 82.391,338.244 81.750 C 337.338 81.318,307.700 81.212,305.815 81.634 M235.186 90.372 C 236.017 90.564,236.846 90.852,237.029 91.011 C 237.212 91.170,237.611 91.372,237.916 91.459 C 238.462 91.617,238.985 92.043,240.502 93.570 C 242.478 95.559,243.690 99.769,242.600 100.859 C 241.902 101.557,222.491 101.606,221.863 100.912 C 221.312 100.303,221.327 98.525,221.893 97.319 C 222.146 96.782,222.551 95.892,222.793 95.344 C 223.036 94.795,223.520 94.071,223.868 93.734 C 225.225 92.422,225.987 91.832,226.671 91.561 C 227.063 91.406,227.562 91.127,227.780 90.942 C 228.777 90.091,232.678 89.791,235.186 90.372 " stroke="none" fill="#fa3105" fill-rule="evenodd"></path><path id="path2" d="M186.197 69.863 C 185.831 70.076,185.809 71.669,185.809 98.357 L 185.809 126.625 186.282 127.559 C 186.541 128.072,186.886 128.569,187.047 128.663 C 187.208 128.758,187.490 128.985,187.674 129.169 C 188.443 129.938,189.762 130.155,193.669 130.155 C 198.790 130.155,199.962 129.732,201.160 127.453 L 201.663 126.497 201.727 98.448 L 201.792 70.399 201.315 70.011 C 200.755 69.556,186.956 69.420,186.197 69.863 M200.383 70.024 C 200.829 70.308,200.807 126.214,200.360 127.285 C 199.121 130.248,189.425 130.476,187.227 127.594 L 186.585 126.753 186.527 98.602 C 186.485 77.870,186.536 70.371,186.721 70.148 C 187.002 69.809,199.861 69.693,200.383 70.024 M228.492 79.161 C 227.882 79.255,226.935 79.483,226.386 79.668 C 225.837 79.853,225.039 80.073,224.612 80.157 C 224.185 80.241,223.636 80.433,223.392 80.584 C 223.149 80.735,222.607 80.975,222.188 81.119 C 220.296 81.768,214.254 86.129,213.787 87.182 C 213.684 87.416,211.902 89.669,211.710 89.808 C 211.621 89.873,211.401 90.273,211.221 90.695 C 211.042 91.118,210.639 91.807,210.326 92.227 C 210.012 92.647,209.756 93.075,209.756 93.179 C 209.756 93.282,209.457 94.007,209.091 94.789 C 208.725 95.572,208.426 96.303,208.426 96.415 C 208.426 96.526,208.157 97.403,207.828 98.364 C 206.851 101.219,206.896 109.271,207.907 112.657 C 208.680 115.243,211.046 120.369,211.672 120.811 C 211.782 120.889,212.396 121.618,213.035 122.430 C 214.253 123.978,217.130 126.705,218.144 127.273 C 218.471 127.456,219.037 127.817,219.402 128.076 C 220.475 128.837,222.744 129.913,224.001 130.258 C 224.642 130.434,225.565 130.723,226.053 130.899 C 226.541 131.075,227.688 131.332,228.603 131.468 C 234.028 132.279,234.739 132.344,236.253 132.161 C 241.482 131.530,243.672 131.171,244.457 130.817 C 244.945 130.597,245.743 130.346,246.231 130.258 C 248.787 129.800,252.283 127.535,252.786 126.011 C 253.172 124.839,252.340 122.440,251.073 121.073 C 250.788 120.766,250.553 120.414,250.552 120.291 C 250.548 120.004,249.335 118.517,248.355 117.600 C 247.235 116.552,244.666 116.401,243.546 117.317 C 242.330 118.313,234.644 119.116,232.113 118.512 C 229.746 117.947,228.381 117.503,228.381 117.299 C 228.381 117.191,228.157 117.033,227.882 116.948 C 225.817 116.304,222.047 111.808,222.526 110.559 C 222.821 109.791,223.547 109.756,239.312 109.751 C 255.505 109.745,256.249 109.705,257.172 108.783 C 258.571 107.383,257.465 99.268,255.203 94.346 C 253.784 91.259,253.213 90.186,252.618 89.492 C 252.398 89.235,252.024 88.726,251.789 88.360 C 251.067 87.243,247.859 84.194,246.452 83.289 C 245.721 82.819,244.860 82.251,244.539 82.028 C 243.207 81.102,237.992 79.414,235.607 79.138 C 233.701 78.916,230.008 78.929,228.492 79.161 M235.477 80.047 C 238.006 80.262,239.503 80.597,240.720 81.220 C 241.068 81.398,241.766 81.613,242.271 81.697 C 242.807 81.786,243.399 82.073,243.695 82.388 C 243.974 82.684,244.320 82.927,244.464 82.927 C 244.609 82.927,245.165 83.275,245.701 83.701 C 246.236 84.126,246.762 84.476,246.870 84.477 C 246.978 84.478,247.300 84.703,247.586 84.978 C 247.871 85.252,248.296 85.661,248.531 85.887 C 250.152 87.445,251.020 88.440,251.421 89.201 C 251.593 89.526,251.908 89.980,252.121 90.209 C 252.335 90.438,252.716 91.031,252.970 91.528 C 253.223 92.025,253.524 92.489,253.639 92.560 C 253.754 92.631,253.963 93.062,254.103 93.518 C 254.243 93.973,254.586 94.795,254.866 95.344 C 255.145 95.892,255.497 96.990,255.647 97.783 C 255.797 98.575,256.025 99.420,256.153 99.660 C 256.906 101.068,257.288 107.482,256.670 108.328 C 256.364 108.746,255.861 108.762,239.409 108.869 C 220.988 108.990,221.870 108.921,221.673 110.261 C 221.567 110.984,221.866 112.195,222.150 112.195 C 222.236 112.195,222.440 112.567,222.604 113.021 C 222.886 113.800,223.679 114.688,225.578 116.353 C 226.031 116.749,226.490 117.073,226.598 117.073 C 226.706 117.073,227.080 117.313,227.428 117.605 C 229.755 119.563,236.760 120.272,240.576 118.936 C 241.125 118.744,242.112 118.498,242.769 118.391 C 243.426 118.283,244.139 118.037,244.353 117.843 C 245.422 116.875,246.812 117.093,248.080 118.428 C 249.379 119.795,249.676 120.165,250.167 121.027 C 250.421 121.474,250.824 122.059,251.061 122.326 C 252.208 123.614,252.197 126.478,251.042 127.216 C 250.713 127.427,250.344 127.714,250.222 127.855 C 250.100 127.996,249.601 128.234,249.113 128.384 C 248.625 128.534,247.915 128.844,247.534 129.074 C 247.154 129.303,246.356 129.552,245.760 129.627 C 245.165 129.703,244.359 129.946,243.967 130.168 C 241.755 131.426,229.222 131.598,226.928 130.402 C 226.437 130.147,225.441 129.822,224.714 129.681 C 223.987 129.540,223.292 129.347,223.168 129.252 C 223.045 129.157,221.881 128.535,220.582 127.869 C 219.049 127.083,217.812 126.261,217.056 125.524 C 216.416 124.901,215.834 124.389,215.762 124.388 C 215.690 124.386,214.844 123.439,213.880 122.281 C 212.917 121.124,212.052 120.177,211.958 120.177 C 211.864 120.177,211.619 119.671,211.414 119.053 C 211.208 118.434,210.901 117.875,210.731 117.810 C 210.561 117.744,210.421 117.541,210.421 117.358 C 210.421 117.175,210.129 116.413,209.773 115.664 C 209.416 114.914,209.061 114.002,208.983 113.636 C 208.601 111.848,208.114 110.170,207.947 110.067 C 207.467 109.770,207.741 101.626,208.287 99.951 C 208.576 99.064,208.887 97.888,208.977 97.339 C 209.067 96.790,209.230 96.231,209.339 96.096 C 209.448 95.960,209.722 95.312,209.948 94.654 C 210.174 93.997,210.623 93.071,210.945 92.597 C 211.267 92.122,211.530 91.602,211.530 91.441 C 211.530 91.280,211.725 90.966,211.963 90.744 C 212.398 90.339,213.459 88.888,214.153 87.751 C 214.356 87.416,214.623 87.138,214.745 87.133 C 214.867 87.127,215.713 86.428,216.624 85.579 C 217.536 84.730,218.393 84.035,218.530 84.035 C 218.666 84.035,218.959 83.836,219.180 83.592 C 219.400 83.348,219.700 83.149,219.846 83.149 C 219.992 83.149,220.520 82.852,221.019 82.491 C 221.519 82.129,222.207 81.765,222.549 81.683 C 222.891 81.600,223.570 81.357,224.058 81.142 C 226.632 80.008,230.576 79.630,235.477 80.047 M266.184 80.117 C 265.003 80.577,264.150 81.196,263.722 81.904 C 263.212 82.746,262.928 125.440,263.421 127.135 C 264.095 129.450,265.849 130.155,270.932 130.155 C 279.164 130.155,278.972 130.525,279.092 114.412 C 279.189 101.276,279.270 100.390,280.550 98.615 C 283.134 95.028,284.580 94.403,290.197 94.441 L 294.253 94.469 295.206 93.521 C 297.289 91.450,299.039 83.111,297.702 81.630 C 296.170 79.934,289.374 79.562,286.069 80.994 C 284.113 81.841,282.826 82.756,281.083 84.538 C 279.871 85.776,279.348 85.673,279.060 84.141 C 278.633 81.866,277.475 80.430,275.765 80.056 C 274.310 79.737,267.039 79.783,266.184 80.117 M276.778 81.264 C 277.659 81.965,277.896 82.552,278.167 84.701 C 278.491 87.276,279.375 87.318,281.895 84.879 C 284.507 82.352,285.135 81.881,286.151 81.693 C 286.634 81.603,287.568 81.346,288.228 81.120 C 290.478 80.349,296.434 81.055,297.298 82.194 C 297.757 82.799,297.528 86.095,296.934 87.437 C 296.678 88.017,296.358 89.097,296.224 89.839 C 295.640 93.055,294.470 93.881,290.798 93.668 C 285.491 93.359,284.073 93.785,281.400 96.490 C 278.362 99.565,278.346 99.660,278.194 114.580 C 278.054 128.389,278.158 127.685,276.090 128.787 L 274.772 129.490 270.998 129.490 L 267.224 129.490 266.040 128.806 C 263.752 127.485,263.978 129.933,263.903 105.654 C 263.831 82.562,263.827 82.701,264.707 81.872 C 266.070 80.589,266.670 80.471,271.508 80.538 L 275.942 80.599 276.778 81.264 M306.541 80.712 C 304.945 81.040,304.441 81.350,303.754 82.423 L 303.077 83.481 303.146 87.268 L 303.215 91.055 303.880 91.850 C 304.916 93.087,305.181 93.126,312.568 93.126 C 317.949 93.126,319.459 93.191,320.074 93.448 C 320.759 93.734,321.134 94.235,320.664 94.235 C 320.565 94.235,320.317 94.616,320.111 95.081 C 319.906 95.546,319.210 96.619,318.564 97.465 C 317.918 98.310,316.724 100.000,315.910 101.220 C 315.097 102.439,313.971 104.085,313.408 104.878 C 312.221 106.550,309.487 110.545,307.832 113.025 C 307.200 113.971,306.175 115.443,305.554 116.297 C 303.894 118.578,301.691 121.918,301.092 123.060 C 299.980 125.181,300.527 128.572,302.184 129.823 C 302.954 130.403,338.287 130.530,339.646 129.957 C 341.017 129.379,341.271 128.459,341.283 124.044 C 341.299 117.611,341.775 117.886,330.377 117.738 L 321.840 117.627 321.778 117.073 C 321.740 116.733,322.003 116.091,322.461 115.410 C 324.606 112.218,325.965 110.253,326.369 109.756 C 326.617 109.451,326.822 109.096,326.824 108.966 C 326.827 108.837,327.004 108.538,327.217 108.301 C 327.431 108.064,328.073 107.172,328.645 106.319 C 329.217 105.465,330.040 104.268,330.475 103.659 C 330.909 103.049,331.726 101.851,332.289 100.998 C 332.853 100.144,333.501 99.196,333.730 98.891 C 333.960 98.586,334.542 97.738,335.024 97.007 C 335.506 96.275,336.409 94.942,337.030 94.044 C 340.262 89.375,341.123 82.759,338.705 81.185 L 337.805 80.599 322.616 80.564 C 314.263 80.545,307.029 80.611,306.541 80.712 M338.244 81.750 C 339.587 82.391,339.875 85.962,338.782 88.450 C 338.546 88.987,338.291 89.835,338.215 90.334 C 338.084 91.198,337.393 92.363,335.242 95.344 C 334.758 96.014,334.244 96.887,334.099 97.284 C 333.954 97.680,333.703 98.004,333.541 98.004 C 333.378 98.004,333.184 98.179,333.108 98.392 C 333.033 98.606,332.685 99.180,332.335 99.667 C 331.185 101.269,329.719 103.409,328.611 105.100 C 328.013 106.014,327.267 107.076,326.954 107.458 C 326.642 107.841,326.386 108.265,326.386 108.400 C 326.386 108.535,326.062 109.021,325.665 109.478 C 325.269 109.936,324.845 110.471,324.723 110.667 C 324.601 110.864,324.310 111.313,324.076 111.665 C 323.842 112.018,323.297 112.855,322.864 113.525 C 322.431 114.196,321.891 114.960,321.663 115.223 C 321.002 115.984,320.746 117.486,321.193 117.980 C 321.533 118.356,322.166 118.389,330.170 118.449 L 338.782 118.514 339.679 119.391 L 340.576 120.267 340.576 124.170 L 340.576 128.073 339.788 128.837 L 339.000 129.601 321.551 129.669 C 301.432 129.747,302.703 129.862,301.784 127.870 C 301.004 126.180,300.855 125.553,301.121 125.085 C 301.234 124.886,301.535 124.175,301.790 123.505 C 302.045 122.835,302.401 122.136,302.581 121.953 C 303.072 121.453,304.643 118.994,304.650 118.715 C 304.653 118.582,304.866 118.282,305.123 118.050 C 305.380 117.818,305.781 117.253,306.015 116.796 C 306.248 116.339,306.526 115.965,306.631 115.965 C 306.737 115.965,306.979 115.635,307.171 115.232 C 307.362 114.829,307.722 114.315,307.972 114.089 C 308.222 113.863,308.426 113.562,308.426 113.420 C 308.426 113.278,308.700 112.850,309.035 112.468 C 309.371 112.087,309.845 111.454,310.089 111.061 C 311.033 109.541,311.441 108.934,312.029 108.174 C 312.364 107.741,312.639 107.306,312.639 107.209 C 312.639 107.111,312.846 106.821,313.100 106.564 C 313.686 105.971,314.512 104.767,315.017 103.769 C 315.233 103.343,315.535 102.914,315.687 102.816 C 315.840 102.719,316.128 102.319,316.328 101.929 C 316.528 101.539,316.761 101.170,316.846 101.109 C 316.931 101.048,317.276 100.524,317.612 99.945 C 317.949 99.365,318.312 98.891,318.419 98.891 C 318.526 98.891,318.780 98.567,318.983 98.171 C 319.186 97.774,319.422 97.400,319.507 97.339 C 319.880 97.071,321.508 94.330,321.508 93.969 C 321.508 92.728,321.230 92.684,313.359 92.676 L 306.098 92.668 305.227 92.066 C 304.085 91.277,303.945 90.741,303.910 87.029 C 303.872 83.082,304.261 81.982,305.815 81.634 C 307.700 81.212,337.338 81.318,338.244 81.750 M229.443 90.332 C 228.746 90.481,227.998 90.756,227.780 90.942 C 227.562 91.127,227.063 91.406,226.671 91.561 C 225.987 91.832,225.225 92.422,223.868 93.734 C 223.520 94.071,223.036 94.795,222.793 95.344 C 222.551 95.892,222.146 96.782,221.893 97.319 C 221.327 98.525,221.312 100.303,221.863 100.912 C 222.491 101.606,241.902 101.557,242.600 100.859 C 243.690 99.769,242.478 95.559,240.502 93.570 C 238.985 92.043,238.462 91.617,237.916 91.459 C 237.611 91.372,237.212 91.170,237.029 91.011 C 236.063 90.170,231.920 89.799,229.443 90.332 M234.710 91.031 C 235.436 91.221,236.321 91.520,236.675 91.697 C 237.029 91.873,237.469 92.018,237.652 92.018 C 239.151 92.018,242.615 97.744,242.260 99.636 C 242.065 100.673,242.136 100.666,232.068 100.662 C 220.859 100.658,221.296 100.828,222.841 97.082 C 224.831 92.260,229.765 89.744,234.710 91.031 " stroke="none" fill="#ee8c69" fill-rule="evenodd"></path><path id="path3" d="M185.643 69.621 L 184.922 70.060 184.922 98.237 L 184.922 126.413 185.468 127.568 C 186.755 130.287,187.814 130.691,193.681 130.702 C 198.459 130.711,199.352 130.539,200.655 129.362 C 202.478 127.715,202.328 130.487,202.328 98.484 L 202.328 70.027 201.805 69.603 C 200.983 68.938,186.738 68.953,185.643 69.621 M201.315 70.011 L 201.792 70.399 201.727 98.448 L 201.663 126.497 201.160 127.453 C 199.962 129.732,198.790 130.155,193.669 130.155 C 189.762 130.155,188.443 129.938,187.674 129.169 C 187.490 128.985,187.208 128.758,187.047 128.663 C 186.886 128.569,186.541 128.072,186.282 127.559 L 185.809 126.625 185.809 98.357 C 185.809 71.669,185.831 70.076,186.197 69.863 C 186.956 69.420,200.755 69.556,201.315 70.011 M229.022 78.493 C 227.364 78.584,226.501 78.733,226.098 78.997 C 225.784 79.203,225.047 79.478,224.460 79.608 C 223.477 79.826,221.290 80.738,219.956 81.486 C 219.651 81.657,219.002 82.015,218.514 82.283 C 217.587 82.791,217.438 82.912,215.223 84.970 C 213.013 87.022,212.411 87.659,212.066 88.304 C 211.887 88.639,211.662 88.914,211.565 88.914 C 211.351 88.914,210.643 90.360,210.643 90.798 C 210.643 90.972,210.445 91.221,210.202 91.351 C 209.960 91.481,209.694 91.856,209.611 92.185 C 209.529 92.514,209.178 93.229,208.833 93.774 C 208.487 94.319,208.203 94.920,208.203 95.110 C 208.202 95.299,208.056 95.734,207.877 96.076 C 205.970 99.733,205.819 111.349,207.641 114.302 C 207.791 114.545,208.085 115.261,208.293 115.892 C 208.501 116.523,208.815 117.158,208.991 117.304 C 209.166 117.449,209.415 117.961,209.545 118.442 C 209.674 118.922,209.974 119.481,210.211 119.685 C 210.449 119.888,210.643 120.163,210.643 120.296 C 210.643 120.429,210.822 120.731,211.040 120.967 C 211.259 121.203,211.762 121.870,212.159 122.449 C 213.345 124.179,216.530 127.147,217.973 127.867 C 218.332 128.046,218.625 128.272,218.625 128.371 C 218.625 128.469,218.950 128.680,219.346 128.840 C 219.742 129.000,220.366 129.353,220.732 129.625 C 221.098 129.898,221.696 130.190,222.062 130.275 C 222.428 130.360,222.932 130.557,223.182 130.712 C 223.643 130.998,224.716 131.305,228.219 132.151 C 230.672 132.744,236.246 132.982,239.174 132.619 C 241.272 132.360,246.501 131.138,246.899 130.814 C 247.022 130.714,247.621 130.510,248.229 130.361 C 248.837 130.212,249.729 129.805,250.210 129.457 C 250.691 129.109,251.170 128.825,251.274 128.825 C 251.758 128.825,253.416 126.720,253.549 125.936 C 253.798 124.458,252.224 120.399,251.401 120.399 C 251.295 120.399,251.119 120.165,251.010 119.878 C 250.592 118.777,248.585 116.655,247.715 116.395 C 246.397 116.000,242.802 116.502,240.798 117.362 C 238.434 118.376,231.623 118.084,229.098 116.860 C 228.334 116.489,227.635 116.186,227.544 116.186 C 227.454 116.186,227.255 115.987,227.102 115.743 C 226.950 115.499,226.689 115.299,226.523 115.299 C 226.357 115.299,225.811 114.825,225.310 114.246 C 224.809 113.667,224.202 112.970,223.962 112.697 C 223.575 112.257,223.102 110.724,223.312 110.593 C 223.356 110.566,230.847 110.491,239.957 110.427 L 256.522 110.310 257.529 109.322 L 258.537 108.333 258.537 105.525 C 258.537 103.514,258.437 102.441,258.184 101.746 C 257.991 101.213,257.648 99.896,257.422 98.820 C 257.197 97.744,256.909 96.739,256.781 96.586 C 256.654 96.432,256.346 95.646,256.096 94.838 C 255.847 94.029,255.512 93.238,255.353 93.079 C 255.194 92.920,254.991 92.501,254.903 92.148 C 254.814 91.795,254.448 91.079,254.089 90.558 C 253.730 90.036,253.437 89.546,253.437 89.468 C 253.437 88.564,246.912 82.262,245.976 82.262 C 245.811 82.262,245.676 82.176,245.676 82.071 C 245.676 81.727,241.664 79.899,240.466 79.697 C 239.978 79.614,239.252 79.350,238.853 79.109 C 237.909 78.540,233.350 78.254,229.022 78.493 M48.559 78.645 C 48.254 78.704,47.805 78.932,47.561 79.150 C 47.317 79.368,46.858 79.684,46.541 79.851 C 46.224 80.018,45.626 80.546,45.211 81.024 L 44.457 81.892 44.398 104.333 L 44.340 126.773 45.222 127.841 C 45.707 128.428,46.522 129.189,47.032 129.532 L 47.960 130.155 52.860 130.154 C 57.854 130.152,58.261 130.094,59.323 129.232 C 60.402 128.355,60.705 127.878,60.843 126.837 C 60.923 126.233,61.085 125.679,61.204 125.606 C 61.339 125.522,61.419 121.083,61.419 113.721 C 61.419 107.258,61.511 101.552,61.623 101.041 C 61.735 100.529,61.942 99.537,62.082 98.836 C 62.247 98.016,62.448 97.561,62.647 97.561 C 62.817 97.561,63.072 97.336,63.215 97.062 C 63.588 96.345,64.838 95.234,65.887 94.687 C 66.385 94.428,66.937 94.070,67.115 93.893 C 67.789 93.219,71.613 93.453,72.692 94.235 C 73.197 94.601,73.673 94.900,73.749 94.900 C 74.144 94.900,75.629 96.723,75.918 97.563 C 76.101 98.093,76.406 98.614,76.595 98.720 C 76.901 98.892,76.941 100.455,76.950 112.594 C 76.961 127.679,76.920 127.216,78.373 128.787 C 79.645 130.162,80.157 130.267,85.588 130.263 C 90.772 130.260,90.822 130.249,92.392 128.878 C 93.659 127.772,93.636 128.029,93.733 113.747 C 93.818 101.293,93.846 100.529,94.233 100.111 C 94.458 99.867,94.714 99.278,94.802 98.802 C 94.999 97.738,97.283 95.364,98.726 94.724 C 99.244 94.495,99.804 94.141,99.972 93.938 C 100.404 93.415,104.381 93.393,104.580 93.913 C 104.652 94.101,105.186 94.496,105.766 94.790 C 107.080 95.455,108.505 97.204,108.850 98.573 C 108.992 99.137,109.260 99.830,109.446 100.115 C 109.742 100.565,109.780 102.289,109.742 113.564 C 109.697 127.117,109.832 130.048,110.581 131.707 C 110.828 132.256,111.101 133.104,111.186 133.592 C 111.328 134.402,112.591 137.561,113.091 138.359 C 113.206 138.542,113.552 139.166,113.860 139.745 C 114.168 140.324,114.511 140.798,114.623 140.798 C 114.735 140.798,114.894 141.011,114.976 141.272 C 115.121 141.727,115.968 142.948,117.247 144.543 C 118.140 145.658,122.167 149.667,122.394 149.667 C 122.501 149.667,123.051 150.067,123.614 150.554 C 124.178 151.042,124.778 151.441,124.947 151.441 C 125.116 151.441,125.335 151.577,125.432 151.744 C 125.530 151.910,125.959 152.221,126.386 152.435 C 126.813 152.649,127.361 152.999,127.605 153.214 C 127.849 153.430,128.448 153.739,128.936 153.901 C 129.424 154.064,130.085 154.374,130.407 154.590 C 130.728 154.806,131.514 155.095,132.154 155.232 C 132.794 155.369,133.648 155.677,134.053 155.916 C 134.457 156.154,135.467 156.444,136.297 156.560 C 137.126 156.676,138.104 156.910,138.470 157.080 C 140.349 157.951,148.207 158.094,151.109 157.309 C 151.840 157.111,153.237 156.799,154.213 156.616 C 155.188 156.433,156.151 156.135,156.353 155.954 C 156.554 155.773,157.346 155.479,158.112 155.300 C 158.877 155.121,159.810 154.792,160.184 154.568 C 160.559 154.343,161.339 153.984,161.918 153.768 C 162.497 153.553,162.971 153.295,162.971 153.195 C 162.971 153.096,163.410 152.820,163.947 152.583 C 164.952 152.138,165.352 151.844,166.630 150.610 C 167.040 150.213,167.472 149.889,167.590 149.889 C 168.046 149.889,171.745 146.496,172.182 145.676 C 172.344 145.371,173.007 144.552,173.656 143.856 C 175.261 142.131,175.803 141.393,176.096 140.532 C 176.234 140.130,176.567 139.533,176.837 139.207 C 177.107 138.880,177.398 138.241,177.483 137.788 C 177.568 137.334,177.839 136.800,178.085 136.601 C 178.339 136.395,178.615 135.789,178.727 135.193 C 178.834 134.617,179.124 133.872,179.371 133.537 C 179.618 133.201,179.922 132.328,180.046 131.596 C 180.171 130.865,180.496 129.518,180.768 128.603 L 181.264 126.940 181.264 107.095 L 181.264 87.251 180.530 85.809 C 180.127 85.017,179.700 84.218,179.581 84.035 C 179.463 83.853,179.196 83.434,178.987 83.105 C 178.779 82.776,178.391 82.407,178.126 82.287 C 177.861 82.166,177.580 81.866,177.502 81.621 C 177.425 81.376,177.142 81.107,176.873 81.023 C 176.605 80.939,176.104 80.635,175.759 80.347 C 175.414 80.058,174.865 79.760,174.539 79.683 C 174.213 79.606,173.714 79.331,173.430 79.073 C 172.969 78.653,172.597 78.595,169.961 78.526 L 167.008 78.450 165.932 79.560 C 165.340 80.170,164.631 80.944,164.357 81.279 L 163.858 81.888 163.857 94.104 C 163.855 107.047,163.778 108.293,162.886 109.665 C 161.811 111.319,160.686 112.630,160.222 112.770 C 159.966 112.848,159.548 113.102,159.293 113.335 C 158.110 114.415,152.569 114.435,151.384 113.363 C 151.170 113.169,150.773 112.900,150.502 112.765 C 150.231 112.630,149.886 112.273,149.736 111.973 C 149.587 111.672,149.326 111.325,149.156 111.201 C 148.200 110.501,148.046 108.665,147.902 96.231 C 147.731 81.421,147.848 81.991,144.630 80.362 C 143.185 79.631,140.442 79.682,139.170 80.464 C 138.785 80.700,138.099 80.963,137.646 81.047 C 137.192 81.131,136.564 81.439,136.249 81.731 C 135.933 82.023,135.584 82.262,135.473 82.262 C 134.909 82.262,132.599 85.064,132.185 86.250 C 132.039 86.668,131.698 87.247,131.426 87.536 L 130.931 88.063 130.931 100.997 L 130.931 113.932 131.449 114.633 C 131.782 115.083,132.041 115.862,132.174 116.813 C 132.287 117.627,132.555 118.542,132.768 118.847 C 132.981 119.152,133.291 119.800,133.456 120.288 C 133.621 120.776,133.925 121.375,134.132 121.619 C 134.339 121.863,134.691 122.361,134.914 122.727 C 135.369 123.472,135.502 123.625,136.981 125.100 C 138.808 126.923,139.264 127.284,140.208 127.655 C 140.716 127.854,141.209 128.146,141.304 128.304 C 141.400 128.461,141.899 128.696,142.413 128.827 C 142.927 128.957,143.697 129.208,144.124 129.384 C 146.496 130.364,152.985 130.341,154.428 129.348 C 154.669 129.182,155.018 129.046,155.205 129.045 C 155.811 129.043,157.184 128.593,157.476 128.302 C 157.633 128.145,158.257 127.827,158.863 127.596 C 159.469 127.365,160.142 126.998,160.359 126.781 C 160.576 126.563,160.898 126.386,161.074 126.386 C 161.250 126.386,161.542 126.175,161.722 125.917 C 161.903 125.659,162.358 125.261,162.733 125.033 L 163.415 124.618 163.415 125.163 C 163.415 125.462,163.231 126.034,163.006 126.434 C 162.782 126.835,162.525 127.561,162.435 128.049 C 162.346 128.537,162.108 129.185,161.905 129.490 C 161.308 130.391,160.976 131.072,160.976 131.398 C 160.976 131.658,158.831 133.887,157.157 135.366 C 156.385 136.047,153.822 137.694,153.533 137.694 C 153.391 137.694,153.037 137.879,152.746 138.106 C 150.774 139.641,139.235 139.749,138.311 138.241 C 138.224 138.098,137.675 137.801,137.092 137.581 C 135.982 137.161,135.215 136.663,134.108 135.643 C 133.745 135.308,133.367 135.033,133.269 135.033 C 133.171 135.033,132.838 134.709,132.529 134.313 C 132.220 133.916,131.664 133.267,131.293 132.869 C 130.363 131.871,129.098 129.928,128.789 129.023 C 128.648 128.609,128.349 128.033,128.124 127.742 C 127.900 127.451,127.714 126.852,127.710 126.411 C 127.707 125.970,127.445 124.911,127.127 124.058 L 126.549 122.506 126.412 104.856 C 126.310 91.673,126.208 87.127,126.010 86.888 C 125.864 86.713,125.438 85.949,125.062 85.192 C 124.686 84.434,124.302 83.814,124.210 83.814 C 124.118 83.814,123.869 83.520,123.657 83.162 C 123.446 82.804,123.075 82.448,122.834 82.371 C 122.592 82.294,122.395 82.105,122.395 81.949 C 122.395 81.794,122.025 81.476,121.573 81.243 C 121.121 81.011,120.422 80.605,120.020 80.342 C 119.619 80.079,118.793 79.796,118.186 79.712 C 117.578 79.629,116.808 79.345,116.473 79.082 C 115.594 78.390,105.378 78.336,104.337 79.017 C 103.990 79.245,103.046 79.569,102.241 79.738 C 101.435 79.906,100.523 80.231,100.213 80.460 C 99.903 80.688,99.327 80.946,98.932 81.033 C 98.190 81.196,96.303 82.369,95.417 83.218 C 95.139 83.485,94.722 83.865,94.490 84.063 C 94.258 84.261,94.031 84.524,93.986 84.646 C 93.733 85.321,92.481 85.178,92.164 84.439 C 91.990 84.034,91.479 83.354,91.029 82.927 C 90.579 82.500,90.001 81.926,89.744 81.652 C 89.487 81.377,89.153 81.153,89.001 81.153 C 88.850 81.153,88.430 80.904,88.070 80.601 C 87.709 80.297,86.878 79.930,86.223 79.785 C 85.569 79.640,84.734 79.314,84.368 79.062 C 83.360 78.366,71.724 78.349,70.958 79.042 C 70.691 79.284,69.859 79.606,69.109 79.759 C 68.359 79.912,67.492 80.225,67.183 80.453 C 66.874 80.682,66.374 80.947,66.071 81.041 C 65.769 81.136,65.104 81.499,64.594 81.849 C 64.084 82.198,63.591 82.483,63.498 82.483 C 63.404 82.483,63.064 82.736,62.741 83.046 C 61.873 83.877,61.078 83.528,60.860 82.220 C 60.642 80.905,60.239 80.196,59.498 79.823 C 59.152 79.649,58.570 79.303,58.204 79.055 C 57.547 78.609,50.316 78.301,48.559 78.645 M235.607 79.138 C 237.992 79.414,243.207 81.102,244.539 82.028 C 244.860 82.251,245.721 82.819,246.452 83.289 C 247.859 84.194,251.067 87.243,251.789 88.360 C 252.024 88.726,252.398 89.235,252.618 89.492 C 253.213 90.186,253.784 91.259,255.203 94.346 C 257.465 99.268,258.571 107.383,257.172 108.783 C 256.249 109.705,255.505 109.745,239.312 109.751 C 223.547 109.756,222.821 109.791,222.526 110.559 C 222.047 111.808,225.817 116.304,227.882 116.948 C 228.157 117.033,228.381 117.191,228.381 117.299 C 228.381 117.503,229.746 117.947,232.113 118.512 C 234.644 119.116,242.330 118.313,243.546 117.317 C 244.666 116.401,247.235 116.552,248.355 117.600 C 249.335 118.517,250.548 120.004,250.552 120.291 C 250.553 120.414,250.788 120.766,251.073 121.073 C 252.340 122.440,253.172 124.839,252.786 126.011 C 252.283 127.535,248.787 129.800,246.231 130.258 C 245.743 130.346,244.945 130.597,244.457 130.817 C 243.672 131.171,241.482 131.530,236.253 132.161 C 234.739 132.344,234.028 132.279,228.603 131.468 C 227.688 131.332,226.541 131.075,226.053 130.899 C 225.565 130.723,224.642 130.434,224.001 130.258 C 222.744 129.913,220.475 128.837,219.402 128.076 C 219.037 127.817,218.471 127.456,218.144 127.273 C 217.130 126.705,214.253 123.978,213.035 122.430 C 212.396 121.618,211.782 120.889,211.672 120.811 C 211.046 120.369,208.680 115.243,207.907 112.657 C 206.896 109.271,206.851 101.219,207.828 98.364 C 208.157 97.403,208.426 96.526,208.426 96.415 C 208.426 96.303,208.725 95.572,209.091 94.789 C 209.457 94.007,209.756 93.282,209.756 93.179 C 209.756 93.075,210.012 92.647,210.326 92.227 C 210.639 91.807,211.042 91.118,211.221 90.695 C 211.401 90.273,211.621 89.873,211.710 89.808 C 211.902 89.669,213.684 87.416,213.787 87.182 C 214.254 86.129,220.296 81.768,222.188 81.119 C 222.607 80.975,223.149 80.735,223.392 80.584 C 223.636 80.433,224.185 80.241,224.612 80.157 C 225.039 80.073,225.837 79.853,226.386 79.668 C 228.416 78.983,232.336 78.758,235.607 79.138 M267.738 79.079 C 264.865 79.685,263.686 80.427,262.877 82.135 L 262.306 83.343 262.306 104.878 L 262.306 126.413 262.852 127.568 C 264.119 130.245,265.552 130.820,270.956 130.820 C 276.382 130.820,277.308 130.520,278.752 128.292 L 279.601 126.982 279.612 115.653 C 279.625 103.403,279.703 102.121,280.558 100.121 C 281.228 98.553,283.246 96.379,284.378 96.006 C 284.799 95.867,285.144 95.665,285.144 95.557 C 285.144 95.112,287.051 94.907,290.735 94.958 L 294.631 95.011 295.763 93.902 C 296.386 93.293,296.895 92.641,296.895 92.455 C 296.896 92.269,297.051 91.895,297.240 91.625 C 297.429 91.355,297.734 90.409,297.917 89.525 C 298.100 88.640,298.444 87.151,298.682 86.216 C 299.987 81.074,298.436 79.719,291.242 79.714 C 287.357 79.712,287.218 79.728,286.031 80.308 C 285.360 80.636,284.562 80.970,284.257 81.051 C 283.952 81.132,283.453 81.439,283.149 81.733 C 282.844 82.028,282.070 82.675,281.430 83.171 C 280.790 83.667,280.266 84.164,280.266 84.276 C 280.266 84.897,279.806 84.339,279.682 83.569 C 279.523 82.570,278.045 80.179,277.436 79.935 C 275.627 79.211,269.626 78.681,267.738 79.079 M83.814 79.670 C 84.241 79.858,85.137 80.179,85.805 80.382 C 86.473 80.585,87.287 80.942,87.613 81.174 C 87.939 81.406,88.278 81.596,88.367 81.596 C 88.918 81.596,90.915 83.888,92.158 85.948 C 92.459 86.447,93.512 86.004,94.863 84.812 C 95.277 84.446,95.871 83.919,96.184 83.642 C 96.496 83.364,97.108 82.920,97.544 82.656 C 97.980 82.391,98.387 82.106,98.448 82.023 C 98.637 81.764,102.420 80.266,102.884 80.266 C 103.126 80.266,103.948 80.044,104.711 79.773 C 106.750 79.048,114.048 79.057,116.068 79.788 C 116.795 80.051,117.544 80.266,117.731 80.266 C 119.711 80.268,124.034 84.096,124.828 86.551 C 124.980 87.020,125.242 87.669,125.411 87.993 C 125.663 88.475,125.720 91.130,125.728 102.772 C 125.739 118.736,125.917 123.750,126.496 124.389 C 126.701 124.616,126.973 125.522,127.107 126.423 C 127.241 127.317,127.534 128.317,127.759 128.644 C 127.985 128.971,128.313 129.648,128.490 130.148 C 129.148 132.015,134.520 137.692,135.630 137.694 C 135.729 137.695,136.358 137.983,137.029 138.334 C 140.426 140.114,140.963 140.235,145.455 140.232 C 149.226 140.229,149.640 140.189,150.598 139.738 C 151.170 139.467,151.757 139.246,151.902 139.246 C 153.813 139.246,160.165 134.210,161.731 131.453 C 162.505 130.092,163.191 128.716,163.192 128.526 C 163.192 128.422,163.333 128.023,163.504 127.639 C 164.493 125.413,164.573 124.061,163.737 123.680 C 163.130 123.403,163.152 123.389,161.380 125.222 C 160.996 125.618,160.567 125.942,160.425 125.942 C 160.284 125.942,159.776 126.239,159.297 126.601 C 158.818 126.964,158.275 127.263,158.090 127.267 C 157.905 127.270,157.406 127.458,156.981 127.684 C 153.663 129.448,144.175 129.538,142.129 127.825 C 141.946 127.672,141.547 127.473,141.242 127.383 C 139.662 126.916,136.383 123.721,134.644 120.953 C 133.902 119.773,132.670 116.658,132.502 115.535 C 132.420 114.994,132.184 114.196,131.975 113.761 C 131.505 112.781,131.382 88.590,131.846 88.296 C 131.983 88.209,132.316 87.621,132.587 86.989 C 132.857 86.358,133.269 85.669,133.502 85.458 C 133.734 85.248,133.925 84.989,133.925 84.884 C 133.925 84.779,134.259 84.370,134.667 83.976 C 138.520 80.256,144.479 79.591,146.294 82.679 L 146.896 83.703 147.007 96.231 L 147.118 108.758 147.947 110.445 C 151.010 116.671,159.007 116.833,163.179 110.754 C 164.437 108.921,164.401 109.329,164.522 95.344 L 164.634 82.373 165.263 81.319 C 165.609 80.740,165.979 80.266,166.086 80.266 C 166.192 80.266,166.489 80.042,166.745 79.767 C 167.435 79.028,171.440 79.029,172.992 79.770 C 173.565 80.043,174.077 80.266,174.129 80.266 C 175.323 80.266,179.601 84.657,179.601 85.881 C 179.601 85.977,179.825 86.524,180.100 87.096 L 180.599 88.137 180.665 104.213 C 180.745 123.705,180.380 129.301,178.803 132.765 C 178.510 133.408,178.270 134.107,178.270 134.318 C 178.270 134.528,177.983 135.249,177.632 135.920 C 177.282 136.591,176.923 137.374,176.835 137.659 C 176.747 137.945,176.404 138.594,176.071 139.101 C 175.739 139.607,175.158 140.521,174.780 141.131 C 174.402 141.741,173.891 142.489,173.646 142.794 C 171.834 145.042,170.004 147.006,168.656 148.148 C 167.785 148.885,166.824 149.706,166.519 149.973 C 165.823 150.581,162.915 152.328,162.597 152.328 C 162.467 152.328,162.239 152.474,162.091 152.652 C 161.943 152.831,161.257 153.188,160.567 153.445 C 159.877 153.703,159.163 154.049,158.980 154.214 C 158.797 154.378,157.974 154.682,157.151 154.889 C 156.328 155.095,155.654 155.336,155.654 155.424 C 155.654 155.675,154.155 156.055,152.217 156.297 C 151.242 156.418,149.795 156.671,149.002 156.859 C 147.178 157.290,143.334 157.301,141.545 156.879 C 140.797 156.703,139.164 156.406,137.916 156.219 C 136.668 156.032,135.334 155.697,134.952 155.473 C 134.570 155.249,133.708 154.935,133.038 154.775 C 132.367 154.616,131.569 154.312,131.264 154.101 C 130.959 153.889,130.460 153.642,130.155 153.550 C 128.969 153.193,126.124 151.468,123.392 149.450 C 120.687 147.451,116.943 143.287,115.200 140.339 C 114.299 138.815,112.639 135.430,112.639 135.117 C 112.639 134.963,112.436 134.494,112.189 134.074 C 111.941 133.655,111.588 132.587,111.403 131.701 C 111.218 130.814,110.966 129.901,110.843 129.671 C 110.338 128.728,110.175 123.808,110.312 113.636 C 110.473 101.627,110.362 99.870,109.291 97.546 C 108.622 96.097,107.014 94.235,106.430 94.235 C 106.303 94.235,105.792 93.966,105.296 93.637 C 103.972 92.761,100.490 92.743,99.187 93.606 C 98.716 93.917,98.097 94.246,97.812 94.337 C 97.076 94.570,94.797 96.948,94.469 97.824 C 94.139 98.709,93.880 99.262,93.453 100.000 C 93.184 100.466,93.132 102.636,93.130 113.652 L 93.126 126.749 92.350 127.657 C 90.939 129.305,90.256 129.490,85.573 129.491 C 80.519 129.492,79.742 129.286,78.469 127.600 L 77.627 126.486 77.561 112.744 L 77.494 99.002 76.676 97.338 C 75.114 94.160,73.242 93.013,69.628 93.021 L 67.073 93.026 65.649 93.901 C 63.705 95.095,61.917 96.962,61.623 98.103 C 61.496 98.598,61.228 99.501,61.028 100.111 C 60.715 101.066,60.648 102.982,60.543 113.969 C 60.386 130.385,61.005 129.157,52.882 129.157 C 47.412 129.157,46.935 129.025,45.804 127.194 L 45.140 126.117 45.181 104.383 L 45.223 82.650 45.803 81.661 C 46.881 79.821,48.279 79.380,53.031 79.379 C 58.479 79.379,59.801 80.035,60.432 83.053 C 60.859 85.094,61.536 85.306,63.082 83.884 C 64.660 82.432,68.307 80.541,70.288 80.147 C 70.715 80.062,71.180 79.900,71.322 79.786 C 72.170 79.104,82.321 79.010,83.814 79.670 M275.765 80.056 C 277.475 80.430,278.633 81.866,279.060 84.141 C 279.348 85.673,279.871 85.776,281.083 84.538 C 282.826 82.756,284.113 81.841,286.069 80.994 C 289.374 79.562,296.170 79.934,297.702 81.630 C 299.039 83.111,297.289 91.450,295.206 93.521 L 294.253 94.469 290.197 94.441 C 284.580 94.403,283.134 95.028,280.550 98.615 C 279.270 100.390,279.189 101.276,279.092 114.412 C 278.972 130.525,279.164 130.155,270.932 130.155 C 265.849 130.155,264.095 129.450,263.421 127.135 C 262.928 125.440,263.212 82.746,263.722 81.904 C 264.150 81.196,265.003 80.577,266.184 80.117 C 267.039 79.783,274.310 79.737,275.765 80.056 M306.130 80.037 C 305.660 80.129,305.211 80.304,305.132 80.427 C 305.053 80.549,304.789 80.716,304.545 80.797 C 302.892 81.345,302.437 82.663,302.444 86.890 C 302.451 90.968,302.593 91.597,303.750 92.665 L 304.658 93.503 307.041 93.616 C 308.351 93.679,310.820 93.698,312.528 93.660 C 314.235 93.622,316.550 93.648,317.672 93.717 L 319.713 93.843 319.576 94.538 C 319.501 94.920,319.256 95.363,319.032 95.523 C 318.808 95.682,318.625 95.938,318.625 96.092 C 318.625 96.246,318.276 96.764,317.849 97.244 C 317.423 97.723,317.073 98.241,317.073 98.394 C 317.073 98.547,316.824 98.889,316.519 99.155 C 316.214 99.420,315.965 99.746,315.965 99.880 C 315.965 100.013,315.565 100.654,315.078 101.303 C 314.590 101.952,314.191 102.623,314.191 102.794 C 314.191 102.965,314.092 103.104,313.972 103.104 C 313.851 103.104,313.501 103.478,313.193 103.936 C 312.885 104.393,312.186 105.397,311.639 106.166 C 311.092 106.935,310.584 107.808,310.509 108.106 C 310.434 108.404,310.286 108.647,310.179 108.647 C 310.072 108.647,309.708 109.072,309.371 109.590 C 309.034 110.108,308.534 110.781,308.259 111.084 C 307.985 111.388,307.761 111.745,307.761 111.877 C 307.761 112.009,307.511 112.352,307.206 112.639 C 306.901 112.925,306.652 113.244,306.652 113.348 C 306.652 113.544,305.530 115.290,304.543 116.630 C 304.228 117.057,303.626 117.874,303.205 118.446 C 302.784 119.018,302.439 119.576,302.439 119.686 C 302.439 119.797,302.231 120.075,301.977 120.305 C 301.723 120.535,301.376 121.024,301.205 121.392 C 301.035 121.761,300.688 122.411,300.434 122.838 C 299.040 125.186,300.136 129.502,302.439 130.737 L 303.437 131.271 321.286 131.212 L 339.135 131.153 340.146 130.548 C 341.791 129.563,342.129 128.455,342.129 124.038 C 342.129 117.175,341.954 117.062,331.100 116.906 C 325.307 116.822,323.229 116.723,323.061 116.520 C 322.801 116.207,323.361 114.634,323.732 114.634 C 323.854 114.634,324.120 114.285,324.324 113.858 C 324.528 113.431,324.774 113.082,324.871 113.082 C 324.968 113.082,325.303 112.578,325.615 111.963 C 325.927 111.347,326.322 110.790,326.492 110.725 C 326.663 110.660,326.866 110.316,326.944 109.961 C 327.022 109.606,327.208 109.240,327.358 109.148 C 327.507 109.055,327.858 108.603,328.138 108.143 C 328.418 107.682,328.773 107.178,328.929 107.023 C 329.084 106.868,329.373 106.427,329.572 106.042 C 329.771 105.658,330.069 105.264,330.234 105.166 C 330.399 105.069,330.663 104.739,330.820 104.435 C 330.978 104.130,331.391 103.517,331.739 103.072 C 332.088 102.628,332.373 102.115,332.373 101.932 C 332.373 101.749,332.515 101.545,332.688 101.478 C 332.862 101.412,333.180 100.977,333.395 100.512 C 333.773 99.694,334.438 98.778,335.587 97.497 C 335.892 97.156,336.142 96.783,336.142 96.667 C 336.142 96.551,336.491 95.999,336.918 95.439 C 337.345 94.880,337.694 94.281,337.694 94.107 C 337.694 93.934,337.797 93.792,337.924 93.792 C 338.050 93.792,338.350 93.318,338.590 92.738 C 338.831 92.159,339.190 91.397,339.389 91.044 C 339.589 90.692,339.931 89.644,340.151 88.716 C 340.371 87.788,340.654 86.630,340.780 86.142 C 341.284 84.192,340.566 81.368,339.468 80.982 C 339.285 80.918,338.903 80.656,338.619 80.399 C 338.079 79.913,308.453 79.582,306.130 80.037 M348.504 80.023 C 348.047 80.118,347.498 80.354,347.285 80.546 C 347.071 80.739,346.625 80.964,346.294 81.047 C 344.084 81.598,342.804 85.105,343.431 88.888 C 343.662 90.279,343.760 90.464,344.868 91.574 C 347.057 93.770,351.716 94.423,353.431 92.774 C 353.617 92.595,354.117 92.224,354.541 91.950 C 355.037 91.629,355.435 91.121,355.654 90.528 C 355.842 90.021,356.218 89.368,356.490 89.079 C 357.182 88.342,357.223 85.429,356.549 84.819 C 356.310 84.603,355.999 84.063,355.858 83.621 C 355.549 82.650,354.254 81.239,353.497 81.049 C 353.195 80.974,352.684 80.719,352.361 80.483 C 351.689 79.992,349.758 79.762,348.504 80.023 M338.705 81.185 C 341.123 82.759,340.262 89.375,337.030 94.044 C 336.409 94.942,335.506 96.275,335.024 97.007 C 334.542 97.738,333.960 98.586,333.730 98.891 C 333.501 99.196,332.853 100.144,332.289 100.998 C 331.726 101.851,330.909 103.049,330.475 103.659 C 330.040 104.268,329.217 105.465,328.645 106.319 C 328.073 107.172,327.431 108.064,327.217 108.301 C 327.004 108.538,326.827 108.837,326.824 108.966 C 326.822 109.096,326.617 109.451,326.369 109.756 C 325.965 110.253,324.606 112.218,322.461 115.410 C 322.003 116.091,321.740 116.733,321.778 117.073 L 321.840 117.627 330.377 117.738 C 341.775 117.886,341.299 117.611,341.283 124.044 C 341.271 128.459,341.017 129.379,339.646 129.957 C 338.287 130.530,302.954 130.403,302.184 129.823 C 299.059 127.463,299.908 124.057,305.554 116.297 C 306.175 115.443,307.200 113.971,307.832 113.025 C 309.487 110.545,312.221 106.550,313.408 104.878 C 313.971 104.085,315.097 102.439,315.910 101.220 C 316.724 100.000,317.918 98.310,318.564 97.465 C 319.210 96.619,319.906 95.546,320.111 95.081 C 320.317 94.616,320.565 94.235,320.664 94.235 C 321.134 94.235,320.759 93.734,320.074 93.448 C 319.459 93.191,317.949 93.126,312.568 93.126 C 305.181 93.126,304.916 93.087,303.880 91.850 L 303.215 91.055 303.146 87.268 L 303.077 83.481 303.754 82.423 C 304.982 80.503,304.781 80.523,322.616 80.564 L 337.805 80.599 338.705 81.185 M347.690 81.818 C 348.141 81.818,347.855 82.223,347.307 82.361 C 346.600 82.538,346.056 82.135,346.565 81.811 C 346.747 81.696,347.029 81.650,347.191 81.710 C 347.353 81.769,347.578 81.818,347.690 81.818 M353.659 82.200 C 353.659 82.464,353.488 82.501,352.829 82.377 C 351.816 82.187,351.539 82.032,351.858 81.835 C 352.294 81.565,353.659 81.842,353.659 82.200 M345.982 83.685 C 345.964 84.237,345.809 84.610,345.509 84.820 C 344.992 85.183,344.723 86.321,344.768 87.955 C 344.785 88.586,344.697 89.166,344.572 89.243 C 343.749 89.752,343.682 84.719,344.503 84.065 C 344.754 83.866,345.077 83.472,345.222 83.191 C 345.600 82.454,346.013 82.723,345.982 83.685 M352.162 83.045 C 352.570 83.204,352.715 84.351,352.355 84.573 C 352.248 84.639,351.844 84.536,351.458 84.343 C 351.071 84.150,350.535 84.048,350.265 84.116 C 349.643 84.272,347.619 83.765,347.505 83.425 C 347.307 82.830,350.859 82.540,352.162 83.045 M355.178 84.091 C 355.404 84.969,355.384 85.060,354.884 85.431 C 354.515 85.705,354.301 86.142,354.197 86.834 C 354.028 87.963,353.785 88.148,352.910 87.815 C 352.456 87.643,352.112 87.668,351.520 87.915 C 350.535 88.327,349.908 87.755,349.897 86.434 C 349.888 85.476,350.305 85.247,351.644 85.474 C 353.113 85.722,354.102 85.147,354.102 84.047 C 354.102 82.737,354.837 82.767,355.178 84.091 M348.559 85.698 C 348.821 86.015,347.776 86.696,347.029 86.696 C 346.754 86.696,346.492 85.882,346.673 85.590 C 346.885 85.246,348.248 85.324,348.559 85.698 M356.319 86.770 C 356.319 88.075,356.178 88.369,355.730 87.998 C 355.215 87.570,355.335 85.588,355.876 85.588 C 356.264 85.588,356.319 85.735,356.319 86.770 M346.016 86.979 C 346.086 87.256,346.048 87.730,345.932 88.032 L 345.722 88.581 345.472 87.942 C 345.213 87.281,345.331 86.475,345.687 86.475 C 345.798 86.475,345.946 86.701,346.016 86.979 M355.244 89.139 C 355.129 90.280,354.815 90.781,354.419 90.453 C 353.814 89.951,354.242 88.157,354.934 88.291 C 355.233 88.349,355.304 88.542,355.244 89.139 M352.772 89.195 L 353.104 89.911 352.032 90.632 C 350.729 91.507,348.867 91.656,348.179 90.939 C 347.961 90.712,347.558 90.409,347.284 90.266 C 346.040 89.619,347.547 88.736,349.417 89.015 C 350.992 89.251,351.528 89.207,351.771 88.823 C 352.106 88.291,352.403 88.402,352.772 89.195 M345.898 90.200 C 345.898 90.725,346.323 91.131,346.874 91.131 C 347.161 91.131,347.241 91.207,347.101 91.347 C 346.691 91.757,345.649 91.266,345.333 90.514 C 345.054 89.852,345.064 89.800,345.465 89.800 C 345.734 89.800,345.898 89.952,345.898 90.200 M229.823 91.009 C 226.424 91.880,224.183 93.829,222.841 97.082 C 221.296 100.828,220.859 100.658,232.068 100.662 C 242.136 100.666,242.065 100.673,242.260 99.636 C 242.615 97.744,239.151 92.018,237.652 92.018 C 237.469 92.018,237.029 91.873,236.675 91.697 C 234.781 90.752,231.939 90.467,229.823 91.009 M354.051 91.089 C 354.162 91.423,353.553 91.666,353.070 91.481 C 352.740 91.354,352.745 91.309,353.126 91.021 C 353.594 90.667,353.918 90.691,354.051 91.089 M235.815 92.077 C 237.126 92.380,238.359 93.001,238.359 93.359 C 238.359 93.458,238.560 93.604,238.805 93.681 C 239.050 93.759,239.411 94.140,239.607 94.528 C 239.803 94.916,240.138 95.432,240.351 95.676 C 241.090 96.522,241.621 99.115,241.129 99.474 C 240.479 99.950,223.675 99.920,223.279 99.443 C 222.984 99.088,223.377 96.452,223.725 96.452 C 223.813 96.452,224.113 96.028,224.391 95.510 C 225.105 94.182,227.304 92.421,228.701 92.061 C 231.320 91.385,232.839 91.389,235.815 92.077 M352.100 92.231 C 352.689 92.603,352.099 92.793,350.148 92.857 C 348.158 92.923,347.239 92.673,347.894 92.243 C 348.316 91.966,351.666 91.956,352.100 92.231 " stroke="none" fill="#e5aca4" fill-rule="evenodd"></path></g></svg>