<svg id="svg" version="1.1" xmlns="http://www.w3.org/2000/svg" xmlns:xlink="http://www.w3.org/1999/xlink" width="400" height="245.33333333333334" viewBox="0, 0, 400,245.33333333333334"><g id="svgg"><path id="path0" d="M340.368 91.949 C 336.630 92.574,333.437 94.875,331.797 98.125 C 330.965 99.772,330.871 100.220,328.562 113.497 C 328.304 114.982,327.975 116.779,327.831 117.492 C 327.687 118.204,327.415 119.750,327.227 120.927 C 327.039 122.104,326.668 124.282,326.403 125.767 C 325.863 128.789,325.286 132.078,324.186 138.405 C 323.775 140.767,323.273 143.583,323.070 144.663 C 322.868 145.742,322.473 147.951,322.193 149.571 C 321.913 151.190,321.478 153.675,321.227 155.092 C 320.976 156.509,320.703 158.083,320.620 158.589 L 320.469 159.509 335.394 159.509 C 350.382 159.509,353.301 159.380,355.706 158.608 C 360.356 157.116,363.736 153.305,364.646 148.528 L 364.845 147.485 350.022 147.485 C 333.211 147.485,334.738 147.718,335.199 145.215 C 335.531 143.412,337.298 133.507,337.793 130.675 C 337.982 129.595,338.425 127.110,338.777 125.153 C 339.130 123.196,339.571 120.712,339.758 119.632 C 339.945 118.552,340.328 116.399,340.609 114.847 C 340.891 113.294,341.332 110.810,341.590 109.325 C 342.005 106.931,343.049 101.108,344.161 94.969 C 344.770 91.609,344.843 91.773,342.761 91.813 C 341.782 91.831,340.706 91.892,340.368 91.949 M24.639 110.669 C 19.174 111.493,15.631 115.089,14.600 120.859 C 14.383 122.074,13.997 124.282,13.742 125.767 C 13.486 127.252,13.048 129.736,12.767 131.288 C 12.486 132.840,12.099 135.049,11.908 136.196 C 11.716 137.344,11.106 140.822,10.552 143.926 C 9.997 147.031,9.390 150.454,9.203 151.534 C 9.016 152.613,8.626 154.822,8.337 156.442 C 8.049 158.061,7.609 160.546,7.360 161.963 C 6.065 169.331,5.582 172.092,5.255 173.988 C 5.057 175.135,4.803 176.543,4.689 177.117 L 4.483 178.160 10.580 178.160 L 16.678 178.160 16.796 177.607 C 16.941 176.935,18.046 170.799,19.149 164.540 C 19.434 162.920,19.746 161.153,19.841 160.613 L 20.015 159.632 30.314 159.476 C 42.374 159.294,43.418 159.133,46.712 156.946 C 49.616 155.019,52.270 150.693,52.270 147.888 L 52.270 147.362 37.417 147.427 C 25.024 147.481,22.543 147.437,22.435 147.156 C 22.364 146.971,22.706 144.568,23.194 141.815 C 23.682 139.062,24.233 135.926,24.418 134.847 C 24.602 133.767,24.989 131.613,25.277 130.061 C 25.565 128.509,26.022 125.969,26.292 124.417 C 26.561 122.865,26.932 120.767,27.115 119.755 C 28.949 109.618,28.936 110.561,27.239 110.516 C 26.497 110.496,25.327 110.565,24.639 110.669 M39.387 110.813 C 33.774 111.829,29.540 116.086,28.598 121.662 L 28.425 122.687 42.170 122.755 C 60.209 122.843,58.726 121.759,56.699 133.374 C 56.073 136.960,55.329 141.192,54.705 144.724 C 53.685 150.498,53.338 152.883,53.520 152.883 C 53.622 152.883,54.799 152.511,56.136 152.057 C 64.317 149.275,66.980 145.711,68.444 135.583 C 69.546 127.967,70.222 123.499,70.443 122.381 C 71.577 116.628,69.502 112.382,64.892 111.020 C 62.857 110.419,42.479 110.253,39.387 110.813 M100.491 110.589 C 93.053 111.648,87.576 114.181,82.662 118.835 C 66.811 133.850,71.981 157.515,91.506 159.311 C 97.448 159.858,101.524 158.480,105.700 154.513 C 107.056 153.225,107.147 153.395,106.664 156.305 C 106.440 157.650,106.258 158.921,106.258 159.130 C 106.258 159.462,107.011 159.509,112.265 159.509 L 118.273 159.509 118.402 158.957 C 118.472 158.653,118.809 156.804,119.150 154.847 C 119.490 152.890,119.982 150.074,120.243 148.589 C 120.504 147.104,120.938 144.620,121.207 143.067 C 121.477 141.515,121.870 139.307,122.081 138.160 C 122.417 136.330,123.137 132.228,124.915 122.008 C 125.962 115.998,124.500 112.757,119.941 110.985 C 118.931 110.592,102.780 110.264,100.491 110.589 M132.672 110.859 C 132.465 111.589,131.342 117.595,130.436 122.822 C 130.085 124.847,129.695 127.000,129.570 127.607 C 127.227 138.937,127.361 144.419,130.113 149.939 C 135.354 160.451,151.686 162.571,159.453 153.748 C 160.699 152.333,160.838 152.354,160.647 153.926 C 159.489 163.428,151.269 167.878,138.999 165.648 C 137.525 165.380,136.201 165.159,136.057 165.157 C 135.910 165.155,135.667 166.195,135.500 167.546 C 135.337 168.862,134.993 171.485,134.735 173.374 C 134.160 177.592,133.912 177.276,138.426 178.071 C 157.756 181.472,170.439 171.577,174.112 150.229 C 174.314 149.057,174.593 147.491,174.733 146.748 C 174.873 146.006,175.206 144.184,175.473 142.699 C 175.741 141.215,176.181 138.785,176.451 137.301 C 179.776 119.045,180.993 112.262,181.160 111.043 C 181.255 110.349,169.001 110.133,168.736 110.823 C 168.651 111.045,168.420 112.178,168.223 113.343 C 168.027 114.507,167.585 117.006,167.241 118.896 C 166.547 122.720,166.151 124.927,165.420 129.048 C 164.074 136.639,161.938 139.995,156.319 143.348 C 154.387 144.501,149.243 145.668,147.074 145.446 C 142.470 144.973,139.903 140.775,140.816 135.215 C 141.227 132.715,141.982 128.398,142.920 123.190 C 144.721 113.184,145.031 111.383,145.031 110.913 C 145.031 110.203,132.873 110.150,132.672 110.859 M192.147 110.812 C 188.553 111.805,186.586 114.284,185.878 118.712 C 185.690 119.893,185.306 122.129,185.025 123.681 C 184.744 125.233,184.305 127.718,184.050 129.202 C 183.794 130.687,183.132 134.442,182.577 137.546 C 181.377 144.259,181.042 146.160,180.372 150.061 C 180.094 151.681,179.817 153.172,179.756 153.374 C 179.695 153.577,179.481 154.791,179.281 156.074 C 179.081 157.356,178.844 158.653,178.755 158.957 L 178.593 159.509 184.730 159.509 L 190.867 159.509 191.386 156.626 C 191.671 155.040,192.014 153.190,192.147 152.515 C 192.281 151.840,192.618 149.963,192.896 148.344 C 193.563 144.462,193.975 142.095,194.603 138.528 C 194.888 136.908,195.276 134.699,195.465 133.620 C 197.530 121.819,196.855 122.700,203.832 122.700 C 211.711 122.699,214.480 123.936,216.692 128.444 C 218.057 131.226,218.078 133.524,216.804 140.736 C 215.822 146.297,215.296 149.282,214.751 152.393 C 214.479 153.945,214.085 156.153,213.877 157.301 C 213.668 158.448,213.497 159.414,213.497 159.448 C 213.496 159.651,225.516 159.471,225.642 159.267 C 225.725 159.133,226.011 157.781,226.278 156.261 C 226.545 154.741,226.924 152.613,227.120 151.534 C 227.499 149.445,227.901 147.184,229.320 139.141 C 231.045 129.369,233.582 125.770,240.400 123.425 C 246.429 121.350,252.496 126.397,252.510 133.497 C 252.512 134.750,252.334 135.926,251.042 143.190 C 250.779 144.675,250.116 148.429,249.570 151.534 C 249.024 154.638,248.485 157.644,248.372 158.214 C 248.259 158.784,248.225 159.309,248.296 159.380 C 248.421 159.505,260.355 159.572,260.381 159.448 C 260.409 159.318,261.077 155.610,261.432 153.620 C 261.636 152.472,262.096 149.933,262.454 147.975 C 262.812 146.018,263.257 143.534,263.442 142.454 C 263.628 141.374,264.060 138.890,264.403 136.933 C 266.311 126.038,263.769 118.097,256.933 113.588 C 249.202 108.491,236.943 110.197,228.161 117.592 L 227.241 118.366 225.406 116.391 C 222.689 113.466,220.009 111.971,215.786 111.024 C 213.036 110.408,194.222 110.239,192.147 110.812 M353.129 110.586 C 346.262 111.743,341.856 115.774,341.175 121.523 L 341.038 122.684 354.809 122.753 L 368.580 122.822 369.347 123.590 C 370.654 124.897,370.658 124.836,368.316 138.160 C 368.043 139.712,367.548 142.528,367.216 144.417 C 366.884 146.307,366.448 148.888,366.246 150.154 C 366.045 151.420,365.820 152.552,365.747 152.670 C 365.531 153.020,366.037 152.921,368.289 152.170 C 376.306 149.496,379.339 145.835,380.607 137.301 C 380.868 135.546,381.311 132.620,381.591 130.798 C 381.870 128.975,382.256 126.436,382.448 125.153 C 382.639 123.871,382.932 121.928,383.099 120.835 C 383.818 116.119,381.451 112.176,377.200 111.006 C 375.660 110.582,355.263 110.226,353.129 110.586 M295.828 111.316 C 280.602 113.628,269.595 125.191,269.576 138.896 C 269.552 156.637,288.525 164.741,305.890 154.406 C 325.002 143.031,324.650 117.352,305.309 112.004 C 303.219 111.426,297.729 111.028,295.828 111.316 M109.324 123.189 C 111.944 124.458,112.106 125.687,110.693 133.559 C 109.184 141.961,103.428 147.270,95.828 147.270 C 82.735 147.270,82.161 129.206,95.084 123.850 C 98.095 122.602,107.235 122.178,109.324 123.189 M300.245 123.600 C 312.060 126.558,308.531 144.018,295.583 146.670 C 288.488 148.123,282.400 144.243,282.026 138.029 C 281.465 128.711,290.878 121.255,300.245 123.600 M382.699 152.638 C 382.441 153.056,382.818 153.374,383.573 153.374 C 384.122 153.374,384.294 153.487,384.294 153.847 C 384.294 154.329,383.894 157.607,383.685 158.834 C 383.606 159.303,383.675 159.509,383.913 159.509 C 384.269 159.509,384.352 159.225,384.780 156.564 C 385.349 153.028,385.188 153.374,386.269 153.374 C 387.076 153.374,387.239 153.291,387.239 152.883 C 387.239 152.339,383.025 152.111,382.699 152.638 M389.049 152.688 C 388.948 152.851,388.722 153.983,388.546 155.203 C 388.369 156.424,388.154 157.893,388.067 158.466 C 387.936 159.333,387.977 159.509,388.310 159.509 C 388.531 159.509,388.712 159.453,388.712 159.385 C 388.712 158.616,389.522 154.183,389.694 154.011 C 390.000 153.706,390.100 154.036,390.531 156.784 C 391.093 160.363,391.113 160.362,392.993 156.600 C 393.759 155.067,394.447 153.874,394.521 153.948 C 394.643 154.070,394.256 157.596,393.971 158.957 C 393.845 159.560,394.452 159.760,394.672 159.189 C 394.932 158.510,395.677 152.651,395.523 152.496 C 394.994 151.967,394.186 152.747,393.271 154.667 C 391.457 158.477,391.420 158.486,390.911 155.215 C 390.497 152.562,389.752 151.550,389.049 152.688 " stroke="none" fill="#0584fb" fill-rule="evenodd"></path><path id="path1" d="M338.037 92.384 C 337.089 92.818,337.530 92.824,338.650 92.393 C 339.123 92.211,339.344 92.058,339.141 92.054 C 338.939 92.050,338.442 92.198,338.037 92.384 M333.742 95.092 C 333.146 95.699,332.714 96.196,332.781 96.196 C 332.849 96.196,333.392 95.699,333.988 95.092 C 334.584 94.485,335.016 93.988,334.949 93.988 C 334.881 93.988,334.338 94.485,333.742 95.092 M331.645 97.937 C 331.429 98.354,331.296 98.739,331.349 98.793 C 331.402 98.846,331.629 98.504,331.854 98.034 C 332.359 96.975,332.184 96.894,331.645 97.937 M24.601 110.599 C 24.837 110.660,25.224 110.660,25.460 110.599 C 25.696 110.537,25.503 110.486,25.031 110.486 C 24.558 110.486,24.365 110.537,24.601 110.599 M117.853 110.599 C 118.089 110.660,118.475 110.660,118.712 110.599 C 118.948 110.537,118.755 110.486,118.282 110.486 C 117.810 110.486,117.617 110.537,117.853 110.599 M132.423 110.807 C 132.339 111.026,132.281 111.445,132.295 111.738 C 132.311 112.074,132.394 111.955,132.522 111.413 C 132.736 110.501,132.678 110.143,132.423 110.807 M212.335 110.606 C 212.708 110.662,213.260 110.660,213.562 110.602 C 213.863 110.544,213.558 110.498,212.883 110.500 C 212.209 110.501,211.962 110.549,212.335 110.606 M244.359 110.603 C 244.664 110.662,245.106 110.659,245.340 110.598 C 245.575 110.537,245.325 110.489,244.785 110.491 C 244.245 110.494,244.053 110.544,244.359 110.603 M247.303 110.603 C 247.609 110.662,248.050 110.659,248.285 110.598 C 248.520 110.537,248.270 110.489,247.730 110.491 C 247.190 110.494,246.998 110.544,247.303 110.603 M64.294 110.920 C 65.134 111.189,65.779 111.189,65.153 110.920 C 64.883 110.804,64.442 110.713,64.172 110.717 C 63.777 110.722,63.801 110.762,64.294 110.920 M241.350 110.920 C 240.693 111.087,240.680 111.108,241.227 111.108 C 241.564 111.108,242.172 111.023,242.577 110.920 C 243.233 110.753,243.247 110.733,242.699 110.733 C 242.362 110.733,241.755 110.817,241.350 110.920 M249.346 110.765 C 249.402 110.815,249.890 110.922,250.429 111.005 C 251.114 111.109,251.262 111.087,250.920 110.932 C 250.449 110.718,249.135 110.579,249.346 110.765 M350.552 110.920 C 349.927 111.189,350.572 111.189,351.411 110.920 C 351.904 110.762,351.928 110.722,351.534 110.717 C 351.264 110.713,350.822 110.804,350.552 110.920 M376.687 110.920 C 377.526 111.189,378.171 111.189,377.546 110.920 C 377.276 110.804,376.834 110.713,376.564 110.717 C 376.170 110.722,376.194 110.762,376.687 110.920 M181.016 111.708 C 180.933 112.017,180.875 112.491,180.887 112.761 C 180.899 113.031,181.009 112.821,181.133 112.294 C 181.372 111.275,181.270 110.761,181.016 111.708 M301.291 111.339 C 301.596 111.398,302.038 111.396,302.273 111.334 C 302.507 111.273,302.258 111.225,301.718 111.228 C 301.178 111.230,300.986 111.281,301.291 111.339 M235.583 112.761 C 235.245 112.954,235.080 113.111,235.215 113.111 C 235.350 113.111,235.736 112.954,236.074 112.761 C 236.411 112.568,236.577 112.410,236.442 112.410 C 236.307 112.410,235.920 112.568,235.583 112.761 M380.980 113.130 C 382.143 114.489,382.159 114.504,381.893 113.988 C 381.754 113.718,381.326 113.221,380.943 112.884 L 380.245 112.272 380.980 113.130 M17.782 113.926 L 16.564 115.215 17.853 113.997 C 18.561 113.327,19.141 112.747,19.141 112.709 C 19.141 112.525,18.914 112.729,17.782 113.926 M308.221 113.006 C 308.558 113.199,308.945 113.357,309.080 113.357 C 309.215 113.357,309.049 113.199,308.712 113.006 C 308.374 112.813,307.988 112.655,307.853 112.655 C 307.718 112.655,307.883 112.813,308.221 113.006 M32.255 114.172 L 31.534 114.969 32.331 114.249 C 32.770 113.852,33.129 113.493,33.129 113.451 C 33.129 113.261,32.926 113.428,32.255 114.172 M225.281 116.258 C 226.254 117.304,227.154 118.198,227.280 118.245 C 227.406 118.293,226.660 117.437,225.623 116.344 C 224.585 115.250,223.685 114.356,223.623 114.356 C 223.561 114.356,224.307 115.212,225.281 116.258 M186.496 115.351 C 186.347 115.628,186.262 115.965,186.307 116.098 C 186.351 116.231,186.514 116.004,186.669 115.593 C 186.992 114.739,186.895 114.604,186.496 115.351 M327.744 116.946 C 327.651 117.439,327.625 117.891,327.685 117.951 C 327.745 118.011,327.869 117.657,327.962 117.164 C 328.054 116.672,328.081 116.220,328.021 116.160 C 327.961 116.100,327.836 116.454,327.744 116.946 M83.422 117.975 L 82.577 118.896 83.497 118.050 C 84.003 117.585,84.417 117.171,84.417 117.130 C 84.417 116.942,84.210 117.119,83.422 117.975 M70.753 119.264 C 70.753 120.141,70.798 120.500,70.852 120.061 C 70.907 119.623,70.907 118.905,70.852 118.466 C 70.798 118.028,70.753 118.387,70.753 119.264 M277.292 120.429 L 275.951 121.840 277.362 120.499 C 278.138 119.761,278.773 119.126,278.773 119.088 C 278.773 118.906,278.538 119.119,277.292 120.429 M185.423 120.270 C 185.333 120.832,185.308 121.340,185.366 121.399 C 185.425 121.458,185.550 121.049,185.644 120.491 C 185.738 119.933,185.764 119.425,185.701 119.362 C 185.638 119.299,185.513 119.708,185.423 120.270 M79.972 121.411 C 79.191 122.275,78.685 122.945,78.814 122.945 C 78.869 122.945,79.330 122.448,79.838 121.840 C 80.851 120.628,80.942 120.339,79.972 121.411 M263.454 121.472 C 263.544 121.810,263.720 122.252,263.845 122.454 C 264.003 122.710,264.022 122.635,263.908 122.209 C 263.818 121.871,263.642 121.429,263.517 121.227 C 263.359 120.971,263.340 121.046,263.454 121.472 M340.898 122.025 L 340.859 122.945 354.417 122.886 L 367.975 122.826 354.555 122.761 L 341.135 122.695 341.036 121.900 C 340.939 121.119,340.937 121.121,340.898 122.025 M318.300 122.577 C 318.300 122.712,318.457 123.098,318.650 123.436 C 318.843 123.773,319.001 123.939,319.001 123.804 C 319.001 123.669,318.843 123.282,318.650 122.945 C 318.457 122.607,318.300 122.442,318.300 122.577 M35.153 122.883 C 38.899 122.921,45.028 122.921,48.773 122.883 C 52.518 122.845,49.454 122.814,41.963 122.814 C 34.472 122.814,31.408 122.845,35.153 122.883 M101.669 122.882 C 102.992 122.927,105.090 122.927,106.332 122.882 C 107.573 122.838,106.491 122.801,103.926 122.802 C 101.362 122.802,100.346 122.838,101.669 122.882 M201.669 122.883 C 203.060 122.926,205.269 122.926,206.577 122.882 C 207.886 122.838,206.748 122.802,204.049 122.802 C 201.350 122.803,200.279 122.839,201.669 122.883 M96.810 123.190 C 96.184 123.459,96.830 123.459,97.669 123.190 C 98.162 123.032,98.186 122.992,97.791 122.986 C 97.521 122.983,97.080 123.074,96.810 123.190 M244.663 123.190 C 245.502 123.459,246.147 123.459,245.521 123.190 C 245.252 123.074,244.810 122.983,244.540 122.986 C 244.145 122.992,244.169 123.032,244.663 123.190 M382.634 123.926 C 382.634 124.399,382.684 124.592,382.746 124.356 C 382.808 124.120,382.808 123.733,382.746 123.497 C 382.684 123.261,382.634 123.454,382.634 123.926 M214.479 125.521 C 214.936 125.994,215.366 126.380,215.434 126.380 C 215.501 126.380,215.182 125.994,214.724 125.521 C 214.266 125.049,213.836 124.663,213.769 124.663 C 213.701 124.663,214.021 125.049,214.479 125.521 M249.439 125.890 C 250.100 126.632,250.691 127.294,250.753 127.362 C 250.814 127.429,250.747 127.264,250.605 126.994 C 250.462 126.724,249.871 126.061,249.291 125.521 C 248.252 124.554,248.254 124.559,249.439 125.890 M184.431 125.781 C 184.338 126.273,184.312 126.725,184.372 126.785 C 184.432 126.845,184.557 126.491,184.649 125.999 C 184.741 125.506,184.768 125.054,184.708 124.994 C 184.648 124.934,184.523 125.288,184.431 125.781 M57.736 126.135 C 57.736 126.742,57.783 126.991,57.842 126.687 C 57.900 126.383,57.900 125.887,57.842 125.583 C 57.783 125.279,57.736 125.528,57.736 126.135 M304.785 126.258 C 305.243 126.730,305.673 127.117,305.740 127.117 C 305.808 127.117,305.489 126.730,305.031 126.258 C 304.573 125.785,304.143 125.399,304.076 125.399 C 304.008 125.399,304.327 125.785,304.785 126.258 M233.979 127.423 L 232.761 128.712 234.049 127.494 C 235.246 126.362,235.450 126.135,235.267 126.135 C 235.228 126.135,234.648 126.715,233.979 127.423 M265.122 130.184 C 265.123 131.669,265.163 132.244,265.212 131.463 C 265.261 130.682,265.261 129.468,265.211 128.764 C 265.162 128.060,265.122 128.699,265.122 130.184 M251.242 128.466 C 251.366 128.736,251.529 129.123,251.604 129.325 C 251.722 129.643,251.743 129.641,251.760 129.311 C 251.770 129.100,251.607 128.714,251.398 128.452 C 251.022 127.983,251.019 127.983,251.242 128.466 M320.070 129.693 C 320.072 130.368,320.120 130.615,320.176 130.242 C 320.232 129.869,320.231 129.317,320.173 129.015 C 320.114 128.713,320.068 129.018,320.070 129.693 M307.325 132.761 C 307.325 133.908,307.367 134.377,307.419 133.804 C 307.471 133.230,307.471 132.291,307.419 131.718 C 307.367 131.144,307.325 131.613,307.325 132.761 M320.070 132.393 C 320.072 133.067,320.120 133.314,320.176 132.941 C 320.232 132.568,320.231 132.016,320.173 131.714 C 320.114 131.413,320.068 131.718,320.070 132.393 M252.354 133.620 C 252.355 134.699,252.398 135.111,252.450 134.533 C 252.502 133.956,252.501 133.073,252.448 132.570 C 252.396 132.068,252.353 132.540,252.354 133.620 M380.916 135.215 C 380.916 135.687,380.966 135.880,381.028 135.644 C 381.090 135.408,381.090 135.021,381.028 134.785 C 380.966 134.549,380.916 134.742,380.916 135.215 M85.727 137.423 C 85.727 138.436,85.770 138.850,85.823 138.344 C 85.876 137.837,85.876 137.009,85.823 136.503 C 85.770 135.997,85.727 136.411,85.727 137.423 M127.910 136.442 C 127.910 136.914,127.960 137.107,128.022 136.871 C 128.084 136.635,128.084 136.248,128.022 136.012 C 127.960 135.776,127.910 135.969,127.910 136.442 M140.696 137.423 C 140.696 138.436,140.739 138.850,140.792 138.344 C 140.845 137.837,140.845 137.009,140.792 136.503 C 140.739 135.997,140.696 136.411,140.696 137.423 M269.295 138.896 C 269.295 140.448,269.335 141.083,269.384 140.307 C 269.433 139.531,269.433 138.261,269.384 137.485 C 269.335 136.709,269.295 137.344,269.295 138.896 M73.220 139.387 C 73.220 140.804,73.260 141.383,73.310 140.675 C 73.359 139.966,73.359 138.807,73.310 138.098 C 73.260 137.390,73.220 137.969,73.220 139.387 M127.696 139.632 C 127.696 140.914,127.737 141.439,127.788 140.798 C 127.838 140.156,127.838 139.107,127.788 138.466 C 127.737 137.825,127.696 138.350,127.696 139.632 M160.095 140.268 C 159.136 141.268,158.395 142.086,158.450 142.086 C 158.653 142.086,161.043 139.745,161.511 139.087 C 162.217 138.095,162.035 138.247,160.095 140.268 M140.863 139.775 C 140.865 140.034,140.979 140.411,141.116 140.613 C 141.297 140.882,141.320 140.783,141.200 140.245 C 140.998 139.343,140.858 139.147,140.863 139.775 M367.744 140.259 C 367.651 140.752,367.625 141.204,367.685 141.264 C 367.745 141.323,367.869 140.970,367.962 140.477 C 368.054 139.985,368.081 139.533,368.021 139.473 C 367.961 139.413,367.836 139.767,367.744 140.259 M67.379 141.245 C 67.289 141.604,67.263 141.946,67.321 142.004 C 67.378 142.061,67.500 141.814,67.590 141.455 C 67.680 141.095,67.707 140.754,67.649 140.696 C 67.591 140.638,67.470 140.885,67.379 141.245 M121.361 141.974 C 121.267 142.600,121.240 143.163,121.302 143.224 C 121.363 143.285,121.490 142.823,121.584 142.197 C 121.678 141.571,121.704 141.009,121.643 140.948 C 121.582 140.886,121.455 141.348,121.361 141.974 M282.945 141.772 C 282.945 141.915,283.172 142.292,283.450 142.611 L 283.956 143.190 283.524 142.454 C 282.957 141.485,282.945 141.471,282.945 141.772 M106.123 142.883 L 105.153 143.926 106.196 142.956 C 107.166 142.054,107.352 141.840,107.166 141.840 C 107.126 141.840,106.657 142.310,106.123 142.883 M127.910 142.822 C 127.910 143.294,127.960 143.488,128.022 143.252 C 128.084 143.015,128.084 142.629,128.022 142.393 C 127.960 142.156,127.910 142.350,127.910 142.822 M323.092 143.337 C 323.002 143.900,322.976 144.408,323.035 144.466 C 323.094 144.525,323.219 144.116,323.313 143.558 C 323.407 143.000,323.433 142.492,323.370 142.429 C 323.307 142.366,323.182 142.775,323.092 143.337 M88.466 144.540 C 88.993 145.080,89.480 145.521,89.547 145.521 C 89.615 145.521,89.239 145.080,88.712 144.540 C 88.184 144.000,87.698 143.558,87.630 143.558 C 87.563 143.558,87.939 144.000,88.466 144.540 M299.816 144.926 C 298.899 145.423,298.954 145.631,299.877 145.153 C 300.282 144.944,300.613 144.720,300.613 144.656 C 300.613 144.498,300.587 144.507,299.816 144.926 M147.182 145.454 C 147.623 145.509,148.286 145.507,148.655 145.451 C 149.023 145.395,148.663 145.351,147.853 145.352 C 147.043 145.353,146.741 145.399,147.182 145.454 M270.692 146.871 C 270.692 147.006,270.850 147.393,271.043 147.730 C 271.236 148.067,271.394 148.233,271.394 148.098 C 271.394 147.963,271.236 147.577,271.043 147.239 C 270.850 146.902,270.692 146.736,270.692 146.871 M292.209 146.926 C 292.647 146.980,293.365 146.980,293.804 146.926 C 294.242 146.872,293.883 146.827,293.006 146.827 C 292.129 146.827,291.770 146.872,292.209 146.926 M22.542 147.303 C 22.644 147.405,29.347 147.460,37.438 147.425 L 52.147 147.362 37.251 147.239 C 29.059 147.172,22.439 147.200,22.542 147.303 M335.180 147.303 C 335.282 147.405,342.040 147.460,350.198 147.425 L 365.031 147.362 350.012 147.239 C 341.752 147.172,335.077 147.200,335.180 147.303 M313.236 148.282 L 312.515 149.080 313.313 148.359 C 314.056 147.687,314.223 147.485,314.034 147.485 C 313.991 147.485,313.633 147.844,313.236 148.282 M174.390 148.272 C 174.308 148.582,174.249 149.055,174.261 149.325 C 174.273 149.595,174.384 149.385,174.507 148.859 C 174.746 147.839,174.644 147.325,174.390 148.272 M374.601 149.116 C 373.862 149.777,373.807 149.868,374.378 149.487 C 375.056 149.033,375.909 148.206,375.674 148.230 C 375.624 148.235,375.141 148.634,374.601 149.116 M310.046 151.472 L 309.325 152.270 310.123 151.549 C 310.866 150.877,311.033 150.675,310.843 150.675 C 310.801 150.675,310.442 151.034,310.046 151.472 M371.288 151.043 C 370.951 151.236,370.785 151.394,370.920 151.394 C 371.055 151.394,371.442 151.236,371.779 151.043 C 372.117 150.850,372.282 150.692,372.147 150.692 C 372.012 150.692,371.626 150.850,371.288 151.043 M274.110 152.270 C 274.568 152.742,274.998 153.129,275.066 153.129 C 275.133 153.129,274.814 152.742,274.356 152.270 C 273.898 151.798,273.468 151.411,273.401 151.411 C 273.333 151.411,273.653 151.798,274.110 152.270 M119.398 153.017 C 119.304 153.643,119.277 154.206,119.339 154.267 C 119.400 154.328,119.527 153.866,119.621 153.240 C 119.715 152.614,119.741 152.052,119.680 151.991 C 119.619 151.929,119.492 152.391,119.398 153.017 M8.712 153.129 C 8.617 153.687,8.592 154.195,8.655 154.258 C 8.718 154.321,8.843 153.912,8.933 153.350 C 9.022 152.787,9.048 152.279,8.990 152.221 C 8.931 152.162,8.806 152.571,8.712 153.129 M308.221 152.913 C 307.366 153.663,307.365 153.664,308.152 153.141 C 308.587 152.852,309.007 152.510,309.087 152.381 C 309.324 151.998,309.127 152.119,308.221 152.913 M395.640 153.129 C 395.640 153.601,395.690 153.794,395.752 153.558 C 395.814 153.322,395.814 152.936,395.752 152.699 C 395.690 152.463,395.640 152.656,395.640 153.129 M160.099 152.921 C 159.994 153.091,160.032 153.138,160.192 153.039 C 160.358 152.937,160.497 153.177,160.558 153.676 C 160.657 154.472,160.658 154.471,160.697 153.558 C 160.735 152.659,160.449 152.355,160.099 152.921 M366.012 152.883 C 365.703 153.016,365.658 153.094,365.890 153.094 C 366.092 153.094,366.479 152.999,366.748 152.883 C 367.058 152.750,367.103 152.673,366.871 152.673 C 366.669 152.673,366.282 152.767,366.012 152.883 M78.896 153.865 C 79.423 154.405,79.909 154.847,79.977 154.847 C 80.044 154.847,79.668 154.405,79.141 153.865 C 78.614 153.325,78.127 152.883,78.060 152.883 C 77.992 152.883,78.369 153.325,78.896 153.865 M173.388 153.756 C 173.295 154.248,173.269 154.700,173.329 154.760 C 173.389 154.820,173.514 154.467,173.606 153.974 C 173.698 153.482,173.725 153.030,173.665 152.970 C 173.605 152.910,173.480 153.263,173.388 153.756 M132.996 154.172 C 134.013 155.255,134.233 155.450,134.233 155.266 C 134.233 155.226,133.709 154.702,133.067 154.100 L 131.902 153.006 132.996 154.172 M105.153 155.032 C 104.344 155.796,103.902 156.264,104.172 156.071 C 104.947 155.517,106.991 153.618,106.799 153.631 C 106.704 153.637,105.963 154.267,105.153 155.032 M158.760 154.540 L 157.914 155.460 158.834 154.614 C 159.691 153.827,159.867 153.620,159.680 153.620 C 159.639 153.620,159.225 154.034,158.760 154.540 M389.548 154.203 C 389.460 154.434,389.456 154.691,389.540 154.775 C 389.624 154.860,389.706 154.717,389.721 154.458 C 389.736 154.199,389.897 154.595,390.080 155.337 L 390.411 156.687 390.277 155.460 C 390.130 154.106,389.802 153.541,389.548 154.203 M248.712 155.337 C 248.617 155.895,248.592 156.404,248.655 156.466 C 248.718 156.529,248.843 156.121,248.933 155.558 C 249.022 154.996,249.048 154.488,248.990 154.429 C 248.931 154.371,248.806 154.779,248.712 155.337 M360.982 155.460 C 360.386 156.067,359.953 156.564,360.021 156.564 C 360.088 156.564,360.631 156.067,361.227 155.460 C 361.823 154.853,362.256 154.356,362.188 154.356 C 362.121 154.356,361.578 154.853,360.982 155.460 M48.576 155.521 L 47.730 156.442 48.650 155.596 C 49.507 154.809,49.683 154.601,49.496 154.601 C 49.455 154.601,49.041 155.015,48.576 155.521 M80.471 155.181 C 80.797 155.584,81.718 156.192,81.718 156.006 C 81.718 155.959,81.359 155.658,80.920 155.337 C 80.427 154.975,80.255 154.916,80.471 155.181 M261.016 155.634 C 260.933 155.943,260.875 156.417,260.887 156.687 C 260.899 156.957,261.009 156.747,261.133 156.221 C 261.372 155.201,261.270 154.687,261.016 155.634 M389.259 155.828 C 389.259 156.301,389.310 156.494,389.372 156.258 C 389.433 156.021,389.433 155.635,389.372 155.399 C 389.310 155.163,389.259 155.356,389.259 155.828 M390.974 155.460 C 390.976 155.730,391.063 156.282,391.166 156.687 C 391.334 157.348,391.353 157.361,391.358 156.810 C 391.360 156.472,391.274 155.920,391.166 155.583 C 391.012 155.102,390.970 155.076,390.974 155.460 M391.837 157.118 L 391.404 157.914 391.898 157.335 C 392.319 156.842,392.544 156.315,392.331 156.321 C 392.298 156.321,392.075 156.680,391.837 157.118 M172.410 157.441 C 172.320 157.800,172.293 158.142,172.351 158.200 C 172.409 158.258,172.530 158.011,172.621 157.651 C 172.711 157.292,172.737 156.950,172.679 156.892 C 172.622 156.834,172.500 157.081,172.410 157.441 M178.926 157.178 C 178.906 157.448,178.832 157.945,178.763 158.282 L 178.636 158.896 178.899 158.294 C 179.044 157.963,179.117 157.466,179.062 157.189 C 178.965 156.700,178.962 156.700,178.926 157.178 M159.325 158.098 C 159.061 158.819,159.068 158.850,159.394 158.419 C 159.706 158.007,159.890 157.301,159.686 157.301 C 159.648 157.301,159.485 157.660,159.325 158.098 M383.495 158.466 C 383.430 158.972,383.466 159.484,383.574 159.603 C 383.880 159.940,384.543 159.575,384.511 159.087 C 384.485 158.678,384.476 158.677,384.371 159.080 C 384.130 160.001,383.601 159.540,383.737 158.528 C 383.809 157.988,383.811 157.546,383.740 157.546 C 383.670 157.546,383.559 157.960,383.495 158.466 M7.744 158.664 C 7.651 159.156,7.625 159.608,7.685 159.668 C 7.745 159.728,7.869 159.375,7.962 158.882 C 8.054 158.390,8.081 157.938,8.021 157.878 C 7.961 157.818,7.836 158.171,7.744 158.664 M393.836 158.474 C 393.755 158.962,393.791 159.191,393.927 159.054 C 394.051 158.931,394.111 158.568,394.061 158.249 C 393.983 157.758,393.949 157.793,393.836 158.474 M106.046 159.084 L 106.012 159.763 112.188 159.697 C 116.955 159.647,118.379 159.561,118.428 159.319 C 118.462 159.147,118.435 159.119,118.366 159.258 C 118.286 159.419,116.102 159.509,112.267 159.509 L 106.292 159.509 106.185 158.957 C 106.095 158.487,106.074 158.505,106.046 159.084 M225.699 159.004 C 225.574 159.483,225.356 159.503,219.472 159.571 L 213.374 159.641 219.554 159.698 C 225.618 159.754,225.737 159.745,225.895 159.245 C 225.984 158.965,226.006 158.685,225.943 158.622 C 225.880 158.559,225.771 158.731,225.699 159.004 M291.844 158.949 C 292.217 159.006,292.769 159.004,293.071 158.946 C 293.373 158.888,293.067 158.841,292.393 158.843 C 291.718 158.845,291.471 158.893,291.844 158.949 M260.368 159.231 C 260.368 159.454,258.880 159.509,254.233 159.456 C 250.859 159.418,248.098 159.469,248.098 159.571 C 248.098 159.872,260.314 159.795,260.501 159.493 C 260.590 159.349,260.596 159.165,260.515 159.084 C 260.434 159.003,260.368 159.069,260.368 159.231 M320.308 159.264 C 320.396 159.586,322.293 159.632,335.481 159.635 L 350.552 159.638 335.596 159.572 C 324.023 159.520,320.591 159.436,320.424 159.201 C 320.265 158.976,320.235 158.993,320.308 159.264 M39.205 159.437 C 39.511 159.496,39.952 159.494,40.187 159.432 C 40.422 159.371,40.172 159.323,39.632 159.326 C 39.092 159.328,38.900 159.379,39.205 159.437 M90.617 159.440 C 90.990 159.496,91.542 159.495,91.844 159.437 C 92.146 159.378,91.840 159.332,91.166 159.334 C 90.491 159.336,90.244 159.383,90.617 159.440 M145.828 159.443 C 146.334 159.496,147.163 159.496,147.669 159.443 C 148.175 159.390,147.761 159.346,146.748 159.346 C 145.736 159.346,145.322 159.390,145.828 159.443 M351.595 159.437 C 351.899 159.495,352.396 159.495,352.699 159.437 C 353.003 159.378,352.755 159.331,352.147 159.331 C 351.540 159.331,351.291 159.378,351.595 159.437 M19.962 159.888 C 19.882 160.096,19.886 160.335,19.970 160.420 C 20.054 160.504,20.123 160.390,20.123 160.167 C 20.123 159.798,20.942 159.755,29.141 159.693 L 38.160 159.626 29.133 159.567 C 21.189 159.516,20.090 159.555,19.962 159.888 M93.436 159.682 C 93.739 159.741,94.236 159.741,94.540 159.682 C 94.844 159.624,94.595 159.576,93.988 159.576 C 93.380 159.576,93.132 159.624,93.436 159.682 M181.656 159.693 C 183.377 159.735,186.193 159.735,187.914 159.693 C 189.635 159.650,188.227 159.616,184.785 159.616 C 181.344 159.616,179.936 159.650,181.656 159.693 M141.411 166.059 C 141.647 166.120,142.034 166.120,142.270 166.059 C 142.506 165.997,142.313 165.947,141.840 165.947 C 141.368 165.947,141.175 165.997,141.411 166.059 M135.272 168.344 C 135.272 168.816,135.322 169.009,135.384 168.773 C 135.446 168.537,135.446 168.150,135.384 167.914 C 135.322 167.678,135.272 167.871,135.272 168.344 M165.751 170.123 L 165.031 170.920 165.828 170.199 C 166.267 169.803,166.626 169.444,166.626 169.402 C 166.626 169.212,166.423 169.379,165.751 170.123 M163.297 172.577 L 162.577 173.374 163.374 172.653 C 163.813 172.257,164.172 171.898,164.172 171.856 C 164.172 171.666,163.969 171.833,163.297 172.577 M134.290 175.460 C 134.290 175.933,134.341 176.126,134.402 175.890 C 134.464 175.653,134.464 175.267,134.402 175.031 C 134.341 174.794,134.290 174.988,134.290 175.460 M16.687 177.873 C 16.687 178.082,15.016 178.175,10.491 178.216 L 4.294 178.273 10.413 178.343 C 16.127 178.409,17.393 178.293,16.855 177.755 C 16.763 177.662,16.687 177.716,16.687 177.873 M148.282 178.574 C 148.518 178.636,148.905 178.636,149.141 178.574 C 149.377 178.512,149.184 178.462,148.712 178.462 C 148.239 178.462,148.046 178.512,148.282 178.574 M143.374 178.831 C 144.015 178.881,145.064 178.881,145.706 178.831 C 146.347 178.780,145.822 178.739,144.540 178.739 C 143.258 178.739,142.733 178.780,143.374 178.831 " stroke="none" fill="#7cbcfc" fill-rule="evenodd"></path><path id="path2" d="M341.902 91.713 C 342.408 91.765,343.236 91.765,343.742 91.713 C 344.248 91.660,343.834 91.616,342.822 91.616 C 341.810 91.616,341.396 91.660,341.902 91.713 M296.752 111.096 C 297.125 111.153,297.677 111.151,297.979 111.093 C 298.281 111.035,297.975 110.989,297.301 110.990 C 296.626 110.992,296.379 111.040,296.752 111.096 M299.819 111.094 C 300.124 111.153,300.566 111.150,300.800 111.089 C 301.035 111.027,300.785 110.979,300.245 110.982 C 299.706 110.985,299.514 111.035,299.819 111.094 M187.962 113.067 L 187.117 113.988 188.037 113.142 C 188.893 112.355,189.070 112.147,188.882 112.147 C 188.841 112.147,188.427 112.561,187.962 113.067 M224.294 114.923 C 224.294 114.966,224.653 115.325,225.092 115.721 L 225.890 116.442 225.169 115.644 C 224.497 114.901,224.294 114.734,224.294 114.923 M313.865 116.396 C 313.865 116.438,314.224 116.797,314.663 117.193 L 315.460 117.914 314.739 117.117 C 314.068 116.373,313.865 116.206,313.865 116.396 M125.469 118.650 C 125.471 119.325,125.518 119.572,125.575 119.199 C 125.631 118.826,125.630 118.274,125.572 117.972 C 125.513 117.670,125.467 117.975,125.469 118.650 M82.209 118.896 C 81.613 119.503,81.180 120.000,81.248 120.000 C 81.315 120.000,81.858 119.503,82.454 118.896 C 83.050 118.288,83.483 117.791,83.415 117.791 C 83.348 117.791,82.805 118.288,82.209 118.896 M242.886 123.118 C 243.192 123.177,243.633 123.175,243.868 123.113 C 244.103 123.052,243.853 123.004,243.313 123.007 C 242.773 123.009,242.581 123.060,242.886 123.118 M296.258 123.366 C 296.629 123.422,297.236 123.422,297.607 123.366 C 297.979 123.310,297.675 123.264,296.933 123.264 C 296.190 123.264,295.887 123.310,296.258 123.366 M282.030 137.423 C 282.030 138.031,282.078 138.279,282.136 137.975 C 282.195 137.672,282.195 137.175,282.136 136.871 C 282.078 136.567,282.030 136.816,282.030 137.423 M269.024 138.896 C 269.024 139.503,269.072 139.752,269.130 139.448 C 269.189 139.144,269.189 138.647,269.130 138.344 C 269.072 138.040,269.024 138.288,269.024 138.896 M303.175 142.393 L 302.454 143.190 303.252 142.469 C 303.995 141.798,304.162 141.595,303.972 141.595 C 303.930 141.595,303.571 141.954,303.175 142.393 M335.032 146.748 C 335.120 147.070,336.990 147.117,349.959 147.120 L 364.785 147.122 350.075 147.056 C 338.698 147.005,335.315 146.921,335.148 146.685 C 334.989 146.461,334.959 146.478,335.032 146.748 M22.542 147.057 C 22.644 147.159,29.402 147.215,37.560 147.180 L 52.393 147.116 37.374 146.994 C 29.114 146.926,22.439 146.955,22.542 147.057 M95.402 147.167 C 95.707 147.226,96.149 147.224,96.383 147.162 C 96.618 147.101,96.368 147.053,95.828 147.056 C 95.288 147.058,95.096 147.109,95.402 147.167 M376.183 147.914 L 375.337 148.834 376.258 147.989 C 377.114 147.202,377.291 146.994,377.103 146.994 C 377.062 146.994,376.648 147.408,376.183 147.914 M274.356 152.715 C 274.356 152.757,274.715 153.116,275.153 153.512 L 275.951 154.233 275.230 153.436 C 274.558 152.692,274.356 152.525,274.356 152.715 M91.840 159.678 C 92.077 159.740,92.463 159.740,92.699 159.678 C 92.936 159.617,92.742 159.566,92.270 159.566 C 91.798 159.566,91.604 159.617,91.840 159.678 M350.736 159.678 C 350.972 159.740,351.359 159.740,351.595 159.678 C 351.831 159.617,351.638 159.566,351.166 159.566 C 350.693 159.566,350.500 159.617,350.736 159.678 M142.883 166.059 C 143.120 166.120,143.506 166.120,143.742 166.059 C 143.979 165.997,143.785 165.947,143.313 165.947 C 142.840 165.947,142.647 165.997,142.883 166.059 M165.261 170.859 L 164.540 171.656 165.337 170.936 C 165.776 170.539,166.135 170.180,166.135 170.138 C 166.135 169.949,165.932 170.115,165.261 170.859 " stroke="none" fill="#9acffc" fill-rule="evenodd"></path><path id="path3" d="M344.452 94.285 C 344.369 94.594,344.311 95.067,344.322 95.337 C 344.334 95.607,344.445 95.397,344.568 94.871 C 344.808 93.851,344.705 93.338,344.452 94.285 M333.497 95.092 C 332.901 95.699,332.468 96.196,332.536 96.196 C 332.603 96.196,333.146 95.699,333.742 95.092 C 334.338 94.485,334.771 93.988,334.703 93.988 C 334.636 93.988,334.093 94.485,333.497 95.092 M329.969 102.954 C 329.885 103.174,329.827 103.592,329.841 103.885 C 329.857 104.221,329.940 104.102,330.068 103.560 C 330.282 102.648,330.224 102.290,329.969 102.954 M341.625 110.307 C 341.605 110.577,341.532 111.074,341.462 111.411 L 341.336 112.025 341.599 111.423 C 341.743 111.091,341.817 110.595,341.762 110.318 C 341.665 109.829,341.661 109.829,341.625 110.307 M26.589 110.367 L 29.006 110.448 28.855 111.113 C 28.729 111.672,28.748 111.707,28.974 111.335 C 29.555 110.377,29.125 110.181,26.572 110.235 L 24.172 110.287 26.589 110.367 M39.594 110.372 C 39.336 110.535,52.132 110.527,60.368 110.359 C 62.190 110.322,58.325 110.269,51.779 110.242 C 45.233 110.214,39.750 110.273,39.594 110.372 M104.339 110.368 C 106.996 110.407,111.413 110.407,114.155 110.368 C 116.898 110.328,114.724 110.296,109.325 110.296 C 103.926 110.296,101.683 110.328,104.339 110.368 M132.433 110.364 C 132.369 110.468,135.225 110.521,138.779 110.483 L 145.242 110.414 145.350 111.038 C 145.452 111.624,145.457 111.621,145.429 110.985 L 145.399 110.307 138.974 110.241 C 135.440 110.205,132.497 110.261,132.433 110.364 M168.459 110.442 C 168.368 110.588,168.361 110.774,168.442 110.855 C 168.523 110.936,168.589 110.873,168.589 110.716 C 168.589 110.180,181.290 110.322,181.418 110.859 C 181.496 111.186,181.515 111.171,181.497 110.798 C 181.468 110.223,168.807 109.878,168.459 110.442 M197.870 110.368 C 200.949 110.407,205.919 110.407,208.912 110.368 C 211.906 110.329,209.387 110.297,203.313 110.297 C 197.239 110.297,194.790 110.329,197.870 110.368 M244.978 110.366 C 245.759 110.415,246.974 110.414,247.678 110.365 C 248.381 110.315,247.742 110.275,246.258 110.276 C 244.773 110.276,244.197 110.317,244.978 110.366 M358.221 110.368 C 361.494 110.407,366.850 110.407,370.123 110.368 C 373.396 110.329,370.718 110.298,364.172 110.298 C 357.626 110.298,354.948 110.329,358.221 110.368 M301.411 111.089 C 301.647 111.151,302.034 111.151,302.270 111.089 C 302.506 111.028,302.313 110.977,301.840 110.977 C 301.368 110.977,301.175 111.028,301.411 111.089 M67.975 112.224 C 67.975 112.266,68.334 112.625,68.773 113.022 L 69.571 113.742 68.850 112.945 C 68.178 112.201,67.975 112.034,67.975 112.224 M31.889 114.294 L 31.043 115.215 31.963 114.369 C 32.820 113.582,32.996 113.374,32.809 113.374 C 32.768 113.374,32.354 113.788,31.889 114.294 M222.577 113.451 C 222.577 113.512,222.982 113.871,223.478 114.249 C 223.973 114.626,224.301 114.810,224.206 114.657 C 224.012 114.343,222.577 113.281,222.577 113.451 M383.401 119.264 C 383.401 120.546,383.443 121.071,383.493 120.429 C 383.544 119.788,383.544 118.739,383.493 118.098 C 383.443 117.457,383.401 117.982,383.401 119.264 M71.001 119.141 C 71.002 120.086,71.046 120.442,71.099 119.933 C 71.152 119.424,71.152 118.651,71.097 118.215 C 71.043 117.780,71.000 118.196,71.001 119.141 M277.294 120.184 L 275.706 121.840 277.362 120.252 C 278.273 119.379,279.018 118.634,279.018 118.596 C 279.018 118.415,278.769 118.645,277.294 120.184 M129.939 123.190 C 129.845 123.614,129.820 124.013,129.883 124.075 C 129.945 124.138,130.067 123.836,130.153 123.405 C 130.358 122.382,130.160 122.184,129.939 123.190 M28.431 123.008 C 28.534 123.111,34.685 123.166,42.100 123.131 L 55.583 123.067 41.914 122.945 C 34.396 122.877,28.329 122.906,28.431 123.008 M340.824 123.008 C 340.927 123.111,347.078 123.166,354.493 123.131 L 367.975 123.067 354.307 122.945 C 346.789 122.877,340.722 122.906,340.824 123.008 M101.669 123.128 C 102.992 123.172,105.090 123.172,106.332 123.127 C 107.573 123.083,106.491 123.047,103.926 123.047 C 101.362 123.047,100.346 123.084,101.669 123.128 M201.669 123.128 C 203.060 123.172,205.269 123.172,206.577 123.128 C 207.886 123.084,206.748 123.048,204.049 123.048 C 201.350 123.048,200.279 123.084,201.669 123.128 M369.894 126.135 C 369.894 127.012,369.939 127.371,369.993 126.933 C 370.048 126.494,370.048 125.776,369.993 125.337 C 369.939 124.899,369.894 125.258,369.894 126.135 M26.288 125.521 C 26.268 125.791,26.194 126.288,26.125 126.626 L 25.998 127.239 26.261 126.637 C 26.406 126.306,26.479 125.809,26.424 125.533 C 26.327 125.044,26.324 125.043,26.288 125.521 M248.589 125.230 C 248.589 125.272,248.948 125.631,249.387 126.028 L 250.184 126.748 249.463 125.951 C 248.791 125.207,248.589 125.041,248.589 125.230 M303.804 125.476 C 303.804 125.518,304.163 125.877,304.601 126.273 L 305.399 126.994 304.678 126.196 C 304.006 125.453,303.804 125.286,303.804 125.476 M69.972 126.790 C 69.954 127.082,69.875 127.524,69.797 127.771 C 69.664 128.197,69.671 128.198,69.936 127.784 C 70.090 127.544,70.169 127.103,70.111 126.803 C 70.006 126.258,70.005 126.258,69.972 126.790 M57.335 127.168 C 57.252 127.477,57.194 127.951,57.206 128.221 C 57.218 128.491,57.328 128.281,57.452 127.754 C 57.691 126.735,57.589 126.221,57.335 127.168 M265.370 130.184 C 265.370 131.804,265.410 132.434,265.458 131.585 C 265.506 130.737,265.506 129.411,265.457 128.641 C 265.409 127.870,265.369 128.564,265.370 130.184 M128.987 128.476 C 128.903 128.695,128.846 129.114,128.859 129.407 C 128.875 129.743,128.959 129.623,129.086 129.081 C 129.300 128.169,129.242 127.812,128.987 128.476 M320.321 129.693 C 320.323 130.503,320.369 130.805,320.423 130.364 C 320.478 129.923,320.477 129.260,320.421 128.891 C 320.365 128.523,320.320 128.883,320.321 129.693 M325.306 129.457 C 325.222 129.677,325.165 130.096,325.178 130.388 C 325.194 130.725,325.278 130.605,325.405 130.063 C 325.619 129.151,325.561 128.793,325.306 129.457 M337.805 131.670 C 337.713 132.163,337.686 132.615,337.746 132.675 C 337.806 132.735,337.931 132.381,338.023 131.888 C 338.116 131.396,338.142 130.944,338.082 130.884 C 338.022 130.824,337.897 131.178,337.805 131.670 M320.319 132.515 C 320.319 133.258,320.365 133.561,320.421 133.190 C 320.477 132.819,320.477 132.212,320.421 131.840 C 320.365 131.469,320.319 131.773,320.319 132.515 M217.502 133.497 C 217.502 134.374,217.546 134.733,217.601 134.294 C 217.655 133.856,217.655 133.138,217.601 132.699 C 217.546 132.261,217.502 132.620,217.502 133.497 M182.979 132.812 C 182.897 133.121,182.838 133.595,182.850 133.865 C 182.862 134.135,182.972 133.925,183.096 133.399 C 183.335 132.379,183.233 131.865,182.979 132.812 M68.987 133.129 C 68.967 133.399,68.894 133.896,68.824 134.233 L 68.698 134.847 68.961 134.245 C 69.105 133.914,69.179 133.417,69.124 133.140 C 69.026 132.651,69.023 132.651,68.987 133.129 M122.975 134.110 C 122.955 134.380,122.881 134.877,122.812 135.215 L 122.686 135.828 122.948 135.226 C 123.093 134.895,123.166 134.398,123.111 134.122 C 123.014 133.633,123.011 133.632,122.975 134.110 M324.329 135.021 C 324.246 135.330,324.188 135.804,324.200 136.074 C 324.211 136.344,324.322 136.134,324.446 135.607 C 324.685 134.587,324.583 134.074,324.329 135.021 M85.968 137.423 C 85.968 138.301,86.013 138.660,86.067 138.221 C 86.122 137.782,86.122 137.064,86.067 136.626 C 86.013 136.187,85.968 136.546,85.968 137.423 M140.935 137.301 C 140.936 138.110,140.982 138.412,141.037 137.971 C 141.091 137.530,141.090 136.867,141.034 136.499 C 140.978 136.130,140.934 136.491,140.935 137.301 M72.976 139.387 C 72.976 140.939,73.016 141.574,73.065 140.798 C 73.113 140.021,73.113 138.752,73.065 137.975 C 73.016 137.199,72.976 137.834,72.976 139.387 M368.010 137.475 C 367.927 137.784,367.869 138.258,367.881 138.528 C 367.892 138.798,368.003 138.588,368.127 138.061 C 368.366 137.041,368.264 136.528,368.010 137.475 M55.351 138.541 C 55.259 139.034,55.232 139.486,55.292 139.546 C 55.352 139.606,55.477 139.252,55.569 138.759 C 55.662 138.267,55.688 137.815,55.628 137.755 C 55.568 137.695,55.443 138.049,55.351 138.541 M380.670 138.650 C 380.670 139.123,380.721 139.316,380.783 139.080 C 380.844 138.844,380.844 138.457,380.783 138.221 C 380.721 137.985,380.670 138.178,380.670 138.650 M159.866 140.429 L 158.896 141.472 159.939 140.502 C 160.512 139.969,160.982 139.499,160.982 139.459 C 160.982 139.274,160.768 139.460,159.866 140.429 M269.014 140.613 C 269.014 141.086,269.064 141.279,269.126 141.043 C 269.188 140.807,269.188 140.420,269.126 140.184 C 269.064 139.948,269.014 140.141,269.014 140.613 M250.699 142.601 C 250.609 143.164,250.584 143.672,250.642 143.730 C 250.701 143.789,250.826 143.380,250.920 142.822 C 251.015 142.264,251.040 141.756,250.977 141.693 C 250.914 141.630,250.789 142.039,250.699 142.601 M106.120 142.638 L 105.399 143.436 106.196 142.715 C 106.940 142.043,107.107 141.840,106.917 141.840 C 106.875 141.840,106.516 142.199,106.120 142.638 M228.990 142.250 C 228.972 142.543,228.894 142.984,228.816 143.231 C 228.682 143.657,228.690 143.658,228.955 143.244 C 229.109 143.004,229.187 142.563,229.129 142.263 C 229.024 141.718,229.024 141.718,228.990 142.250 M88.589 144.417 C 89.047 144.890,89.477 145.276,89.544 145.276 C 89.612 145.276,89.292 144.890,88.834 144.417 C 88.376 143.945,87.947 143.558,87.879 143.558 C 87.812 143.558,88.131 143.945,88.589 144.417 M181.012 143.936 C 180.928 144.155,180.868 144.519,180.880 144.744 C 180.892 144.969,180.998 144.828,181.117 144.430 C 181.349 143.655,181.267 143.272,181.012 143.936 M9.969 144.672 C 9.885 144.891,9.827 145.310,9.841 145.603 C 9.857 145.939,9.940 145.820,10.068 145.278 C 10.282 144.366,10.224 144.008,9.969 144.672 M147.301 145.206 C 147.672 145.263,148.279 145.263,148.650 145.206 C 149.021 145.150,148.718 145.104,147.975 145.104 C 147.233 145.104,146.929 145.150,147.301 145.206 M291.848 146.684 C 292.493 146.734,293.487 146.734,294.056 146.682 C 294.626 146.631,294.098 146.589,292.883 146.590 C 291.669 146.591,291.203 146.633,291.848 146.684 M120.136 150.320 C 120.044 150.813,120.017 151.265,120.077 151.325 C 120.137 151.385,120.262 151.031,120.354 150.539 C 120.447 150.046,120.473 149.594,120.413 149.534 C 120.353 149.474,120.229 149.828,120.136 150.320 M272.883 151.242 C 272.883 151.285,273.242 151.644,273.681 152.040 L 274.479 152.761 273.758 151.963 C 273.086 151.220,272.883 151.053,272.883 151.242 M227.130 152.529 C 227.038 153.021,227.011 153.473,227.071 153.533 C 227.131 153.593,227.256 153.240,227.348 152.747 C 227.441 152.255,227.467 151.803,227.407 151.743 C 227.347 151.683,227.223 152.036,227.130 152.529 M383.067 152.306 C 385.102 152.487,387.731 152.501,387.731 152.331 C 387.730 152.230,386.488 152.166,384.969 152.188 C 383.451 152.211,382.595 152.264,383.067 152.306 M389.141 152.320 C 389.445 152.379,389.942 152.379,390.245 152.320 C 390.549 152.262,390.301 152.214,389.693 152.214 C 389.086 152.214,388.837 152.262,389.141 152.320 M394.023 152.336 C 393.959 152.440,394.339 152.483,394.867 152.433 C 395.396 152.382,395.828 152.297,395.828 152.244 C 395.828 152.061,394.139 152.147,394.023 152.336 M78.282 153.451 C 78.282 153.493,78.641 153.852,79.080 154.249 L 79.877 154.969 79.157 154.172 C 78.485 153.428,78.282 153.261,78.282 153.451 M132.761 154.233 C 133.219 154.706,133.648 155.092,133.716 155.092 C 133.783 155.092,133.464 154.706,133.006 154.233 C 132.548 153.761,132.118 153.374,132.051 153.374 C 131.983 153.374,132.303 153.761,132.761 154.233 M382.577 153.470 C 382.577 153.523,382.963 153.611,383.436 153.666 C 383.908 153.721,384.294 153.678,384.294 153.570 C 384.294 153.462,383.908 153.374,383.436 153.374 C 382.963 153.374,382.577 153.417,382.577 153.470 M385.954 153.548 C 386.259 153.606,386.701 153.604,386.935 153.543 C 387.170 153.481,386.920 153.433,386.380 153.436 C 385.840 153.439,385.649 153.489,385.954 153.548 M158.773 154.724 C 158.177 155.331,157.744 155.828,157.812 155.828 C 157.879 155.828,158.422 155.331,159.018 154.724 C 159.614 154.117,160.047 153.620,159.979 153.620 C 159.912 153.620,159.369 154.117,158.773 154.724 M106.748 154.084 C 106.748 154.249,106.646 154.321,106.520 154.244 C 106.394 154.166,106.212 154.232,106.114 154.390 C 106.003 154.569,106.043 154.611,106.220 154.502 C 106.401 154.390,106.511 154.531,106.524 154.893 C 106.542 155.384,106.574 155.362,106.761 154.736 C 106.880 154.338,106.926 153.961,106.863 153.898 C 106.800 153.835,106.748 153.919,106.748 154.084 M385.333 154.601 C 385.333 155.074,385.384 155.267,385.445 155.031 C 385.507 154.794,385.507 154.408,385.445 154.172 C 385.384 153.936,385.333 154.129,385.333 154.601 M48.589 155.706 C 47.993 156.313,47.560 156.810,47.628 156.810 C 47.695 156.810,48.238 156.313,48.834 155.706 C 49.430 155.098,49.863 154.601,49.795 154.601 C 49.728 154.601,49.185 155.098,48.589 155.706 M394.037 154.930 C 393.967 155.111,394.009 155.415,394.129 155.605 C 394.289 155.857,394.349 155.767,394.352 155.276 C 394.356 154.543,394.236 154.411,394.037 154.930 M213.654 156.125 C 213.571 156.434,213.513 156.908,213.525 157.178 C 213.537 157.448,213.647 157.238,213.771 156.711 C 214.010 155.692,213.908 155.178,213.654 156.125 M320.644 155.960 C 320.560 156.180,320.502 156.599,320.516 156.891 C 320.532 157.228,320.615 157.108,320.743 156.566 C 320.957 155.654,320.899 155.296,320.644 155.960 M390.188 157.321 C 390.190 157.647,390.300 158.080,390.433 158.282 C 390.603 158.541,390.627 158.396,390.517 157.791 C 390.322 156.733,390.183 156.533,390.188 157.321 M387.638 158.414 C 387.554 158.634,387.496 159.053,387.510 159.345 C 387.526 159.682,387.609 159.562,387.736 159.020 C 387.951 158.108,387.892 157.750,387.638 158.414 M247.910 159.018 C 247.910 159.491,247.960 159.684,248.022 159.448 C 248.084 159.212,248.084 158.825,248.022 158.589 C 247.960 158.353,247.910 158.546,247.910 159.018 M98.160 159.141 C 97.687 159.323,97.466 159.475,97.669 159.479 C 97.871 159.484,98.368 159.335,98.773 159.150 C 99.721 158.716,99.280 158.710,98.160 159.141 M289.018 159.200 C 289.862 159.248,291.242 159.248,292.086 159.200 C 292.929 159.152,292.239 159.113,290.552 159.113 C 288.865 159.113,288.175 159.152,289.018 159.200 M146.319 159.678 C 146.555 159.740,146.942 159.740,147.178 159.678 C 147.414 159.617,147.221 159.566,146.748 159.566 C 146.276 159.566,146.083 159.617,146.319 159.678 M135.372 165.450 C 135.289 165.759,135.231 166.233,135.243 166.503 C 135.254 166.773,135.365 166.563,135.489 166.037 C 135.728 165.017,135.626 164.503,135.372 165.450 M144.728 166.067 C 145.169 166.122,145.832 166.121,146.201 166.065 C 146.569 166.009,146.209 165.964,145.399 165.966 C 144.589 165.967,144.287 166.013,144.728 166.067 M5.306 171.175 C 5.222 171.394,5.165 171.813,5.178 172.106 C 5.194 172.442,5.278 172.323,5.405 171.781 C 5.619 170.869,5.561 170.511,5.306 171.175 M17.805 173.142 C 17.713 173.635,17.686 174.087,17.746 174.147 C 17.806 174.207,17.931 173.853,18.023 173.361 C 18.116 172.868,18.142 172.416,18.082 172.356 C 18.022 172.296,17.897 172.650,17.805 173.142 M4.279 177.053 C 3.967 178.713,3.734 178.656,10.606 178.593 L 16.810 178.536 10.581 178.466 L 4.352 178.396 4.502 177.296 C 4.680 175.999,4.511 175.815,4.279 177.053 M148.957 178.650 L 147.853 178.822 148.834 178.842 C 149.374 178.852,150.037 178.766,150.307 178.650 C 150.875 178.406,150.529 178.406,148.957 178.650 M143.620 179.074 C 144.126 179.127,144.954 179.127,145.460 179.074 C 145.966 179.022,145.552 178.978,144.540 178.978 C 143.528 178.978,143.113 179.022,143.620 179.074 " stroke="none" fill="#c9e5fc" fill-rule="evenodd"></path></g></svg>